<?xml version="1.0" encoding="utf-8" standalone="no"?>
<!DOCTYPE svg PUBLIC "-//W3C//DTD SVG 1.1//EN"
  "http://www.w3.org/Graphics/SVG/1.1/DTD/svg11.dtd">
<!-- Created with matplotlib (https://matplotlib.org/) -->
<svg height="252pt" version="1.1" viewBox="0 0 432 252" width="432pt" xmlns="http://www.w3.org/2000/svg" xmlns:xlink="http://www.w3.org/1999/xlink">
 <metadata>
  <rdf:RDF xmlns:cc="http://creativecommons.org/ns#" xmlns:dc="http://purl.org/dc/elements/1.1/" xmlns:rdf="http://www.w3.org/1999/02/22-rdf-syntax-ns#">
   <cc:Work>
    <dc:type rdf:resource="http://purl.org/dc/dcmitype/StillImage"/>
    <dc:date>2020-12-07T11:35:00.880582</dc:date>
    <dc:format>image/svg+xml</dc:format>
    <dc:creator>
     <cc:Agent>
      <dc:title>Matplotlib v3.3.1, https://matplotlib.org/</dc:title>
     </cc:Agent>
    </dc:creator>
   </cc:Work>
  </rdf:RDF>
 </metadata>
 <defs>
  <style type="text/css">*{stroke-linecap:butt;stroke-linejoin:round;}</style>
 </defs>
 <g id="figure_1">
  <g id="patch_1">
   <path d="M 0 252 
L 432 252 
L 432 0 
L 0 0 
z
" style="fill:none;"/>
  </g>
  <g id="axes_1">
   <g id="patch_2">
    <path d="M 51.331406 208.73125 
L 421.2 208.73125 
L 421.2 10.8 
L 51.331406 10.8 
z
" style="fill:none;"/>
   </g>
   <g id="matplotlib.axis_1">
    <g id="xtick_1">
     <g id="line2d_1">
      <defs>
       <path d="M 0 0 
L 0 4 
" id="mead0b53433" style="stroke:#000000;"/>
      </defs>
      <g>
       <use style="stroke:#000000;" x="80.297019" xlink:href="#mead0b53433" y="208.73125"/>
      </g>
     </g>
     <g id="text_1">
      <!-- 1940 -->
      <g transform="translate(67.932332 224.48125)scale(0.11 -0.11)">
       <defs>
        <path d="M 35.59375 71.484375 
L 35.59375 0 
L 26.5625 0 
L 26.5625 60.203125 
L 8.34375 53.5625 
L 8.34375 61.71875 
L 34.1875 71.484375 
z
" id="Roboto-Regular-49"/>
        <path d="M 49.609375 40.046875 
Q 49.609375 33.109375 48.40625 26.046875 
Q 47.21875 19 43.765625 13.0625 
Q 40.328125 7.125 33.609375 3.515625 
Q 26.90625 -0.09375 14.890625 -0.09375 
L 14.890625 7.5625 
Q 25.6875 7.5625 30.9375 10.9375 
Q 36.1875 14.3125 38.25 19.75 
Q 40.328125 25.203125 40.578125 31.34375 
Q 37.75 27.984375 33.78125 25.875 
Q 29.828125 23.78125 25.203125 23.78125 
Q 18.171875 23.78125 13.671875 27.296875 
Q 9.1875 30.8125 7.03125 36.25 
Q 4.890625 41.703125 4.890625 47.515625 
Q 4.890625 57.671875 10.46875 64.875 
Q 16.0625 72.078125 26.953125 72.078125 
Q 35.0625 72.078125 40.0625 67.875 
Q 45.0625 63.671875 47.328125 57.078125 
Q 49.609375 50.484375 49.609375 43.3125 
z
M 13.765625 48 
Q 13.765625 41.65625 16.96875 36.46875 
Q 20.171875 31.296875 26.65625 31.296875 
Q 31.296875 31.296875 35.078125 34.078125 
Q 38.875 36.859375 40.625 40.96875 
L 40.625 44.53125 
Q 40.625 54.25 36.5 59.421875 
Q 32.375 64.59375 26.953125 64.59375 
Q 20.65625 64.59375 17.203125 59.828125 
Q 13.765625 55.078125 13.765625 48 
z
" id="Roboto-Regular-57"/>
        <path d="M 2.59375 21.828125 
L 34.421875 71.09375 
L 44.046875 71.09375 
L 44.046875 23.921875 
L 53.953125 23.921875 
L 53.953125 16.5 
L 44.046875 16.5 
L 44.046875 0 
L 35.015625 0 
L 35.015625 16.5 
L 2.59375 16.5 
z
M 12.84375 23.921875 
L 35.015625 23.921875 
L 35.015625 58.84375 
L 33.890625 56.84375 
z
" id="Roboto-Regular-52"/>
        <path d="M 50.53125 30.375 
Q 50.53125 12.890625 44.5 5.953125 
Q 38.484375 -0.984375 28.125 -0.984375 
Q 18.0625 -0.984375 11.9375 5.75 
Q 5.8125 12.5 5.609375 29.25 
L 5.609375 41.21875 
Q 5.609375 58.640625 11.71875 65.359375 
Q 17.828125 72.078125 28.03125 72.078125 
Q 38.234375 72.078125 44.28125 65.546875 
Q 50.34375 59.03125 50.53125 42.328125 
z
M 41.453125 42.71875 
Q 41.453125 54.734375 38.03125 59.71875 
Q 34.625 64.703125 28.03125 64.703125 
Q 21.6875 64.703125 18.234375 59.859375 
Q 14.796875 55.03125 14.703125 43.40625 
L 14.703125 28.90625 
Q 14.703125 17 18.1875 11.71875 
Q 21.6875 6.453125 28.125 6.453125 
Q 34.71875 6.453125 38.0625 11.640625 
Q 41.40625 16.84375 41.453125 28.515625 
z
" id="Roboto-Regular-48"/>
       </defs>
       <use xlink:href="#Roboto-Regular-49"/>
       <use x="56.201172" xlink:href="#Roboto-Regular-57"/>
       <use x="112.402344" xlink:href="#Roboto-Regular-52"/>
       <use x="168.603516" xlink:href="#Roboto-Regular-48"/>
      </g>
     </g>
    </g>
    <g id="xtick_2">
     <g id="line2d_2">
      <g>
       <use style="stroke:#000000;" x="161.319712" xlink:href="#mead0b53433" y="208.73125"/>
      </g>
     </g>
     <g id="text_2">
      <!-- 1960 -->
      <g transform="translate(148.955025 224.48125)scale(0.11 -0.11)">
       <defs>
        <path d="M 51.421875 23.1875 
Q 51.421875 13.09375 45.78125 6.046875 
Q 40.140625 -0.984375 29.34375 -0.984375 
Q 21.6875 -0.984375 16.609375 3.09375 
Q 11.53125 7.171875 9.015625 13.453125 
Q 6.5 19.734375 6.5 26.3125 
L 6.5 30.5625 
Q 6.5 40.578125 9.296875 49.90625 
Q 12.109375 59.234375 19.484375 65.203125 
Q 26.859375 71.1875 40.578125 71.1875 
L 41.359375 71.1875 
L 41.359375 63.53125 
Q 31.890625 63.53125 26.640625 60.203125 
Q 21.390625 56.890625 18.828125 51.59375 
Q 16.265625 46.296875 15.71875 40.234375 
Q 21.390625 46.625 31 46.625 
Q 38.09375 46.625 42.609375 43.203125 
Q 47.125 39.796875 49.265625 34.390625 
Q 51.421875 29 51.421875 23.1875 
z
M 15.578125 26.03125 
Q 15.578125 16.546875 19.796875 11.515625 
Q 24.03125 6.5 29.34375 6.5 
Q 35.59375 6.5 39.03125 11.0625 
Q 42.484375 15.625 42.484375 22.75 
Q 42.484375 29.109375 39.3125 34.125 
Q 36.140625 39.15625 29.546875 39.15625 
Q 24.8125 39.15625 20.953125 36.328125 
Q 17.09375 33.5 15.578125 29.4375 
z
" id="Roboto-Regular-54"/>
       </defs>
       <use xlink:href="#Roboto-Regular-49"/>
       <use x="56.201172" xlink:href="#Roboto-Regular-57"/>
       <use x="112.402344" xlink:href="#Roboto-Regular-54"/>
       <use x="168.603516" xlink:href="#Roboto-Regular-48"/>
      </g>
     </g>
    </g>
    <g id="xtick_3">
     <g id="line2d_3">
      <g>
       <use style="stroke:#000000;" x="242.342405" xlink:href="#mead0b53433" y="208.73125"/>
      </g>
     </g>
     <g id="text_3">
      <!-- 1980 -->
      <g transform="translate(229.977718 224.48125)scale(0.11 -0.11)">
       <defs>
        <path d="M 50.6875 19.234375 
Q 50.6875 9.46875 44.15625 4.234375 
Q 37.640625 -0.984375 28.0625 -0.984375 
Q 18.5 -0.984375 11.984375 4.234375 
Q 5.46875 9.46875 5.46875 19.234375 
Q 5.46875 25.203125 8.65625 29.765625 
Q 11.859375 34.328125 17.328125 36.671875 
Q 12.59375 38.96875 9.828125 43.15625 
Q 7.078125 47.359375 7.078125 52.59375 
Q 7.078125 61.921875 13.015625 67 
Q 18.953125 72.078125 28.03125 72.078125 
Q 37.15625 72.078125 43.09375 67 
Q 49.03125 61.921875 49.03125 52.59375 
Q 49.03125 47.3125 46.1875 43.140625 
Q 43.359375 38.96875 38.625 36.671875 
Q 44.140625 34.328125 47.40625 29.734375 
Q 50.6875 25.140625 50.6875 19.234375 
z
M 39.984375 52.4375 
Q 39.984375 57.765625 36.65625 61.203125 
Q 33.34375 64.65625 28.015625 64.65625 
Q 22.703125 64.65625 19.421875 61.359375 
Q 16.15625 58.0625 16.15625 52.4375 
Q 16.15625 46.921875 19.421875 43.59375 
Q 22.703125 40.28125 28.078125 40.28125 
Q 33.40625 40.28125 36.6875 43.59375 
Q 39.984375 46.921875 39.984375 52.4375 
z
M 41.609375 19.4375 
Q 41.609375 25.390625 37.8125 29.140625 
Q 34.03125 32.90625 27.984375 32.90625 
Q 21.78125 32.90625 18.140625 29.140625 
Q 14.5 25.390625 14.5 19.4375 
Q 14.5 13.28125 18.140625 9.859375 
Q 21.78125 6.453125 28.078125 6.453125 
Q 34.375 6.453125 37.984375 9.859375 
Q 41.609375 13.28125 41.609375 19.4375 
z
" id="Roboto-Regular-56"/>
       </defs>
       <use xlink:href="#Roboto-Regular-49"/>
       <use x="56.201172" xlink:href="#Roboto-Regular-57"/>
       <use x="112.402344" xlink:href="#Roboto-Regular-56"/>
       <use x="168.603516" xlink:href="#Roboto-Regular-48"/>
      </g>
     </g>
    </g>
    <g id="xtick_4">
     <g id="line2d_4">
      <g>
       <use style="stroke:#000000;" x="323.365098" xlink:href="#mead0b53433" y="208.73125"/>
      </g>
     </g>
     <g id="text_4">
      <!-- 2000 -->
      <g transform="translate(311.000411 224.48125)scale(0.11 -0.11)">
       <defs>
        <path d="M 52.484375 7.421875 
L 52.484375 0 
L 5.953125 0 
L 5.953125 6.5 
L 30.078125 33.34375 
Q 36.03125 40.09375 38.109375 44.046875 
Q 40.1875 48 40.1875 52 
Q 40.1875 57.234375 36.9375 60.9375 
Q 33.6875 64.65625 27.78125 64.65625 
Q 20.65625 64.65625 17.140625 60.59375 
Q 13.625 56.546875 13.625 50.203125 
L 4.59375 50.203125 
Q 4.59375 59.1875 10.5 65.625 
Q 16.40625 72.078125 27.78125 72.078125 
Q 37.84375 72.078125 43.53125 66.84375 
Q 49.21875 61.625 49.21875 53.078125 
Q 49.21875 46.828125 45.359375 40.5 
Q 41.5 34.1875 35.890625 28.078125 
L 16.84375 7.421875 
z
" id="Roboto-Regular-50"/>
       </defs>
       <use xlink:href="#Roboto-Regular-50"/>
       <use x="56.201172" xlink:href="#Roboto-Regular-48"/>
       <use x="112.402344" xlink:href="#Roboto-Regular-48"/>
       <use x="168.603516" xlink:href="#Roboto-Regular-48"/>
      </g>
     </g>
    </g>
    <g id="xtick_5">
     <g id="line2d_5">
      <g>
       <use style="stroke:#000000;" x="404.387791" xlink:href="#mead0b53433" y="208.73125"/>
      </g>
     </g>
     <g id="text_5">
      <!-- 2020 -->
      <g transform="translate(392.023104 224.48125)scale(0.11 -0.11)">
       <use xlink:href="#Roboto-Regular-50"/>
       <use x="56.201172" xlink:href="#Roboto-Regular-48"/>
       <use x="112.402344" xlink:href="#Roboto-Regular-50"/>
       <use x="168.603516" xlink:href="#Roboto-Regular-48"/>
      </g>
     </g>
    </g>
    <g id="text_6">
     <!-- Year -->
     <g transform="translate(225.190078 238.965625)scale(0.11 -0.11)">
      <defs>
       <path d="M 11.53125 71.09375 
L 29.984375 35.40625 
L 48.484375 71.09375 
L 59.1875 71.09375 
L 34.671875 26.5625 
L 34.671875 0 
L 25.25 0 
L 25.25 26.5625 
L 0.734375 71.09375 
z
" id="Roboto-Regular-89"/>
       <path d="M 48.6875 9.234375 
Q 46.09375 5.328125 41.359375 2.171875 
Q 36.625 -0.984375 28.8125 -0.984375 
Q 17.78125 -0.984375 11.15625 6.1875 
Q 4.546875 13.375 4.546875 24.5625 
L 4.546875 26.609375 
Q 4.546875 35.25 7.84375 41.328125 
Q 11.140625 47.40625 16.40625 50.609375 
Q 21.6875 53.8125 27.640625 53.8125 
Q 38.96875 53.8125 44.15625 46.40625 
Q 49.359375 39.015625 49.359375 27.9375 
L 49.359375 23.875 
L 13.625 23.875 
Q 13.8125 16.609375 17.9375 11.5 
Q 22.078125 6.390625 29.296875 6.390625 
Q 34.078125 6.390625 37.390625 8.34375 
Q 40.71875 10.296875 43.21875 13.578125 
z
M 27.640625 46.390625 
Q 22.265625 46.390625 18.546875 42.484375 
Q 14.84375 38.578125 13.921875 31.25 
L 40.328125 31.25 
L 40.328125 31.9375 
Q 39.984375 37.203125 37.28125 41.796875 
Q 34.578125 46.390625 27.640625 46.390625 
z
" id="Roboto-Regular-101"/>
       <path d="M 39.5 0 
Q 38.625 1.90625 38.234375 5.5625 
Q 35.6875 2.875 31.875 0.9375 
Q 28.078125 -0.984375 23.1875 -0.984375 
Q 15.09375 -0.984375 10.203125 3.5625 
Q 5.328125 8.109375 5.328125 14.703125 
Q 5.328125 23.1875 11.765625 27.609375 
Q 18.21875 32.03125 29.109375 32.03125 
L 38.03125 32.03125 
L 38.03125 36.234375 
Q 38.03125 40.921875 35.21875 43.71875 
Q 32.421875 46.53125 26.90625 46.53125 
Q 21.78125 46.53125 18.625 44.015625 
Q 15.484375 41.5 15.484375 38.1875 
L 6.453125 38.1875 
Q 6.453125 43.84375 12.15625 48.828125 
Q 17.875 53.8125 27.4375 53.8125 
Q 36.03125 53.8125 41.546875 49.40625 
Q 47.078125 45.015625 47.078125 36.140625 
L 47.078125 12.40625 
Q 47.078125 5.078125 48.921875 0.78125 
L 48.921875 0 
z
M 24.515625 6.9375 
Q 29.390625 6.9375 32.984375 9.375 
Q 36.578125 11.8125 38.03125 14.796875 
L 38.03125 25.6875 
L 29.640625 25.6875 
Q 14.40625 25.390625 14.40625 15.921875 
Q 14.40625 12.15625 16.9375 9.546875 
Q 19.484375 6.9375 24.515625 6.9375 
z
" id="Roboto-Regular-97"/>
       <path d="M 27.984375 45.125 
Q 19.140625 45.125 15.921875 37.5 
L 15.921875 0 
L 6.890625 0 
L 6.890625 52.828125 
L 15.671875 52.828125 
L 15.875 46.78125 
Q 20.21875 53.8125 28.421875 53.8125 
Q 30.953125 53.8125 32.421875 53.125 
L 32.375 44.734375 
Q 30.375 45.125 27.984375 45.125 
z
" id="Roboto-Regular-114"/>
      </defs>
      <use xlink:href="#Roboto-Regular-89"/>
      <use x="60.058594" xlink:href="#Roboto-Regular-101"/>
      <use x="113.085938" xlink:href="#Roboto-Regular-97"/>
      <use x="167.480469" xlink:href="#Roboto-Regular-114"/>
     </g>
    </g>
   </g>
   <g id="matplotlib.axis_2">
    <g id="ytick_1">
     <g id="line2d_6">
      <defs>
       <path d="M 0 0 
L -4 0 
" id="m3b1edc6c73" style="stroke:#000000;"/>
      </defs>
      <g>
       <use style="stroke:#000000;" x="51.331406" xlink:href="#m3b1edc6c73" y="199.734375"/>
      </g>
     </g>
     <g id="text_7">
      <!-- 0 -->
      <g transform="translate(37.649063 203.859375)scale(0.11 -0.11)">
       <use xlink:href="#Roboto-Regular-48"/>
      </g>
     </g>
    </g>
    <g id="ytick_2">
     <g id="line2d_7">
      <g>
       <use style="stroke:#000000;" x="51.331406" xlink:href="#m3b1edc6c73" y="158.839489"/>
      </g>
     </g>
     <g id="text_8">
      <!-- 50 -->
      <g transform="translate(31.466719 162.964489)scale(0.11 -0.11)">
       <defs>
        <path d="M 17.328125 33.84375 
L 10.109375 35.6875 
L 13.671875 71.09375 
L 50.140625 71.09375 
L 50.140625 62.75 
L 21.34375 62.75 
L 19.1875 43.40625 
Q 24.5625 46.484375 31.0625 46.484375 
Q 40.875 46.484375 46.5625 40.015625 
Q 52.25 33.546875 52.25 22.65625 
Q 52.25 12.453125 46.671875 5.734375 
Q 41.109375 -0.984375 29.734375 -0.984375 
Q 21.09375 -0.984375 14.796875 3.875 
Q 8.5 8.734375 7.515625 18.703125 
L 16.109375 18.703125 
Q 17.828125 6.453125 29.734375 6.453125 
Q 36.140625 6.453125 39.65625 10.796875 
Q 43.171875 15.140625 43.171875 22.5625 
Q 43.171875 29.25 39.484375 33.8125 
Q 35.796875 38.375 28.953125 38.375 
Q 24.421875 38.375 22.078125 37.15625 
Q 19.734375 35.9375 17.328125 33.84375 
z
" id="Roboto-Regular-53"/>
       </defs>
       <use xlink:href="#Roboto-Regular-53"/>
       <use x="56.201172" xlink:href="#Roboto-Regular-48"/>
      </g>
     </g>
    </g>
    <g id="ytick_3">
     <g id="line2d_8">
      <g>
       <use style="stroke:#000000;" x="51.331406" xlink:href="#m3b1edc6c73" y="117.944602"/>
      </g>
     </g>
     <g id="text_9">
      <!-- 100 -->
      <g transform="translate(25.284375 122.069602)scale(0.11 -0.11)">
       <use xlink:href="#Roboto-Regular-49"/>
       <use x="56.201172" xlink:href="#Roboto-Regular-48"/>
       <use x="112.402344" xlink:href="#Roboto-Regular-48"/>
      </g>
     </g>
    </g>
    <g id="ytick_4">
     <g id="line2d_9">
      <g>
       <use style="stroke:#000000;" x="51.331406" xlink:href="#m3b1edc6c73" y="77.049716"/>
      </g>
     </g>
     <g id="text_10">
      <!-- 150 -->
      <g transform="translate(25.284375 81.174716)scale(0.11 -0.11)">
       <use xlink:href="#Roboto-Regular-49"/>
       <use x="56.201172" xlink:href="#Roboto-Regular-53"/>
       <use x="112.402344" xlink:href="#Roboto-Regular-48"/>
      </g>
     </g>
    </g>
    <g id="ytick_5">
     <g id="line2d_10">
      <g>
       <use style="stroke:#000000;" x="51.331406" xlink:href="#m3b1edc6c73" y="36.15483"/>
      </g>
     </g>
     <g id="text_11">
      <!-- 200 -->
      <g transform="translate(25.284375 40.27983)scale(0.11 -0.11)">
       <use xlink:href="#Roboto-Regular-50"/>
       <use x="56.201172" xlink:href="#Roboto-Regular-48"/>
       <use x="112.402344" xlink:href="#Roboto-Regular-48"/>
      </g>
     </g>
    </g>
    <g id="text_12">
     <!-- Total detections -->
     <g transform="translate(19.05 149.439531)rotate(-90)scale(0.11 -0.11)">
      <defs>
       <path d="M 2.4375 63.375 
L 2.4375 71.09375 
L 57.375 71.09375 
L 57.375 63.375 
L 34.515625 63.375 
L 34.515625 0 
L 25.25 0 
L 25.25 63.375 
z
" id="Roboto-Regular-84"/>
       <path d="M 4.5 26.953125 
Q 4.5 38.421875 10.9375 46.109375 
Q 17.390625 53.8125 28.46875 53.8125 
Q 39.546875 53.8125 45.984375 46.265625 
Q 52.4375 38.71875 52.59375 27.4375 
L 52.59375 25.828125 
Q 52.59375 14.359375 46.125 6.6875 
Q 39.65625 -0.984375 28.5625 -0.984375 
Q 17.4375 -0.984375 10.96875 6.6875 
Q 4.5 14.359375 4.5 25.828125 
z
M 13.53125 25.828125 
Q 13.53125 17.96875 17.265625 12.203125 
Q 21 6.453125 28.5625 6.453125 
Q 35.9375 6.453125 39.6875 12.140625 
Q 43.453125 17.828125 43.5 25.6875 
L 43.5 26.953125 
Q 43.5 34.71875 39.734375 40.546875 
Q 35.984375 46.390625 28.46875 46.390625 
Q 21 46.390625 17.265625 40.546875 
Q 13.53125 34.71875 13.53125 26.953125 
z
" id="Roboto-Regular-111"/>
       <path d="M 29.25 0 
Q 26.171875 -0.984375 22.265625 -0.984375 
Q 17.234375 -0.984375 13.671875 2.09375 
Q 10.109375 5.171875 10.109375 13.140625 
L 10.109375 45.90625 
L 0.4375 45.90625 
L 0.4375 52.828125 
L 10.109375 52.828125 
L 10.109375 65.671875 
L 19.140625 65.671875 
L 19.140625 52.828125 
L 29 52.828125 
L 29 45.90625 
L 19.140625 45.90625 
L 19.140625 13.09375 
Q 19.140625 9.03125 20.890625 7.90625 
Q 22.65625 6.78125 24.953125 6.78125 
Q 26.65625 6.78125 29.203125 7.375 
z
" id="Roboto-Regular-116"/>
       <path d="M 16.703125 75 
L 16.703125 0 
L 7.625 0 
L 7.625 75 
z
" id="Roboto-Regular-108"/>
       <path id="Roboto-Regular-32"/>
       <path d="M 40.96875 0 
L 40.53125 5.671875 
Q 35.109375 -0.984375 25.4375 -0.984375 
Q 16.15625 -0.984375 10.4375 6.53125 
Q 4.734375 14.0625 4.640625 25.4375 
L 4.640625 26.859375 
Q 4.640625 38.96875 10.375 46.390625 
Q 16.109375 53.8125 25.53125 53.8125 
Q 34.859375 53.8125 40.1875 47.5625 
L 40.1875 75 
L 49.265625 75 
L 49.265625 0 
z
M 13.71875 25.828125 
Q 13.71875 17.96875 17.03125 12.328125 
Q 20.359375 6.6875 27.6875 6.6875 
Q 36.078125 6.6875 40.1875 14.359375 
L 40.1875 38.671875 
Q 36.140625 46.1875 27.78125 46.1875 
Q 20.40625 46.1875 17.0625 40.453125 
Q 13.71875 34.71875 13.71875 26.859375 
z
" id="Roboto-Regular-100"/>
       <path d="M 28.03125 6.453125 
Q 32.859375 6.453125 36.5 9.328125 
Q 40.140625 12.203125 40.484375 16.703125 
L 49.078125 16.703125 
Q 48.734375 9.625 42.578125 4.3125 
Q 36.421875 -0.984375 28.03125 -0.984375 
Q 16.109375 -0.984375 10.328125 6.875 
Q 4.546875 14.75 4.546875 25.390625 
L 4.546875 27.4375 
Q 4.546875 38.09375 10.328125 45.953125 
Q 16.109375 53.8125 28.03125 53.8125 
Q 37.3125 53.8125 43.015625 48.3125 
Q 48.734375 42.828125 49.078125 34.671875 
L 40.484375 34.671875 
Q 40.140625 39.546875 36.796875 42.96875 
Q 33.453125 46.390625 28.03125 46.390625 
Q 22.46875 46.390625 19.3125 43.546875 
Q 16.15625 40.71875 14.859375 36.375 
Q 13.578125 32.03125 13.578125 27.4375 
L 13.578125 25.390625 
Q 13.578125 20.75 14.84375 16.40625 
Q 16.109375 12.0625 19.25 9.25 
Q 22.40625 6.453125 28.03125 6.453125 
z
" id="Roboto-Regular-99"/>
       <path d="M 6.9375 66.84375 
Q 6.9375 69.046875 8.28125 70.5625 
Q 9.625 72.078125 12.25 72.078125 
Q 14.84375 72.078125 16.234375 70.5625 
Q 17.625 69.046875 17.625 66.84375 
Q 17.625 64.75 16.234375 63.25 
Q 14.84375 61.765625 12.25 61.765625 
Q 9.625 61.765625 8.28125 63.25 
Q 6.9375 64.75 6.9375 66.84375 
z
M 16.703125 52.828125 
L 16.703125 0 
L 7.625 0 
L 7.625 52.828125 
z
" id="Roboto-Regular-105"/>
       <path d="M 28.8125 46.1875 
Q 24.46875 46.1875 21.140625 43.84375 
Q 17.828125 41.5 15.921875 37.75 
L 15.921875 0 
L 6.890625 0 
L 6.890625 52.828125 
L 15.4375 52.828125 
L 15.71875 46.234375 
Q 21.734375 53.8125 31.5 53.8125 
Q 39.265625 53.8125 43.828125 49.46875 
Q 48.390625 45.125 48.4375 34.859375 
L 48.4375 0 
L 39.359375 0 
L 39.359375 34.71875 
Q 39.359375 40.921875 36.640625 43.546875 
Q 33.9375 46.1875 28.8125 46.1875 
z
" id="Roboto-Regular-110"/>
       <path d="M 37.640625 14.015625 
Q 37.640625 16.890625 35.515625 19.203125 
Q 33.40625 21.53125 25.734375 23.09375 
Q 16.890625 24.90625 11.671875 28.34375 
Q 6.453125 31.78125 6.453125 38.375 
Q 6.453125 44.625 11.796875 49.21875 
Q 17.140625 53.8125 26.03125 53.8125 
Q 35.5 53.8125 40.8125 48.96875 
Q 46.140625 44.140625 46.140625 37.3125 
L 37.109375 37.3125 
Q 37.109375 40.578125 34.21875 43.484375 
Q 31.34375 46.390625 26.03125 46.390625 
Q 20.40625 46.390625 17.96875 43.9375 
Q 15.53125 41.5 15.53125 38.625 
Q 15.53125 35.75 17.796875 33.953125 
Q 20.0625 32.171875 27.4375 30.515625 
Q 37.15625 28.328125 41.921875 24.75 
Q 46.6875 21.1875 46.6875 14.703125 
Q 46.6875 7.71875 41.09375 3.359375 
Q 35.5 -0.984375 26.265625 -0.984375 
Q 15.765625 -0.984375 10.203125 4.390625 
Q 4.640625 9.765625 4.640625 16.3125 
L 13.71875 16.3125 
Q 14.015625 10.6875 18.046875 8.5625 
Q 22.078125 6.453125 26.265625 6.453125 
Q 31.78125 6.453125 34.703125 8.59375 
Q 37.640625 10.75 37.640625 14.015625 
z
" id="Roboto-Regular-115"/>
      </defs>
      <use xlink:href="#Roboto-Regular-84"/>
      <use x="59.667969" xlink:href="#Roboto-Regular-111"/>
      <use x="116.699219" xlink:href="#Roboto-Regular-116"/>
      <use x="149.414062" xlink:href="#Roboto-Regular-97"/>
      <use x="203.808594" xlink:href="#Roboto-Regular-108"/>
      <use x="228.125" xlink:href="#Roboto-Regular-32"/>
      <use x="252.929688" xlink:href="#Roboto-Regular-100"/>
      <use x="309.326172" xlink:href="#Roboto-Regular-101"/>
      <use x="362.353516" xlink:href="#Roboto-Regular-116"/>
      <use x="395.068359" xlink:href="#Roboto-Regular-101"/>
      <use x="448.095703" xlink:href="#Roboto-Regular-99"/>
      <use x="500.439453" xlink:href="#Roboto-Regular-116"/>
      <use x="533.154297" xlink:href="#Roboto-Regular-105"/>
      <use x="557.470703" xlink:href="#Roboto-Regular-111"/>
      <use x="614.501953" xlink:href="#Roboto-Regular-110"/>
      <use x="669.726562" xlink:href="#Roboto-Regular-115"/>
     </g>
    </g>
   </g>
   <g id="LineCollection_1">
    <path clip-path="url(#pe2fc65d50c)" d="M 181.575385 199.734375 
L 181.575385 19.796875 
" style="fill:none;stroke:#000000;stroke-dasharray:3.7,1.6;stroke-dashoffset:0;stroke-opacity:0.7;"/>
    <path clip-path="url(#pe2fc65d50c)" d="M 250.444674 199.734375 
L 250.444674 19.796875 
" style="fill:none;stroke:#000000;stroke-dasharray:3.7,1.6;stroke-dashoffset:0;stroke-opacity:0.7;"/>
    <path clip-path="url(#pe2fc65d50c)" d="M 258.546944 199.734375 
L 258.546944 19.796875 
" style="fill:none;stroke:#000000;stroke-dasharray:3.7,1.6;stroke-dashoffset:0;stroke-opacity:0.7;"/>
    <path clip-path="url(#pe2fc65d50c)" d="M 323.365098 199.734375 
L 323.365098 19.796875 
" style="fill:none;stroke:#000000;stroke-dasharray:3.7,1.6;stroke-dashoffset:0;stroke-opacity:0.7;"/>
    <path clip-path="url(#pe2fc65d50c)" d="M 335.518502 199.734375 
L 335.518502 19.796875 
" style="fill:none;stroke:#000000;stroke-dasharray:3.7,1.6;stroke-dashoffset:0;stroke-opacity:0.7;"/>
    <path clip-path="url(#pe2fc65d50c)" d="M 376.029849 199.734375 
L 376.029849 19.796875 
" style="fill:none;stroke:#000000;stroke-dasharray:3.7,1.6;stroke-dashoffset:0;stroke-opacity:0.7;"/>
   </g>
   <g id="line2d_11">
    <path clip-path="url(#pe2fc65d50c)" d="M 68.143615 198.916477 
L 80.297019 198.09858 
L 84.348154 198.09858 
L 173.473116 197.280682 
L 193.728789 196.462784 
L 197.779924 194.826989 
L 201.831059 192.373295 
L 205.882193 185.830114 
L 209.933328 183.37642 
L 213.984463 179.286932 
L 218.035597 176.015341 
L 222.086732 170.290057 
L 226.137866 168.654261 
L 230.189001 165.38267 
L 234.240136 162.11108 
L 238.29127 160.475284 
L 246.39354 158.839489 
L 254.495809 158.021591 
L 258.546944 155.567898 
L 262.598078 152.296307 
L 266.649213 148.206818 
L 270.700348 140.845739 
L 274.751482 138.392045 
L 278.802617 135.938352 
L 282.853752 135.120455 
L 286.904886 131.848864 
L 290.956021 128.577273 
L 295.007156 126.941477 
L 299.05829 123.669886 
L 303.109425 122.851989 
L 307.16056 121.216193 
L 311.211694 117.126705 
L 315.262829 115.490909 
L 319.313963 114.673011 
L 323.365098 113.037216 
L 327.416233 111.40142 
L 331.467367 108.947727 
L 335.518502 108.947727 
L 339.569637 105.676136 
L 343.620771 104.858239 
L 347.671906 98.315057 
L 351.723041 94.225568 
L 355.774175 89.318182 
L 359.82531 84.410795 
L 363.876445 78.685511 
L 367.927579 75.41392 
L 371.978714 70.506534 
L 376.029849 62.327557 
L 380.080983 55.784375 
L 384.132118 51.694886 
L 388.183253 50.876989 
L 392.234387 45.151705 
L 396.285522 40.244318 
L 400.336657 33.701136 
L 404.387791 28.79375 
" style="fill:none;stroke:#334f9f;stroke-linecap:square;"/>
   </g>
   <g id="line2d_12">
    <path clip-path="url(#pe2fc65d50c)" d="M 68.143615 199.734375 
L 80.297019 199.734375 
L 84.348154 199.734375 
L 173.473116 199.734375 
L 193.728789 199.734375 
L 197.779924 199.734375 
L 201.831059 199.734375 
L 205.882193 199.734375 
L 209.933328 199.734375 
L 213.984463 199.734375 
L 218.035597 199.734375 
L 222.086732 199.734375 
L 226.137866 198.916477 
L 230.189001 198.09858 
L 234.240136 198.09858 
L 238.29127 197.280682 
L 246.39354 197.280682 
L 254.495809 196.462784 
L 258.546944 195.644886 
L 262.598078 195.644886 
L 266.649213 195.644886 
L 270.700348 195.644886 
L 274.751482 194.826989 
L 278.802617 193.191193 
L 282.853752 193.191193 
L 286.904886 192.373295 
L 290.956021 192.373295 
L 295.007156 192.373295 
L 299.05829 192.373295 
L 303.109425 192.373295 
L 307.16056 191.555398 
L 311.211694 191.555398 
L 315.262829 191.555398 
L 319.313963 191.555398 
L 323.365098 190.7375 
L 327.416233 188.283807 
L 331.467367 188.283807 
L 335.518502 188.283807 
L 339.569637 187.465909 
L 343.620771 187.465909 
L 347.671906 187.465909 
L 351.723041 187.465909 
L 355.774175 187.465909 
L 359.82531 187.465909 
L 363.876445 185.830114 
L 367.927579 185.830114 
L 371.978714 185.830114 
L 376.029849 185.012216 
L 380.080983 185.012216 
L 384.132118 185.012216 
L 388.183253 185.012216 
L 392.234387 185.012216 
L 396.285522 185.012216 
L 400.336657 185.012216 
L 404.387791 185.012216 
" style="fill:none;stroke:#c23842;stroke-linecap:square;"/>
   </g>
   <g id="line2d_13">
    <path clip-path="url(#pe2fc65d50c)" d="M 68.143615 198.916477 
L 80.297019 198.09858 
L 84.348154 197.280682 
L 173.473116 197.280682 
L 193.728789 197.280682 
L 197.779924 197.280682 
L 201.831059 195.644886 
L 205.882193 195.644886 
L 209.933328 195.644886 
L 213.984463 195.644886 
L 218.035597 195.644886 
L 222.086732 195.644886 
L 226.137866 195.644886 
L 230.189001 195.644886 
L 234.240136 195.644886 
L 238.29127 195.644886 
L 246.39354 195.644886 
L 254.495809 195.644886 
L 258.546944 195.644886 
L 262.598078 194.826989 
L 266.649213 194.826989 
L 270.700348 194.826989 
L 274.751482 194.826989 
L 278.802617 194.826989 
L 282.853752 194.826989 
L 286.904886 194.009091 
L 290.956021 194.009091 
L 295.007156 194.009091 
L 299.05829 194.009091 
L 303.109425 194.009091 
L 307.16056 194.009091 
L 311.211694 194.009091 
L 315.262829 194.009091 
L 319.313963 194.009091 
L 323.365098 194.009091 
L 327.416233 194.009091 
L 331.467367 194.009091 
L 335.518502 194.009091 
L 339.569637 193.191193 
L 343.620771 193.191193 
L 347.671906 193.191193 
L 351.723041 193.191193 
L 355.774175 193.191193 
L 359.82531 193.191193 
L 363.876445 193.191193 
L 367.927579 193.191193 
L 371.978714 193.191193 
L 376.029849 193.191193 
L 380.080983 193.191193 
L 384.132118 191.555398 
L 388.183253 191.555398 
L 392.234387 191.555398 
L 396.285522 191.555398 
L 400.336657 190.7375 
L 404.387791 190.7375 
" style="fill:none;stroke:#6b6f47;stroke-linecap:square;"/>
   </g>
   <g id="patch_3">
    <path d="M 51.331406 208.73125 
L 51.331406 10.8 
" style="fill:none;stroke:#000000;stroke-linecap:square;stroke-linejoin:miter;"/>
   </g>
   <g id="patch_4">
    <path d="M 51.331406 208.73125 
L 421.2 208.73125 
" style="fill:none;stroke:#000000;stroke-linecap:square;stroke-linejoin:miter;"/>
   </g>
   <g id="text_13">
    <!-- NRAO 140-foot -->
    <g transform="translate(180.973116 86.757812)rotate(-90)scale(0.1 -0.1)">
     <defs>
      <path d="M 62.9375 71.09375 
L 62.9375 0 
L 53.46875 0 
L 17.671875 54.828125 
L 17.671875 0 
L 8.25 0 
L 8.25 71.09375 
L 17.671875 71.09375 
L 53.609375 16.109375 
L 53.609375 71.09375 
z
" id="Roboto-Regular-78"/>
      <path d="M 49.8125 0 
L 34.375 28.8125 
L 17.671875 28.8125 
L 17.671875 0 
L 8.25 0 
L 8.25 71.09375 
L 31.78125 71.09375 
Q 43.75 71.09375 50.21875 65.625 
Q 56.6875 60.15625 56.6875 49.75 
Q 56.6875 43.109375 53.09375 38.15625 
Q 49.515625 33.203125 43.171875 30.765625 
L 59.859375 0.59375 
L 59.859375 0 
z
M 17.671875 63.375 
L 17.671875 36.46875 
L 32.078125 36.46875 
Q 39.65625 36.46875 43.484375 40.34375 
Q 47.3125 44.234375 47.3125 49.75 
Q 47.3125 55.90625 43.625 59.640625 
Q 39.9375 63.375 31.78125 63.375 
z
" id="Roboto-Regular-82"/>
      <path d="M 1.421875 0 
L 28.515625 71.09375 
L 36.765625 71.09375 
L 63.96875 0 
L 54.296875 0 
L 47.515625 18.609375 
L 17.78125 18.609375 
L 11.03125 0 
z
M 20.609375 26.3125 
L 44.734375 26.3125 
L 32.671875 59.46875 
z
" id="Roboto-Regular-65"/>
      <path d="M 62.984375 33.296875 
Q 62.984375 17.28125 55.21875 8.140625 
Q 47.46875 -0.984375 34.46875 -0.984375 
Q 21.828125 -0.984375 13.8125 8.140625 
Q 5.8125 17.28125 5.8125 33.296875 
L 5.8125 37.796875 
Q 5.8125 53.765625 13.765625 62.921875 
Q 21.734375 72.078125 34.375 72.078125 
Q 47.265625 72.078125 55.046875 63.0625 
Q 62.84375 54.046875 62.984375 38.375 
z
M 53.65625 37.890625 
Q 53.65625 50.59375 48.578125 57.328125 
Q 43.5 64.0625 34.375 64.0625 
Q 25.640625 64.0625 20.390625 57.328125 
Q 15.140625 50.59375 15.140625 37.890625 
L 15.140625 33.296875 
Q 15.140625 20.515625 20.4375 13.75 
Q 25.734375 6.984375 34.46875 6.984375 
Q 43.65625 6.984375 48.65625 13.75 
Q 53.65625 20.515625 53.65625 33.296875 
z
" id="Roboto-Regular-79"/>
      <path d="M 25.6875 33.9375 
L 25.6875 26.515625 
L 1.859375 26.515625 
L 1.859375 33.9375 
z
" id="Roboto-Regular-45"/>
      <path d="M 31.59375 45.90625 
L 20.359375 45.90625 
L 20.359375 0 
L 11.328125 0 
L 11.328125 45.90625 
L 2.984375 45.90625 
L 2.984375 52.828125 
L 11.328125 52.828125 
L 11.328125 58.734375 
Q 11.421875 67.140625 16.03125 71.578125 
Q 20.65625 76.03125 28.65625 76.03125 
Q 31.640625 76.03125 34.90625 75.25 
L 34.421875 67.875 
Q 32.375 68.3125 29.546875 68.3125 
Q 20.515625 68.3125 20.359375 58.6875 
L 20.359375 52.828125 
L 31.59375 52.828125 
z
" id="Roboto-Regular-102"/>
     </defs>
     <use xlink:href="#Roboto-Regular-78"/>
     <use x="71.337891" xlink:href="#Roboto-Regular-82"/>
     <use x="132.958984" xlink:href="#Roboto-Regular-65"/>
     <use x="198.193359" xlink:href="#Roboto-Regular-79"/>
     <use x="266.992188" xlink:href="#Roboto-Regular-32"/>
     <use x="291.796875" xlink:href="#Roboto-Regular-49"/>
     <use x="347.998047" xlink:href="#Roboto-Regular-52"/>
     <use x="404.199219" xlink:href="#Roboto-Regular-48"/>
     <use x="460.400391" xlink:href="#Roboto-Regular-45"/>
     <use x="488.037109" xlink:href="#Roboto-Regular-102"/>
     <use x="522.802734" xlink:href="#Roboto-Regular-111"/>
     <use x="579.833984" xlink:href="#Roboto-Regular-111"/>
     <use x="636.865234" xlink:href="#Roboto-Regular-116"/>
    </g>
   </g>
   <g id="text_14">
    <!-- Nobeyama 30-metre -->
    <g transform="translate(249.842405 110.45625)rotate(-90)scale(0.1 -0.1)">
     <defs>
      <path d="M 51.609375 25.828125 
Q 51.609375 14.265625 46.234375 6.640625 
Q 40.875 -0.984375 31.0625 -0.984375 
Q 21.046875 -0.984375 15.625 6.109375 
L 15.140625 0 
L 6.84375 0 
L 6.84375 75 
L 15.921875 75 
L 15.921875 47.125 
Q 21.296875 53.8125 30.953125 53.8125 
Q 40.921875 53.8125 46.265625 46.390625 
Q 51.609375 38.96875 51.609375 26.859375 
z
M 28.71875 46.1875 
Q 23.78125 46.1875 20.703125 43.8125 
Q 17.625 41.453125 15.921875 37.984375 
L 15.921875 14.984375 
Q 17.671875 11.46875 20.796875 9.078125 
Q 23.921875 6.6875 28.8125 6.6875 
Q 36.140625 6.6875 39.328125 12.328125 
Q 42.53125 17.96875 42.53125 25.828125 
L 42.53125 26.859375 
Q 42.53125 34.71875 39.46875 40.453125 
Q 36.421875 46.1875 28.71875 46.1875 
z
" id="Roboto-Regular-98"/>
      <path d="M 24.90625 -8.15625 
Q 20.21875 -20.5625 10.75 -21.296875 
L 9.234375 -21.34375 
Q 6.34375 -21.34375 4.15625 -20.5625 
L 4.109375 -13.234375 
L 6.546875 -13.421875 
Q 11.140625 -13.421875 13.71875 -11.546875 
Q 16.3125 -9.671875 17.96875 -4.78125 
L 19.921875 0.59375 
L 1.078125 52.828125 
L 10.9375 52.828125 
L 24.171875 13.28125 
L 36.421875 52.828125 
L 46.09375 52.828125 
z
" id="Roboto-Regular-121"/>
      <path d="M 28.03125 46.1875 
Q 19.140625 46.1875 15.875 38.71875 
L 15.875 0 
L 6.78125 0 
L 6.78125 52.828125 
L 15.375 52.828125 
L 15.625 47.078125 
Q 21.34375 53.8125 31.25 53.8125 
Q 36.328125 53.8125 40.296875 51.78125 
Q 44.28125 49.75 46.390625 45.3125 
Q 49.03125 49.125 53.25 51.46875 
Q 57.46875 53.8125 63.1875 53.8125 
Q 71.6875 53.8125 76.296875 49.265625 
Q 80.90625 44.734375 80.90625 34.71875 
L 80.90625 0 
L 71.828125 0 
L 71.828125 34.8125 
Q 71.828125 41.453125 68.765625 43.8125 
Q 65.71875 46.1875 60.546875 46.1875 
Q 55.078125 46.1875 51.953125 42.9375 
Q 48.828125 39.703125 48.34375 35.0625 
L 48.34375 0 
L 39.3125 0 
L 39.3125 34.765625 
Q 39.3125 40.96875 36.234375 43.578125 
Q 33.15625 46.1875 28.03125 46.1875 
z
" id="Roboto-Regular-109"/>
      <path d="M 19.09375 32.5625 
L 19.09375 39.984375 
L 25.734375 39.984375 
Q 32.71875 40.046875 36.125 43.5 
Q 39.546875 46.96875 39.546875 52.15625 
Q 39.546875 64.65625 27.15625 64.65625 
Q 21.390625 64.65625 17.828125 61.359375 
Q 14.265625 58.0625 14.265625 52.484375 
L 5.21875 52.484375 
Q 5.21875 60.640625 11.25 66.359375 
Q 17.28125 72.078125 27.15625 72.078125 
Q 36.765625 72.078125 42.703125 66.96875 
Q 48.640625 61.859375 48.640625 51.953125 
Q 48.640625 48 45.96875 43.5 
Q 43.3125 39.015625 37.453125 36.53125 
Q 44.53125 34.234375 47.109375 29.4375 
Q 49.703125 24.65625 49.703125 19.828125 
Q 49.703125 9.859375 43.25 4.4375 
Q 36.8125 -0.984375 27.203125 -0.984375 
Q 17.921875 -0.984375 11.28125 4.171875 
Q 4.640625 9.328125 4.640625 18.796875 
L 13.671875 18.796875 
Q 13.671875 13.1875 17.3125 9.8125 
Q 20.953125 6.453125 27.203125 6.453125 
Q 33.40625 6.453125 37.015625 9.71875 
Q 40.625 12.984375 40.625 19.625 
Q 40.625 26.265625 36.515625 29.40625 
Q 32.421875 32.5625 25.53125 32.5625 
z
" id="Roboto-Regular-51"/>
     </defs>
     <use xlink:href="#Roboto-Regular-78"/>
     <use x="71.337891" xlink:href="#Roboto-Regular-111"/>
     <use x="128.369141" xlink:href="#Roboto-Regular-98"/>
     <use x="184.521484" xlink:href="#Roboto-Regular-101"/>
     <use x="237.548828" xlink:href="#Roboto-Regular-121"/>
     <use x="284.863281" xlink:href="#Roboto-Regular-97"/>
     <use x="339.257812" xlink:href="#Roboto-Regular-109"/>
     <use x="426.953125" xlink:href="#Roboto-Regular-97"/>
     <use x="481.347656" xlink:href="#Roboto-Regular-32"/>
     <use x="506.152344" xlink:href="#Roboto-Regular-51"/>
     <use x="562.353516" xlink:href="#Roboto-Regular-48"/>
     <use x="618.554688" xlink:href="#Roboto-Regular-45"/>
     <use x="646.191406" xlink:href="#Roboto-Regular-109"/>
     <use x="733.886719" xlink:href="#Roboto-Regular-101"/>
     <use x="786.914062" xlink:href="#Roboto-Regular-116"/>
     <use x="819.628906" xlink:href="#Roboto-Regular-114"/>
     <use x="853.515625" xlink:href="#Roboto-Regular-101"/>
    </g>
   </g>
   <g id="text_15">
    <!-- IRAM 30-metre -->
    <g transform="translate(257.944674 86.457812)rotate(-90)scale(0.1 -0.1)">
     <defs>
      <path d="M 18.359375 71.09375 
L 18.359375 0 
L 8.9375 0 
L 8.9375 71.09375 
z
" id="Roboto-Regular-73"/>
      <path d="M 43.65625 13.140625 
L 66.890625 71.09375 
L 79 71.09375 
L 79 0 
L 69.625 0 
L 69.625 27.734375 
L 70.5625 57.46875 
L 47.171875 0 
L 40.046875 0 
L 16.703125 57.5625 
L 17.625 27.734375 
L 17.625 0 
L 8.25 0 
L 8.25 71.09375 
L 20.359375 71.09375 
z
" id="Roboto-Regular-77"/>
     </defs>
     <use xlink:href="#Roboto-Regular-73"/>
     <use x="27.197266" xlink:href="#Roboto-Regular-82"/>
     <use x="88.818359" xlink:href="#Roboto-Regular-65"/>
     <use x="154.052734" xlink:href="#Roboto-Regular-77"/>
     <use x="241.357422" xlink:href="#Roboto-Regular-32"/>
     <use x="266.162109" xlink:href="#Roboto-Regular-51"/>
     <use x="322.363281" xlink:href="#Roboto-Regular-48"/>
     <use x="378.564453" xlink:href="#Roboto-Regular-45"/>
     <use x="406.201172" xlink:href="#Roboto-Regular-109"/>
     <use x="493.896484" xlink:href="#Roboto-Regular-101"/>
     <use x="546.923828" xlink:href="#Roboto-Regular-116"/>
     <use x="579.638672" xlink:href="#Roboto-Regular-114"/>
     <use x="613.525391" xlink:href="#Roboto-Regular-101"/>
    </g>
   </g>
   <g id="text_16">
    <!-- GBT 100-metre -->
    <g transform="translate(322.762829 86.95)rotate(-90)scale(0.1 -0.1)">
     <defs>
      <path d="M 60.796875 35.40625 
L 60.796875 9.375 
Q 58.796875 6.453125 53.171875 2.734375 
Q 47.5625 -0.984375 35.640625 -0.984375 
Q 22.65625 -0.984375 14.296875 7.921875 
Q 5.953125 16.84375 5.953125 32.8125 
L 5.953125 38.328125 
Q 5.953125 54.203125 13.375 63.140625 
Q 20.796875 72.078125 34.578125 72.078125 
Q 46.78125 72.078125 53.09375 65.921875 
Q 59.421875 59.765625 60.796875 50.296875 
L 51.375 50.296875 
Q 50.390625 56.0625 46.546875 60.203125 
Q 42.71875 64.359375 34.578125 64.359375 
Q 24.75 64.359375 20.109375 57.4375 
Q 15.484375 50.53125 15.4375 38.671875 
L 15.4375 32.8125 
Q 15.4375 20.515625 21 13.59375 
Q 26.5625 6.6875 35.6875 6.6875 
Q 43.265625 6.6875 46.625 8.46875 
Q 50 10.25 51.421875 11.859375 
L 51.421875 27.78125 
L 34.96875 27.78125 
L 34.96875 35.40625 
z
" id="Roboto-Regular-71"/>
      <path d="M 56.640625 20.515625 
Q 56.640625 10.546875 50.21875 5.265625 
Q 43.796875 0 33.15625 0 
L 8.25 0 
L 8.25 71.09375 
L 31.546875 71.09375 
Q 42.484375 71.09375 48.609375 66.578125 
Q 54.734375 62.0625 54.734375 52.15625 
Q 54.734375 47.21875 51.921875 43.375 
Q 49.125 39.546875 44.234375 37.453125 
Q 50.25 35.796875 53.4375 31.15625 
Q 56.640625 26.515625 56.640625 20.515625 
z
M 17.671875 63.375 
L 17.671875 40.828125 
L 31.84375 40.828125 
Q 37.890625 40.828125 41.59375 43.84375 
Q 45.3125 46.875 45.3125 52.25 
Q 45.3125 63.140625 32.125 63.375 
z
M 47.265625 20.40625 
Q 47.265625 26.375 44.015625 29.8125 
Q 40.765625 33.25 33.59375 33.25 
L 17.671875 33.25 
L 17.671875 7.671875 
L 33.15625 7.671875 
Q 39.84375 7.671875 43.546875 11.109375 
Q 47.265625 14.546875 47.265625 20.40625 
z
" id="Roboto-Regular-66"/>
     </defs>
     <use xlink:href="#Roboto-Regular-71"/>
     <use x="68.115234" xlink:href="#Roboto-Regular-66"/>
     <use x="130.419922" xlink:href="#Roboto-Regular-84"/>
     <use x="190.087891" xlink:href="#Roboto-Regular-32"/>
     <use x="214.892578" xlink:href="#Roboto-Regular-49"/>
     <use x="271.09375" xlink:href="#Roboto-Regular-48"/>
     <use x="327.294922" xlink:href="#Roboto-Regular-48"/>
     <use x="383.496094" xlink:href="#Roboto-Regular-45"/>
     <use x="411.132812" xlink:href="#Roboto-Regular-109"/>
     <use x="498.828125" xlink:href="#Roboto-Regular-101"/>
     <use x="551.855469" xlink:href="#Roboto-Regular-116"/>
     <use x="584.570312" xlink:href="#Roboto-Regular-114"/>
     <use x="618.457031" xlink:href="#Roboto-Regular-101"/>
    </g>
   </g>
   <g id="text_17">
    <!-- SMA -->
    <g transform="translate(334.916233 40.989062)rotate(-90)scale(0.1 -0.1)">
     <defs>
      <path d="M 46.140625 17.96875 
Q 46.140625 22.859375 42.84375 25.78125 
Q 39.546875 28.71875 29 31.8125 
Q 18.453125 34.90625 12.328125 39.71875 
Q 6.203125 44.53125 6.203125 52.734375 
Q 6.203125 61.03125 12.8125 66.546875 
Q 19.4375 72.078125 30.375 72.078125 
Q 42.390625 72.078125 48.90625 65.484375 
Q 55.421875 58.890625 55.421875 50.59375 
L 46.046875 50.59375 
Q 46.046875 56.546875 42.1875 60.453125 
Q 38.328125 64.359375 30.375 64.359375 
Q 22.859375 64.359375 19.234375 61.0625 
Q 15.625 57.765625 15.625 52.828125 
Q 15.625 48.390625 19.453125 45.4375 
Q 23.296875 42.484375 31.9375 40.046875 
Q 44.28125 36.578125 49.9375 31.46875 
Q 55.609375 26.375 55.609375 18.0625 
Q 55.609375 9.375 48.828125 4.1875 
Q 42.046875 -0.984375 30.8125 -0.984375 
Q 24.265625 -0.984375 18.09375 1.453125 
Q 11.921875 3.90625 7.9375 8.71875 
Q 3.953125 13.53125 3.953125 20.609375 
L 13.328125 20.609375 
Q 13.328125 13.328125 18.640625 10 
Q 23.96875 6.6875 30.8125 6.6875 
Q 38.1875 6.6875 42.15625 9.734375 
Q 46.140625 12.796875 46.140625 17.96875 
z
" id="Roboto-Regular-83"/>
     </defs>
     <use xlink:href="#Roboto-Regular-83"/>
     <use x="59.375" xlink:href="#Roboto-Regular-77"/>
     <use x="146.679688" xlink:href="#Roboto-Regular-65"/>
    </g>
   </g>
   <g id="text_18">
    <!-- ALMA -->
    <g transform="translate(375.427579 46.960937)rotate(-90)scale(0.1 -0.1)">
     <defs>
      <path d="M 51.375 7.671875 
L 51.375 0 
L 8.25 0 
L 8.25 71.09375 
L 17.671875 71.09375 
L 17.671875 7.671875 
z
" id="Roboto-Regular-76"/>
     </defs>
     <use xlink:href="#Roboto-Regular-65"/>
     <use x="65.234375" xlink:href="#Roboto-Regular-76"/>
     <use x="119.091797" xlink:href="#Roboto-Regular-77"/>
     <use x="206.396484" xlink:href="#Roboto-Regular-65"/>
    </g>
   </g>
   <g id="legend_1">
    <g id="line2d_14">
     <path d="M 60.331406 23.8 
L 80.331406 23.8 
" style="fill:none;stroke:#334f9f;stroke-linecap:square;"/>
    </g>
    <g id="line2d_15"/>
    <g id="text_19">
     <!-- Radio -->
     <g transform="translate(88.331406 27.3)scale(0.1 -0.1)">
      <use xlink:href="#Roboto-Regular-82"/>
      <use x="61.621094" xlink:href="#Roboto-Regular-97"/>
      <use x="116.015625" xlink:href="#Roboto-Regular-100"/>
      <use x="172.412109" xlink:href="#Roboto-Regular-105"/>
      <use x="196.728516" xlink:href="#Roboto-Regular-111"/>
     </g>
    </g>
    <g id="line2d_16">
     <path d="M 60.331406 38.33125 
L 80.331406 38.33125 
" style="fill:none;stroke:#c23842;stroke-linecap:square;"/>
    </g>
    <g id="line2d_17"/>
    <g id="text_20">
     <!-- IR -->
     <g transform="translate(88.331406 41.83125)scale(0.1 -0.1)">
      <use xlink:href="#Roboto-Regular-73"/>
      <use x="27.197266" xlink:href="#Roboto-Regular-82"/>
     </g>
    </g>
    <g id="line2d_18">
     <path d="M 60.331406 52.8625 
L 80.331406 52.8625 
" style="fill:none;stroke:#6b6f47;stroke-linecap:square;"/>
    </g>
    <g id="line2d_19"/>
    <g id="text_21">
     <!-- UV/Vis -->
     <g transform="translate(88.331406 56.3625)scale(0.1 -0.1)">
      <defs>
       <path d="M 48.921875 71.09375 
L 58.296875 71.09375 
L 58.296875 23 
Q 58.296875 10.984375 50.578125 5 
Q 42.875 -0.984375 32.515625 -0.984375 
Q 21.625 -0.984375 14.234375 5 
Q 6.84375 10.984375 6.84375 23 
L 6.84375 71.09375 
L 16.15625 71.09375 
L 16.15625 23 
Q 16.15625 14.65625 20.671875 10.671875 
Q 25.203125 6.6875 32.515625 6.6875 
Q 39.9375 6.6875 44.421875 10.671875 
Q 48.921875 14.65625 48.921875 23 
z
" id="Roboto-Regular-85"/>
       <path d="M 62.359375 71.09375 
L 36.03125 0 
L 27.6875 0 
L 1.421875 71.09375 
L 11.625 71.09375 
L 31.78125 12.5 
L 52.15625 71.09375 
z
" id="Roboto-Regular-86"/>
       <path d="M 38.328125 71.09375 
L 8.6875 -6.109375 
L 0.921875 -6.109375 
L 30.609375 71.09375 
z
" id="Roboto-Regular-47"/>
      </defs>
      <use xlink:href="#Roboto-Regular-85"/>
      <use x="64.84375" xlink:href="#Roboto-Regular-86"/>
      <use x="128.515625" xlink:href="#Roboto-Regular-47"/>
      <use x="169.775391" xlink:href="#Roboto-Regular-86"/>
      <use x="233.447266" xlink:href="#Roboto-Regular-105"/>
      <use x="257.763672" xlink:href="#Roboto-Regular-115"/>
     </g>
    </g>
   </g>
  </g>
 </g>
 <defs>
  <clipPath id="pe2fc65d50c">
   <rect height="197.93125" width="369.868594" x="51.331406" y="10.8"/>
  </clipPath>
 </defs>
</svg>
