<?xml version="1.0" encoding="utf-8" standalone="no"?>
<!DOCTYPE svg PUBLIC "-//W3C//DTD SVG 1.1//EN"
  "http://www.w3.org/Graphics/SVG/1.1/DTD/svg11.dtd">
<!-- Created with matplotlib (https://matplotlib.org/) -->
<svg height="288pt" version="1.1" viewBox="0 0 576 288" width="576pt" xmlns="http://www.w3.org/2000/svg" xmlns:xlink="http://www.w3.org/1999/xlink">
 <defs>
  <style type="text/css">
*{stroke-linecap:butt;stroke-linejoin:round;}
  </style>
 </defs>
 <g id="figure_1">
  <g id="patch_1">
   <path d="M 0 288 
L 576 288 
L 576 0 
L 0 0 
z
" style="fill:none;"/>
  </g>
  <g id="axes_1">
   <g id="patch_2">
    <path d="M 61.477188 243.866719 
L 542.111172 243.866719 
L 542.111172 25.05 
L 61.477188 25.05 
z
" style="fill:none;"/>
   </g>
   <g id="matplotlib.axis_1">
    <g id="xtick_1">
     <g id="line2d_1">
      <defs>
       <path d="M 0 0 
L 0 4 
" id="m66e41dff92" style="stroke:#000000;"/>
      </defs>
      <g>
       <use style="stroke:#000000;" x="61.477187" xlink:href="#m66e41dff92" y="243.866719"/>
      </g>
     </g>
     <g id="text_1">
      <!-- 22078.65 -->
      <defs>
       <path d="M 52.484375 7.421875 
L 52.484375 0 
L 5.953125 0 
L 5.953125 6.5 
L 30.078125 33.34375 
Q 36.03125 40.09375 38.109375 44.046875 
Q 40.1875 48 40.1875 52 
Q 40.1875 57.234375 36.9375 60.9375 
Q 33.6875 64.65625 27.78125 64.65625 
Q 20.65625 64.65625 17.140625 60.59375 
Q 13.625 56.546875 13.625 50.203125 
L 4.59375 50.203125 
Q 4.59375 59.1875 10.5 65.625 
Q 16.40625 72.078125 27.78125 72.078125 
Q 37.84375 72.078125 43.53125 66.84375 
Q 49.21875 61.625 49.21875 53.078125 
Q 49.21875 46.828125 45.359375 40.5 
Q 41.5 34.1875 35.890625 28.078125 
L 16.84375 7.421875 
z
" id="Roboto-Regular-50"/>
       <path d="M 50.53125 30.375 
Q 50.53125 12.890625 44.5 5.953125 
Q 38.484375 -0.984375 28.125 -0.984375 
Q 18.0625 -0.984375 11.9375 5.75 
Q 5.8125 12.5 5.609375 29.25 
L 5.609375 41.21875 
Q 5.609375 58.640625 11.71875 65.359375 
Q 17.828125 72.078125 28.03125 72.078125 
Q 38.234375 72.078125 44.28125 65.546875 
Q 50.34375 59.03125 50.53125 42.328125 
z
M 41.453125 42.71875 
Q 41.453125 54.734375 38.03125 59.71875 
Q 34.625 64.703125 28.03125 64.703125 
Q 21.6875 64.703125 18.234375 59.859375 
Q 14.796875 55.03125 14.703125 43.40625 
L 14.703125 28.90625 
Q 14.703125 17 18.1875 11.71875 
Q 21.6875 6.453125 28.125 6.453125 
Q 34.71875 6.453125 38.0625 11.640625 
Q 41.40625 16.84375 41.453125 28.515625 
z
" id="Roboto-Regular-48"/>
       <path d="M 51.859375 71.09375 
L 51.859375 66.015625 
L 22.40625 0 
L 12.890625 0 
L 42.28125 63.671875 
L 3.8125 63.671875 
L 3.8125 71.09375 
z
" id="Roboto-Regular-55"/>
       <path d="M 50.6875 19.234375 
Q 50.6875 9.46875 44.15625 4.234375 
Q 37.640625 -0.984375 28.0625 -0.984375 
Q 18.5 -0.984375 11.984375 4.234375 
Q 5.46875 9.46875 5.46875 19.234375 
Q 5.46875 25.203125 8.65625 29.765625 
Q 11.859375 34.328125 17.328125 36.671875 
Q 12.59375 38.96875 9.828125 43.15625 
Q 7.078125 47.359375 7.078125 52.59375 
Q 7.078125 61.921875 13.015625 67 
Q 18.953125 72.078125 28.03125 72.078125 
Q 37.15625 72.078125 43.09375 67 
Q 49.03125 61.921875 49.03125 52.59375 
Q 49.03125 47.3125 46.1875 43.140625 
Q 43.359375 38.96875 38.625 36.671875 
Q 44.140625 34.328125 47.40625 29.734375 
Q 50.6875 25.140625 50.6875 19.234375 
z
M 39.984375 52.4375 
Q 39.984375 57.765625 36.65625 61.203125 
Q 33.34375 64.65625 28.015625 64.65625 
Q 22.703125 64.65625 19.421875 61.359375 
Q 16.15625 58.0625 16.15625 52.4375 
Q 16.15625 46.921875 19.421875 43.59375 
Q 22.703125 40.28125 28.078125 40.28125 
Q 33.40625 40.28125 36.6875 43.59375 
Q 39.984375 46.921875 39.984375 52.4375 
z
M 41.609375 19.4375 
Q 41.609375 25.390625 37.8125 29.140625 
Q 34.03125 32.90625 27.984375 32.90625 
Q 21.78125 32.90625 18.140625 29.140625 
Q 14.5 25.390625 14.5 19.4375 
Q 14.5 13.28125 18.140625 9.859375 
Q 21.78125 6.453125 28.078125 6.453125 
Q 34.375 6.453125 37.984375 9.859375 
Q 41.609375 13.28125 41.609375 19.4375 
z
" id="Roboto-Regular-56"/>
       <path d="M 7.03125 4.78125 
Q 7.03125 7.078125 8.46875 8.65625 
Q 9.90625 10.25 12.640625 10.25 
Q 15.375 10.25 16.8125 8.65625 
Q 18.265625 7.078125 18.265625 4.78125 
Q 18.265625 2.546875 16.8125 0.96875 
Q 15.375 -0.59375 12.640625 -0.59375 
Q 9.90625 -0.59375 8.46875 0.96875 
Q 7.03125 2.546875 7.03125 4.78125 
z
" id="Roboto-Regular-46"/>
       <path d="M 51.421875 23.1875 
Q 51.421875 13.09375 45.78125 6.046875 
Q 40.140625 -0.984375 29.34375 -0.984375 
Q 21.6875 -0.984375 16.609375 3.09375 
Q 11.53125 7.171875 9.015625 13.453125 
Q 6.5 19.734375 6.5 26.3125 
L 6.5 30.5625 
Q 6.5 40.578125 9.296875 49.90625 
Q 12.109375 59.234375 19.484375 65.203125 
Q 26.859375 71.1875 40.578125 71.1875 
L 41.359375 71.1875 
L 41.359375 63.53125 
Q 31.890625 63.53125 26.640625 60.203125 
Q 21.390625 56.890625 18.828125 51.59375 
Q 16.265625 46.296875 15.71875 40.234375 
Q 21.390625 46.625 31 46.625 
Q 38.09375 46.625 42.609375 43.203125 
Q 47.125 39.796875 49.265625 34.390625 
Q 51.421875 29 51.421875 23.1875 
z
M 15.578125 26.03125 
Q 15.578125 16.546875 19.796875 11.515625 
Q 24.03125 6.5 29.34375 6.5 
Q 35.59375 6.5 39.03125 11.0625 
Q 42.484375 15.625 42.484375 22.75 
Q 42.484375 29.109375 39.3125 34.125 
Q 36.140625 39.15625 29.546875 39.15625 
Q 24.8125 39.15625 20.953125 36.328125 
Q 17.09375 33.5 15.578125 29.4375 
z
" id="Roboto-Regular-54"/>
       <path d="M 17.328125 33.84375 
L 10.109375 35.6875 
L 13.671875 71.09375 
L 50.140625 71.09375 
L 50.140625 62.75 
L 21.34375 62.75 
L 19.1875 43.40625 
Q 24.5625 46.484375 31.0625 46.484375 
Q 40.875 46.484375 46.5625 40.015625 
Q 52.25 33.546875 52.25 22.65625 
Q 52.25 12.453125 46.671875 5.734375 
Q 41.109375 -0.984375 29.734375 -0.984375 
Q 21.09375 -0.984375 14.796875 3.875 
Q 8.5 8.734375 7.515625 18.703125 
L 16.109375 18.703125 
Q 17.828125 6.453125 29.734375 6.453125 
Q 36.140625 6.453125 39.65625 10.796875 
Q 43.171875 15.140625 43.171875 22.5625 
Q 43.171875 29.25 39.484375 33.8125 
Q 35.796875 38.375 28.953125 38.375 
Q 24.421875 38.375 22.078125 37.15625 
Q 19.734375 35.9375 17.328125 33.84375 
z
" id="Roboto-Regular-53"/>
      </defs>
      <g transform="translate(38.388359 259.616719)scale(0.11 -0.11)">
       <use xlink:href="#Roboto-Regular-50"/>
       <use x="56.201172" xlink:href="#Roboto-Regular-50"/>
       <use x="112.402344" xlink:href="#Roboto-Regular-48"/>
       <use x="168.603516" xlink:href="#Roboto-Regular-55"/>
       <use x="224.804688" xlink:href="#Roboto-Regular-56"/>
       <use x="281.005859" xlink:href="#Roboto-Regular-46"/>
       <use x="307.373047" xlink:href="#Roboto-Regular-54"/>
       <use x="363.574219" xlink:href="#Roboto-Regular-53"/>
      </g>
     </g>
    </g>
    <g id="xtick_2">
     <g id="line2d_2">
      <g>
       <use style="stroke:#000000;" x="157.603984" xlink:href="#m66e41dff92" y="243.866719"/>
      </g>
     </g>
     <g id="text_2">
      <!-- 22078.70 -->
      <g transform="translate(134.515156 259.616719)scale(0.11 -0.11)">
       <use xlink:href="#Roboto-Regular-50"/>
       <use x="56.201172" xlink:href="#Roboto-Regular-50"/>
       <use x="112.402344" xlink:href="#Roboto-Regular-48"/>
       <use x="168.603516" xlink:href="#Roboto-Regular-55"/>
       <use x="224.804688" xlink:href="#Roboto-Regular-56"/>
       <use x="281.005859" xlink:href="#Roboto-Regular-46"/>
       <use x="307.373047" xlink:href="#Roboto-Regular-55"/>
       <use x="363.574219" xlink:href="#Roboto-Regular-48"/>
      </g>
     </g>
    </g>
    <g id="xtick_3">
     <g id="line2d_3">
      <g>
       <use style="stroke:#000000;" x="253.730781" xlink:href="#m66e41dff92" y="243.866719"/>
      </g>
     </g>
     <g id="text_3">
      <!-- 22078.75 -->
      <g transform="translate(230.641953 259.616719)scale(0.11 -0.11)">
       <use xlink:href="#Roboto-Regular-50"/>
       <use x="56.201172" xlink:href="#Roboto-Regular-50"/>
       <use x="112.402344" xlink:href="#Roboto-Regular-48"/>
       <use x="168.603516" xlink:href="#Roboto-Regular-55"/>
       <use x="224.804688" xlink:href="#Roboto-Regular-56"/>
       <use x="281.005859" xlink:href="#Roboto-Regular-46"/>
       <use x="307.373047" xlink:href="#Roboto-Regular-55"/>
       <use x="363.574219" xlink:href="#Roboto-Regular-53"/>
      </g>
     </g>
    </g>
    <g id="xtick_4">
     <g id="line2d_4">
      <g>
       <use style="stroke:#000000;" x="349.857578" xlink:href="#m66e41dff92" y="243.866719"/>
      </g>
     </g>
     <g id="text_4">
      <!-- 22078.80 -->
      <g transform="translate(326.76875 259.616719)scale(0.11 -0.11)">
       <use xlink:href="#Roboto-Regular-50"/>
       <use x="56.201172" xlink:href="#Roboto-Regular-50"/>
       <use x="112.402344" xlink:href="#Roboto-Regular-48"/>
       <use x="168.603516" xlink:href="#Roboto-Regular-55"/>
       <use x="224.804688" xlink:href="#Roboto-Regular-56"/>
       <use x="281.005859" xlink:href="#Roboto-Regular-46"/>
       <use x="307.373047" xlink:href="#Roboto-Regular-56"/>
       <use x="363.574219" xlink:href="#Roboto-Regular-48"/>
      </g>
     </g>
    </g>
    <g id="xtick_5">
     <g id="line2d_5">
      <g>
       <use style="stroke:#000000;" x="445.984375" xlink:href="#m66e41dff92" y="243.866719"/>
      </g>
     </g>
     <g id="text_5">
      <!-- 22078.85 -->
      <g transform="translate(422.895547 259.616719)scale(0.11 -0.11)">
       <use xlink:href="#Roboto-Regular-50"/>
       <use x="56.201172" xlink:href="#Roboto-Regular-50"/>
       <use x="112.402344" xlink:href="#Roboto-Regular-48"/>
       <use x="168.603516" xlink:href="#Roboto-Regular-55"/>
       <use x="224.804688" xlink:href="#Roboto-Regular-56"/>
       <use x="281.005859" xlink:href="#Roboto-Regular-46"/>
       <use x="307.373047" xlink:href="#Roboto-Regular-56"/>
       <use x="363.574219" xlink:href="#Roboto-Regular-53"/>
      </g>
     </g>
    </g>
    <g id="xtick_6">
     <g id="line2d_6">
      <g>
       <use style="stroke:#000000;" x="542.111172" xlink:href="#m66e41dff92" y="243.866719"/>
      </g>
     </g>
     <g id="text_6">
      <!-- 22078.90 -->
      <defs>
       <path d="M 49.609375 40.046875 
Q 49.609375 33.109375 48.40625 26.046875 
Q 47.21875 19 43.765625 13.0625 
Q 40.328125 7.125 33.609375 3.515625 
Q 26.90625 -0.09375 14.890625 -0.09375 
L 14.890625 7.5625 
Q 25.6875 7.5625 30.9375 10.9375 
Q 36.1875 14.3125 38.25 19.75 
Q 40.328125 25.203125 40.578125 31.34375 
Q 37.75 27.984375 33.78125 25.875 
Q 29.828125 23.78125 25.203125 23.78125 
Q 18.171875 23.78125 13.671875 27.296875 
Q 9.1875 30.8125 7.03125 36.25 
Q 4.890625 41.703125 4.890625 47.515625 
Q 4.890625 57.671875 10.46875 64.875 
Q 16.0625 72.078125 26.953125 72.078125 
Q 35.0625 72.078125 40.0625 67.875 
Q 45.0625 63.671875 47.328125 57.078125 
Q 49.609375 50.484375 49.609375 43.3125 
z
M 13.765625 48 
Q 13.765625 41.65625 16.96875 36.46875 
Q 20.171875 31.296875 26.65625 31.296875 
Q 31.296875 31.296875 35.078125 34.078125 
Q 38.875 36.859375 40.625 40.96875 
L 40.625 44.53125 
Q 40.625 54.25 36.5 59.421875 
Q 32.375 64.59375 26.953125 64.59375 
Q 20.65625 64.59375 17.203125 59.828125 
Q 13.765625 55.078125 13.765625 48 
z
" id="Roboto-Regular-57"/>
      </defs>
      <g transform="translate(519.022344 259.616719)scale(0.11 -0.11)">
       <use xlink:href="#Roboto-Regular-50"/>
       <use x="56.201172" xlink:href="#Roboto-Regular-50"/>
       <use x="112.402344" xlink:href="#Roboto-Regular-48"/>
       <use x="168.603516" xlink:href="#Roboto-Regular-55"/>
       <use x="224.804688" xlink:href="#Roboto-Regular-56"/>
       <use x="281.005859" xlink:href="#Roboto-Regular-46"/>
       <use x="307.373047" xlink:href="#Roboto-Regular-57"/>
       <use x="363.574219" xlink:href="#Roboto-Regular-48"/>
      </g>
     </g>
    </g>
    <g id="text_7">
     <!-- Frequency (MHz) -->
     <defs>
      <path d="M 8.25 0 
L 8.25 71.09375 
L 52.296875 71.09375 
L 52.296875 63.375 
L 17.671875 63.375 
L 17.671875 39.109375 
L 47.46875 39.109375 
L 47.46875 31.390625 
L 17.671875 31.390625 
L 17.671875 0 
z
" id="Roboto-Regular-70"/>
      <path d="M 27.984375 45.125 
Q 19.140625 45.125 15.921875 37.5 
L 15.921875 0 
L 6.890625 0 
L 6.890625 52.828125 
L 15.671875 52.828125 
L 15.875 46.78125 
Q 20.21875 53.8125 28.421875 53.8125 
Q 30.953125 53.8125 32.421875 53.125 
L 32.375 44.734375 
Q 30.375 45.125 27.984375 45.125 
z
" id="Roboto-Regular-114"/>
      <path d="M 48.6875 9.234375 
Q 46.09375 5.328125 41.359375 2.171875 
Q 36.625 -0.984375 28.8125 -0.984375 
Q 17.78125 -0.984375 11.15625 6.1875 
Q 4.546875 13.375 4.546875 24.5625 
L 4.546875 26.609375 
Q 4.546875 35.25 7.84375 41.328125 
Q 11.140625 47.40625 16.40625 50.609375 
Q 21.6875 53.8125 27.640625 53.8125 
Q 38.96875 53.8125 44.15625 46.40625 
Q 49.359375 39.015625 49.359375 27.9375 
L 49.359375 23.875 
L 13.625 23.875 
Q 13.8125 16.609375 17.9375 11.5 
Q 22.078125 6.390625 29.296875 6.390625 
Q 34.078125 6.390625 37.390625 8.34375 
Q 40.71875 10.296875 43.21875 13.578125 
z
M 27.640625 46.390625 
Q 22.265625 46.390625 18.546875 42.484375 
Q 14.84375 38.578125 13.921875 31.25 
L 40.328125 31.25 
L 40.328125 31.9375 
Q 39.984375 37.203125 37.28125 41.796875 
Q 34.578125 46.390625 27.640625 46.390625 
z
" id="Roboto-Regular-101"/>
      <path d="M 49.21875 52.828125 
L 49.21875 -20.3125 
L 40.140625 -20.3125 
L 40.140625 4.890625 
Q 34.71875 -0.984375 25.59375 -0.984375 
Q 15.828125 -0.984375 10.234375 6.640625 
Q 4.640625 14.265625 4.640625 25.828125 
L 4.640625 26.859375 
Q 4.640625 38.96875 10.203125 46.390625 
Q 15.765625 53.8125 25.6875 53.8125 
Q 35.0625 53.8125 40.53125 47.515625 
L 40.921875 52.828125 
z
M 13.71875 25.828125 
Q 13.71875 17.96875 17.109375 12.203125 
Q 20.515625 6.453125 27.828125 6.453125 
Q 35.890625 6.453125 40.140625 13.53125 
L 40.140625 39.453125 
Q 35.890625 46.390625 27.9375 46.390625 
Q 20.515625 46.390625 17.109375 40.546875 
Q 13.71875 34.71875 13.71875 26.8125 
z
" id="Roboto-Regular-113"/>
      <path d="M 39.65625 0 
L 39.453125 5.21875 
Q 34.28125 -0.984375 24.03125 -0.984375 
Q 16.265625 -0.984375 11.46875 3.609375 
Q 6.6875 8.203125 6.6875 18.75 
L 6.6875 52.828125 
L 15.71875 52.828125 
L 15.71875 18.65625 
Q 15.71875 11.53125 18.71875 9.109375 
Q 21.734375 6.6875 25.4375 6.6875 
Q 35.640625 6.6875 39.203125 14.359375 
L 39.203125 52.828125 
L 48.296875 52.828125 
L 48.296875 0 
z
" id="Roboto-Regular-117"/>
      <path d="M 28.8125 46.1875 
Q 24.46875 46.1875 21.140625 43.84375 
Q 17.828125 41.5 15.921875 37.75 
L 15.921875 0 
L 6.890625 0 
L 6.890625 52.828125 
L 15.4375 52.828125 
L 15.71875 46.234375 
Q 21.734375 53.8125 31.5 53.8125 
Q 39.265625 53.8125 43.828125 49.46875 
Q 48.390625 45.125 48.4375 34.859375 
L 48.4375 0 
L 39.359375 0 
L 39.359375 34.71875 
Q 39.359375 40.921875 36.640625 43.546875 
Q 33.9375 46.1875 28.8125 46.1875 
z
" id="Roboto-Regular-110"/>
      <path d="M 28.03125 6.453125 
Q 32.859375 6.453125 36.5 9.328125 
Q 40.140625 12.203125 40.484375 16.703125 
L 49.078125 16.703125 
Q 48.734375 9.625 42.578125 4.3125 
Q 36.421875 -0.984375 28.03125 -0.984375 
Q 16.109375 -0.984375 10.328125 6.875 
Q 4.546875 14.75 4.546875 25.390625 
L 4.546875 27.4375 
Q 4.546875 38.09375 10.328125 45.953125 
Q 16.109375 53.8125 28.03125 53.8125 
Q 37.3125 53.8125 43.015625 48.3125 
Q 48.734375 42.828125 49.078125 34.671875 
L 40.484375 34.671875 
Q 40.140625 39.546875 36.796875 42.96875 
Q 33.453125 46.390625 28.03125 46.390625 
Q 22.46875 46.390625 19.3125 43.546875 
Q 16.15625 40.71875 14.859375 36.375 
Q 13.578125 32.03125 13.578125 27.4375 
L 13.578125 25.390625 
Q 13.578125 20.75 14.84375 16.40625 
Q 16.109375 12.0625 19.25 9.25 
Q 22.40625 6.453125 28.03125 6.453125 
z
" id="Roboto-Regular-99"/>
      <path d="M 24.90625 -8.15625 
Q 20.21875 -20.5625 10.75 -21.296875 
L 9.234375 -21.34375 
Q 6.34375 -21.34375 4.15625 -20.5625 
L 4.109375 -13.234375 
L 6.546875 -13.421875 
Q 11.140625 -13.421875 13.71875 -11.546875 
Q 16.3125 -9.671875 17.96875 -4.78125 
L 19.921875 0.59375 
L 1.078125 52.828125 
L 10.9375 52.828125 
L 24.171875 13.28125 
L 36.421875 52.828125 
L 46.09375 52.828125 
z
" id="Roboto-Regular-121"/>
      <path id="Roboto-Regular-32"/>
      <path d="M 6.546875 28.90625 
Q 6.546875 43.0625 10.59375 53.65625 
Q 14.65625 64.265625 20.21875 70.953125 
Q 25.78125 77.640625 30.421875 80.21875 
L 32.328125 74.265625 
Q 26.5625 69.921875 21.0625 58.765625 
Q 15.578125 47.609375 15.578125 28.328125 
Q 15.578125 9.765625 21.0625 -1.515625 
Q 26.5625 -12.796875 32.328125 -17.484375 
L 30.421875 -22.953125 
Q 25.78125 -20.40625 20.21875 -13.71875 
Q 14.65625 -7.03125 10.59375 3.53125 
Q 6.546875 14.109375 6.546875 28.90625 
z
" id="Roboto-Regular-40"/>
      <path d="M 43.65625 13.140625 
L 66.890625 71.09375 
L 79 71.09375 
L 79 0 
L 69.625 0 
L 69.625 27.734375 
L 70.5625 57.46875 
L 47.171875 0 
L 40.046875 0 
L 16.703125 57.5625 
L 17.625 27.734375 
L 17.625 0 
L 8.25 0 
L 8.25 71.09375 
L 20.359375 71.09375 
z
" id="Roboto-Regular-77"/>
      <path d="M 53.515625 0 
L 53.515625 32.859375 
L 17.671875 32.859375 
L 17.671875 0 
L 8.25 0 
L 8.25 71.09375 
L 17.671875 71.09375 
L 17.671875 40.53125 
L 53.515625 40.53125 
L 53.515625 71.09375 
L 62.890625 71.09375 
L 62.890625 0 
z
" id="Roboto-Regular-72"/>
      <path d="M 4.734375 45.359375 
L 4.734375 52.828125 
L 44.828125 52.828125 
L 44.828125 46.4375 
L 15.4375 7.421875 
L 46.234375 7.421875 
L 46.234375 0 
L 4.34375 0 
L 4.34375 6.640625 
L 33.453125 45.359375 
z
" id="Roboto-Regular-122"/>
      <path d="M 27.6875 28.421875 
Q 27.6875 14.15625 23.625 3.5625 
Q 19.578125 -7.03125 13.984375 -13.71875 
Q 8.40625 -20.40625 3.8125 -22.953125 
L 1.90625 -17.484375 
Q 7.625 -13.140625 13.140625 -1.703125 
Q 18.65625 9.71875 18.65625 29 
Q 18.65625 41.359375 15.921875 50.5625 
Q 13.1875 59.765625 9.28125 65.8125 
Q 5.375 71.875 1.90625 74.703125 
L 3.8125 80.21875 
Q 8.40625 77.640625 13.984375 70.953125 
Q 19.578125 64.265625 23.625 53.6875 
Q 27.6875 43.109375 27.6875 28.421875 
z
" id="Roboto-Regular-41"/>
     </defs>
     <g transform="translate(259.763008 274.675156)scale(0.11 -0.11)">
      <use xlink:href="#Roboto-Regular-70"/>
      <use x="55.273438" xlink:href="#Roboto-Regular-114"/>
      <use x="89.160156" xlink:href="#Roboto-Regular-101"/>
      <use x="142.1875" xlink:href="#Roboto-Regular-113"/>
      <use x="199.023438" xlink:href="#Roboto-Regular-117"/>
      <use x="254.150391" xlink:href="#Roboto-Regular-101"/>
      <use x="307.177734" xlink:href="#Roboto-Regular-110"/>
      <use x="362.402344" xlink:href="#Roboto-Regular-99"/>
      <use x="414.746094" xlink:href="#Roboto-Regular-121"/>
      <use x="462.060547" xlink:href="#Roboto-Regular-32"/>
      <use x="486.865234" xlink:href="#Roboto-Regular-40"/>
      <use x="521.09375" xlink:href="#Roboto-Regular-77"/>
      <use x="608.398438" xlink:href="#Roboto-Regular-72"/>
      <use x="679.736328" xlink:href="#Roboto-Regular-122"/>
      <use x="729.345703" xlink:href="#Roboto-Regular-41"/>
     </g>
    </g>
   </g>
   <g id="matplotlib.axis_2">
    <g id="ytick_1">
     <g id="line2d_7">
      <defs>
       <path d="M 0 0 
L -4 0 
" id="mfc4f36d913" style="stroke:#000000;"/>
      </defs>
      <g>
       <use style="stroke:#000000;" x="61.477188" xlink:href="#mfc4f36d913" y="243.866719"/>
      </g>
     </g>
     <g id="text_8">
      <!-- −0.10 -->
      <defs>
       <path d="M 48.96875 39.203125 
L 48.96875 31.78125 
L 8.203125 31.78125 
L 8.203125 39.203125 
z
" id="Roboto-Regular-8722"/>
       <path d="M 35.59375 71.484375 
L 35.59375 0 
L 26.5625 0 
L 26.5625 60.203125 
L 8.34375 53.5625 
L 8.34375 61.71875 
L 34.1875 71.484375 
z
" id="Roboto-Regular-49"/>
      </defs>
      <g transform="translate(26.24 247.991719)scale(0.11 -0.11)">
       <use xlink:href="#Roboto-Regular-8722"/>
       <use x="57.177734" xlink:href="#Roboto-Regular-48"/>
       <use x="113.378906" xlink:href="#Roboto-Regular-46"/>
       <use x="139.746094" xlink:href="#Roboto-Regular-49"/>
       <use x="195.947266" xlink:href="#Roboto-Regular-48"/>
      </g>
     </g>
    </g>
    <g id="ytick_2">
     <g id="line2d_8">
      <g>
       <use style="stroke:#000000;" x="61.477188" xlink:href="#mfc4f36d913" y="216.514629"/>
      </g>
     </g>
     <g id="text_9">
      <!-- −0.05 -->
      <g transform="translate(26.24 220.639629)scale(0.11 -0.11)">
       <use xlink:href="#Roboto-Regular-8722"/>
       <use x="57.177734" xlink:href="#Roboto-Regular-48"/>
       <use x="113.378906" xlink:href="#Roboto-Regular-46"/>
       <use x="139.746094" xlink:href="#Roboto-Regular-48"/>
       <use x="195.947266" xlink:href="#Roboto-Regular-53"/>
      </g>
     </g>
    </g>
    <g id="ytick_3">
     <g id="line2d_9">
      <g>
       <use style="stroke:#000000;" x="61.477188" xlink:href="#mfc4f36d913" y="189.162539"/>
      </g>
     </g>
     <g id="text_10">
      <!-- 0.00 -->
      <g transform="translate(32.528906 193.287539)scale(0.11 -0.11)">
       <use xlink:href="#Roboto-Regular-48"/>
       <use x="56.201172" xlink:href="#Roboto-Regular-46"/>
       <use x="82.568359" xlink:href="#Roboto-Regular-48"/>
       <use x="138.769531" xlink:href="#Roboto-Regular-48"/>
      </g>
     </g>
    </g>
    <g id="ytick_4">
     <g id="line2d_10">
      <g>
       <use style="stroke:#000000;" x="61.477188" xlink:href="#mfc4f36d913" y="161.810449"/>
      </g>
     </g>
     <g id="text_11">
      <!-- 0.05 -->
      <g transform="translate(32.528906 165.935449)scale(0.11 -0.11)">
       <use xlink:href="#Roboto-Regular-48"/>
       <use x="56.201172" xlink:href="#Roboto-Regular-46"/>
       <use x="82.568359" xlink:href="#Roboto-Regular-48"/>
       <use x="138.769531" xlink:href="#Roboto-Regular-53"/>
      </g>
     </g>
    </g>
    <g id="ytick_5">
     <g id="line2d_11">
      <g>
       <use style="stroke:#000000;" x="61.477188" xlink:href="#mfc4f36d913" y="134.458359"/>
      </g>
     </g>
     <g id="text_12">
      <!-- 0.10 -->
      <g transform="translate(32.528906 138.583359)scale(0.11 -0.11)">
       <use xlink:href="#Roboto-Regular-48"/>
       <use x="56.201172" xlink:href="#Roboto-Regular-46"/>
       <use x="82.568359" xlink:href="#Roboto-Regular-49"/>
       <use x="138.769531" xlink:href="#Roboto-Regular-48"/>
      </g>
     </g>
    </g>
    <g id="ytick_6">
     <g id="line2d_12">
      <g>
       <use style="stroke:#000000;" x="61.477188" xlink:href="#mfc4f36d913" y="107.10627"/>
      </g>
     </g>
     <g id="text_13">
      <!-- 0.15 -->
      <g transform="translate(32.528906 111.23127)scale(0.11 -0.11)">
       <use xlink:href="#Roboto-Regular-48"/>
       <use x="56.201172" xlink:href="#Roboto-Regular-46"/>
       <use x="82.568359" xlink:href="#Roboto-Regular-49"/>
       <use x="138.769531" xlink:href="#Roboto-Regular-53"/>
      </g>
     </g>
    </g>
    <g id="ytick_7">
     <g id="line2d_13">
      <g>
       <use style="stroke:#000000;" x="61.477188" xlink:href="#mfc4f36d913" y="79.75418"/>
      </g>
     </g>
     <g id="text_14">
      <!-- 0.20 -->
      <g transform="translate(32.528906 83.87918)scale(0.11 -0.11)">
       <use xlink:href="#Roboto-Regular-48"/>
       <use x="56.201172" xlink:href="#Roboto-Regular-46"/>
       <use x="82.568359" xlink:href="#Roboto-Regular-50"/>
       <use x="138.769531" xlink:href="#Roboto-Regular-48"/>
      </g>
     </g>
    </g>
    <g id="ytick_8">
     <g id="line2d_14">
      <g>
       <use style="stroke:#000000;" x="61.477188" xlink:href="#mfc4f36d913" y="52.40209"/>
      </g>
     </g>
     <g id="text_15">
      <!-- 0.25 -->
      <g transform="translate(32.528906 56.52709)scale(0.11 -0.11)">
       <use xlink:href="#Roboto-Regular-48"/>
       <use x="56.201172" xlink:href="#Roboto-Regular-46"/>
       <use x="82.568359" xlink:href="#Roboto-Regular-50"/>
       <use x="138.769531" xlink:href="#Roboto-Regular-53"/>
      </g>
     </g>
    </g>
    <g id="ytick_9">
     <g id="line2d_15">
      <g>
       <use style="stroke:#000000;" x="61.477188" xlink:href="#mfc4f36d913" y="25.05"/>
      </g>
     </g>
     <g id="text_16">
      <!-- 0.30 -->
      <defs>
       <path d="M 19.09375 32.5625 
L 19.09375 39.984375 
L 25.734375 39.984375 
Q 32.71875 40.046875 36.125 43.5 
Q 39.546875 46.96875 39.546875 52.15625 
Q 39.546875 64.65625 27.15625 64.65625 
Q 21.390625 64.65625 17.828125 61.359375 
Q 14.265625 58.0625 14.265625 52.484375 
L 5.21875 52.484375 
Q 5.21875 60.640625 11.25 66.359375 
Q 17.28125 72.078125 27.15625 72.078125 
Q 36.765625 72.078125 42.703125 66.96875 
Q 48.640625 61.859375 48.640625 51.953125 
Q 48.640625 48 45.96875 43.5 
Q 43.3125 39.015625 37.453125 36.53125 
Q 44.53125 34.234375 47.109375 29.4375 
Q 49.703125 24.65625 49.703125 19.828125 
Q 49.703125 9.859375 43.25 4.4375 
Q 36.8125 -0.984375 27.203125 -0.984375 
Q 17.921875 -0.984375 11.28125 4.171875 
Q 4.640625 9.328125 4.640625 18.796875 
L 13.671875 18.796875 
Q 13.671875 13.1875 17.3125 9.8125 
Q 20.953125 6.453125 27.203125 6.453125 
Q 33.40625 6.453125 37.015625 9.71875 
Q 40.625 12.984375 40.625 19.625 
Q 40.625 26.265625 36.515625 29.40625 
Q 32.421875 32.5625 25.53125 32.5625 
z
" id="Roboto-Regular-51"/>
      </defs>
      <g transform="translate(32.528906 29.175)scale(0.11 -0.11)">
       <use xlink:href="#Roboto-Regular-48"/>
       <use x="56.201172" xlink:href="#Roboto-Regular-46"/>
       <use x="82.568359" xlink:href="#Roboto-Regular-51"/>
       <use x="138.769531" xlink:href="#Roboto-Regular-48"/>
      </g>
     </g>
    </g>
    <g id="text_17">
     <!-- $T_a$ (K) -->
     <defs>
      <path d="M 5.90625 72.90625 
L 67.578125 72.90625 
L 66.015625 64.59375 
L 39.984375 64.59375 
L 27.484375 0 
L 17.578125 0 
L 30.078125 64.59375 
L 4.296875 64.59375 
z
" id="DejaVuSans-Oblique-84"/>
      <path d="M 53.71875 31.203125 
L 47.609375 0 
L 38.625 0 
L 40.28125 8.296875 
Q 36.328125 3.421875 31.265625 1 
Q 26.21875 -1.421875 20.015625 -1.421875 
Q 13.03125 -1.421875 8.5625 2.84375 
Q 4.109375 7.125 4.109375 13.8125 
Q 4.109375 23.390625 11.75 28.953125 
Q 19.390625 34.515625 32.8125 34.515625 
L 45.3125 34.515625 
L 45.796875 36.921875 
Q 45.90625 37.3125 45.953125 37.765625 
Q 46 38.234375 46 39.203125 
Q 46 43.5625 42.453125 45.96875 
Q 38.921875 48.390625 32.515625 48.390625 
Q 28.125 48.390625 23.5 47.265625 
Q 18.890625 46.140625 14.015625 43.890625 
L 15.578125 52.203125 
Q 20.65625 54.109375 25.515625 55.046875 
Q 30.375 56 34.90625 56 
Q 44.578125 56 49.625 51.796875 
Q 54.6875 47.609375 54.6875 39.59375 
Q 54.6875 37.984375 54.4375 35.8125 
Q 54.203125 33.640625 53.71875 31.203125 
z
M 44 27.484375 
L 35.015625 27.484375 
Q 23.96875 27.484375 18.671875 24.53125 
Q 13.375 21.578125 13.375 15.375 
Q 13.375 11.078125 16.078125 8.640625 
Q 18.796875 6.203125 23.578125 6.203125 
Q 30.90625 6.203125 36.375 11.453125 
Q 41.84375 16.703125 43.609375 25.484375 
z
" id="DejaVuSans-Oblique-97"/>
      <path d="M 51.515625 0 
L 26.375 33.109375 
L 17.671875 24.078125 
L 17.671875 0 
L 8.25 0 
L 8.25 71.09375 
L 17.671875 71.09375 
L 17.671875 36.03125 
L 49.265625 71.09375 
L 60.59375 71.09375 
L 32.671875 39.703125 
L 62.75 0 
z
" id="Roboto-Regular-75"/>
     </defs>
     <g transform="translate(19.71 148.978359)rotate(-90)scale(0.11 -0.11)">
      <use transform="translate(0 0.78125)" xlink:href="#DejaVuSans-Oblique-84"/>
      <use transform="translate(61.083984 -15.625)scale(0.7)" xlink:href="#DejaVuSans-Oblique-97"/>
      <use transform="translate(106.713867 0.78125)" xlink:href="#Roboto-Regular-32"/>
      <use transform="translate(131.518555 0.78125)" xlink:href="#Roboto-Regular-40"/>
      <use transform="translate(165.74707 0.78125)" xlink:href="#Roboto-Regular-75"/>
      <use transform="translate(228.491211 0.78125)" xlink:href="#Roboto-Regular-41"/>
     </g>
    </g>
   </g>
   <g id="line2d_16">
    <path clip-path="url(#pc80dfef0e4)" d="M 60.582271 198.074815 
L 60.582271 193.00771 
L 63.273821 193.00771 
L 63.273821 207.2053 
L 65.965371 207.2053 
L 65.965371 191.689969 
L 68.656922 191.689969 
L 68.656922 182.074412 
L 71.348472 182.074412 
L 71.348472 175.264097 
L 74.040022 175.264097 
L 74.040022 156.602992 
L 76.731573 156.602992 
L 76.731573 176.704544 
L 79.423123 176.704544 
L 79.423123 190.700345 
L 82.114673 190.700345 
L 82.114673 185.715745 
L 84.806224 185.715745 
L 84.806224 186.428986 
L 87.497774 186.428986 
L 87.497774 186.22973 
L 90.189324 186.22973 
L 90.189324 172.577836 
L 92.880875 172.577836 
L 92.880875 173.712498 
L 95.572425 173.712498 
L 95.572425 185.124327 
L 98.263975 185.124327 
L 98.263975 183.727922 
L 100.955525 183.727922 
L 100.955525 197.29893 
L 103.647076 197.29893 
L 103.647076 211.508826 
L 106.338626 211.508826 
L 106.338626 210.193324 
L 109.030176 210.193324 
L 109.030176 199.441639 
L 111.721727 199.441639 
L 111.721727 193.55821 
L 114.413277 193.55821 
L 114.413277 182.844046 
L 117.104827 182.844046 
L 117.104827 180.953305 
L 119.796378 180.953305 
L 119.796378 193.236963 
L 122.487928 193.236963 
L 122.487928 197.869541 
L 125.179478 197.869541 
L 125.179478 193.954342 
L 127.871029 193.954342 
L 127.871029 186.573639 
L 130.562579 186.573639 
L 130.562579 185.38113 
L 133.254129 185.38113 
L 133.254129 183.691885 
L 135.94568 183.691885 
L 135.94568 177.22237 
L 138.63723 177.22237 
L 138.63723 180.385999 
L 141.32878 180.385999 
L 141.32878 191.270396 
L 144.02033 191.270396 
L 144.02033 196.778847 
L 146.711881 196.778847 
L 146.711881 190.222952 
L 149.403431 190.222952 
L 149.403431 180.32531 
L 152.094981 180.32531 
L 152.094981 180.180303 
L 154.786532 180.180303 
L 154.786532 179.045001 
L 157.478082 179.045001 
L 157.478082 177.390455 
L 160.169632 177.390455 
L 160.169632 181.761024 
L 162.861183 181.761024 
L 162.861183 181.091736 
L 165.552733 181.091736 
L 165.552733 179.429686 
L 168.244283 179.429686 
L 168.244283 183.51295 
L 170.935834 183.51295 
L 170.935834 184.899835 
L 173.627384 184.899835 
L 173.627384 199.439319 
L 176.318934 199.439319 
L 176.318934 210.310077 
L 179.010485 210.310077 
L 179.010485 206.195522 
L 181.702035 206.195522 
L 181.702035 191.855707 
L 184.393585 191.855707 
L 184.393585 181.131821 
L 187.085136 181.131821 
L 187.085136 186.779719 
L 189.776686 186.779719 
L 189.776686 190.563792 
L 192.468236 190.563792 
L 192.468236 196.538756 
L 195.159786 196.538756 
L 195.159786 197.112373 
L 197.851337 197.112373 
L 197.851337 190.274206 
L 200.542887 190.274206 
L 200.542887 185.83684 
L 203.234437 185.83684 
L 203.234437 186.798522 
L 205.925988 186.798522 
L 205.925988 174.230592 
L 208.617538 174.230592 
L 208.617538 185.201993 
L 211.309088 185.201993 
L 211.309088 206.680689 
L 214.000639 206.680689 
L 214.000639 210.257855 
L 216.692189 210.257855 
L 216.692189 196.764393 
L 219.383739 196.764393 
L 219.383739 190.539662 
L 222.07529 190.539662 
L 222.07529 186.641974 
L 224.76684 186.641974 
L 224.76684 171.075947 
L 227.45839 171.075947 
L 227.45839 175.605123 
L 230.149941 175.605123 
L 230.149941 183.515796 
L 232.841491 183.515796 
L 232.841491 173.624682 
L 235.533041 173.624682 
L 235.533041 174.604247 
L 238.224592 174.604247 
L 238.224592 186.811491 
L 240.916142 186.811491 
L 240.916142 189.594282 
L 243.607692 189.594282 
L 243.607692 193.214065 
L 246.299242 193.214065 
L 246.299242 191.991086 
L 248.990793 191.991086 
L 248.990793 190.228349 
L 251.682343 190.228349 
L 251.682343 196.083727 
L 254.373893 196.083727 
L 254.373893 192.165773 
L 257.065444 192.165773 
L 257.065444 167.567097 
L 259.756994 167.567097 
L 259.756994 140.390787 
L 262.448544 140.390787 
L 262.448544 132.930853 
L 265.140095 132.930853 
L 265.140095 130.596688 
L 267.831645 130.596688 
L 267.831645 121.884876 
L 270.523195 121.884876 
L 270.523195 129.423521 
L 273.214746 129.423521 
L 273.214746 149.358025 
L 275.906296 149.358025 
L 275.906296 148.14644 
L 278.597846 148.14644 
L 278.597846 128.288974 
L 281.289397 128.288974 
L 281.289397 126.248957 
L 283.980947 126.248957 
L 283.980947 132.944487 
L 286.672497 132.944487 
L 286.672497 112.893926 
L 289.364047 112.893926 
L 289.364047 89.486602 
L 292.055598 89.486602 
L 292.055598 87.490501 
L 294.747148 87.490501 
L 294.747148 80.320363 
L 297.438698 80.320363 
L 297.438698 55.357946 
L 300.130249 55.357946 
L 300.130249 49.049559 
L 302.821799 49.049559 
L 302.821799 40.715023 
L 305.513349 40.715023 
L 305.513349 32.68479 
L 308.2049 32.68479 
L 308.2049 61.398041 
L 310.89645 61.398041 
L 310.89645 97.772838 
L 313.588 97.772838 
L 313.588 132.870353 
L 316.279551 132.870353 
L 316.279551 158.893993 
L 318.971101 158.893993 
L 318.971101 151.864263 
L 321.662651 151.864263 
L 321.662651 138.907574 
L 324.354202 138.907574 
L 324.354202 129.907109 
L 327.045752 129.907109 
L 327.045752 135.192689 
L 329.737302 135.192689 
L 329.737302 142.638886 
L 335.120403 142.593984 
L 335.120403 173.849274 
L 337.811953 173.849274 
L 337.811953 190.076946 
L 340.503503 190.076946 
L 340.503503 179.95009 
L 343.195054 179.95009 
L 343.195054 177.268234 
L 345.886604 177.268234 
L 345.886604 181.80405 
L 348.578154 181.80405 
L 348.578154 184.029949 
L 351.269705 184.029949 
L 351.269705 182.634765 
L 353.961255 182.634765 
L 353.961255 181.10754 
L 356.652805 181.10754 
L 356.652805 174.1244 
L 359.344356 174.1244 
L 359.344356 183.692099 
L 362.035906 183.692099 
L 362.035906 180.488063 
L 364.727456 180.488063 
L 364.727456 167.299551 
L 367.419007 167.299551 
L 367.419007 176.236671 
L 370.110557 176.236671 
L 370.110557 180.120861 
L 372.802107 180.120861 
L 372.802107 188.299264 
L 375.493658 188.299264 
L 375.493658 198.776491 
L 378.185208 198.776491 
L 378.185208 202.866201 
L 380.876758 202.866201 
L 380.876758 200.507991 
L 383.568308 200.507991 
L 383.568308 188.691602 
L 386.259859 188.691602 
L 386.259859 181.947478 
L 388.951409 181.947478 
L 388.951409 185.803945 
L 391.642959 185.803945 
L 391.642959 193.726512 
L 394.33451 193.726512 
L 394.33451 199.607784 
L 397.02606 199.607784 
L 397.02606 191.854187 
L 399.71761 191.854187 
L 399.71761 185.070422 
L 402.409161 185.070422 
L 402.409161 189.406809 
L 405.100711 189.406809 
L 405.100711 181.873759 
L 407.792261 181.873759 
L 407.792261 173.186005 
L 410.483812 173.186005 
L 410.483812 180.522005 
L 413.175362 180.522005 
L 413.175362 189.464344 
L 415.866912 189.464344 
L 415.866912 192.545382 
L 418.558463 192.545382 
L 418.558463 188.466632 
L 423.941563 188.452197 
L 423.941563 193.233102 
L 426.633114 193.233102 
L 426.633114 194.148784 
L 429.324664 194.148784 
L 429.324664 196.261174 
L 432.016214 196.261174 
L 432.016214 197.127239 
L 434.707764 197.127239 
L 434.707764 182.214815 
L 437.399315 182.214815 
L 437.399315 176.219261 
L 440.090865 176.219261 
L 440.090865 177.667803 
L 442.782415 177.667803 
L 442.782415 180.201551 
L 448.165516 180.174802 
L 448.165516 173.904821 
L 450.857066 173.904821 
L 450.857066 201.456791 
L 453.548617 201.456791 
L 453.548617 203.963617 
L 456.240167 203.963617 
L 456.240167 191.970438 
L 458.931717 191.970438 
L 458.931717 194.95856 
L 461.623268 194.95856 
L 461.623268 195.974109 
L 464.314818 195.974109 
L 464.314818 202.716685 
L 467.006368 202.716685 
L 467.006368 203.111675 
L 469.697919 203.111675 
L 469.697919 200.930671 
L 472.389469 200.930671 
L 472.389469 185.437785 
L 475.081019 185.437785 
L 475.081019 182.871894 
L 477.772569 182.871894 
L 477.772569 191.592743 
L 480.46412 191.592743 
L 480.46412 194.754849 
L 483.15567 194.754849 
L 483.15567 189.57171 
L 485.84722 189.57171 
L 485.84722 189.717053 
L 488.538771 189.717053 
L 488.538771 181.587377 
L 491.230321 181.587377 
L 491.230321 181.071692 
L 493.921871 181.071692 
L 493.921871 196.266824 
L 496.613422 196.266824 
L 496.613422 191.325576 
L 499.304972 191.325576 
L 499.304972 189.644185 
L 501.996522 189.644185 
L 501.996522 195.168951 
L 504.688073 195.168951 
L 504.688073 194.668922 
L 507.379623 194.668922 
L 507.379623 188.579204 
L 510.071173 188.579204 
L 510.071173 177.508858 
L 512.762724 177.508858 
L 512.762724 175.295202 
L 515.454274 175.295202 
L 515.454274 184.034661 
L 518.145824 184.034661 
L 518.145824 188.867098 
L 520.837375 188.867098 
L 520.837375 190.076975 
L 523.528925 190.076975 
L 523.528925 193.356601 
L 526.220475 193.356601 
L 526.220475 187.899658 
L 528.912025 187.899658 
L 528.912025 172.497132 
L 531.603576 172.497132 
L 531.603576 175.290846 
L 534.295126 175.290846 
L 534.295126 189.176789 
L 536.986676 189.176789 
L 536.986676 183.102721 
L 539.678227 183.102721 
L 539.678227 179.98631 
L 542.369777 179.98631 
L 542.369777 179.98631 
" style="fill:none;stroke:#ff0000;stroke-linecap:square;stroke-opacity:0.7;stroke-width:2;"/>
   </g>
   <g id="patch_3">
    <path d="M 61.477188 243.866719 
L 61.477188 25.05 
" style="fill:none;stroke:#000000;stroke-linecap:square;stroke-linejoin:miter;"/>
   </g>
   <g id="patch_4">
    <path d="M 61.477187 243.866719 
L 542.111172 243.866719 
" style="fill:none;stroke:#000000;stroke-linecap:square;stroke-linejoin:miter;"/>
   </g>
   <g id="text_18">
    <!-- $J = 39 - 38$ -->
    <defs>
     <path d="M 16.703125 72.90625 
L 26.609375 72.90625 
L 13.375 5.078125 
Q 10.796875 -8.15625 4.65625 -14.078125 
Q -1.46875 -20.015625 -12.5 -20.015625 
L -16.40625 -20.015625 
L -14.796875 -11.71875 
L -11.71875 -11.71875 
Q -5.125 -11.71875 -1.703125 -7.953125 
Q 1.703125 -4.203125 3.515625 5.078125 
z
" id="DejaVuSans-Oblique-74"/>
     <path d="M 10.59375 45.40625 
L 73.1875 45.40625 
L 73.1875 37.203125 
L 10.59375 37.203125 
z
M 10.59375 25.484375 
L 73.1875 25.484375 
L 73.1875 17.1875 
L 10.59375 17.1875 
z
" id="DejaVuSans-61"/>
     <path d="M 40.578125 39.3125 
Q 47.65625 37.796875 51.625 33 
Q 55.609375 28.21875 55.609375 21.1875 
Q 55.609375 10.40625 48.1875 4.484375 
Q 40.765625 -1.421875 27.09375 -1.421875 
Q 22.515625 -1.421875 17.65625 -0.515625 
Q 12.796875 0.390625 7.625 2.203125 
L 7.625 11.71875 
Q 11.71875 9.328125 16.59375 8.109375 
Q 21.484375 6.890625 26.8125 6.890625 
Q 36.078125 6.890625 40.9375 10.546875 
Q 45.796875 14.203125 45.796875 21.1875 
Q 45.796875 27.640625 41.28125 31.265625 
Q 36.765625 34.90625 28.71875 34.90625 
L 20.21875 34.90625 
L 20.21875 43.015625 
L 29.109375 43.015625 
Q 36.375 43.015625 40.234375 45.921875 
Q 44.09375 48.828125 44.09375 54.296875 
Q 44.09375 59.90625 40.109375 62.90625 
Q 36.140625 65.921875 28.71875 65.921875 
Q 24.65625 65.921875 20.015625 65.03125 
Q 15.375 64.15625 9.8125 62.3125 
L 9.8125 71.09375 
Q 15.4375 72.65625 20.34375 73.4375 
Q 25.25 74.21875 29.59375 74.21875 
Q 40.828125 74.21875 47.359375 69.109375 
Q 53.90625 64.015625 53.90625 55.328125 
Q 53.90625 49.265625 50.4375 45.09375 
Q 46.96875 40.921875 40.578125 39.3125 
z
" id="DejaVuSans-51"/>
     <path d="M 10.984375 1.515625 
L 10.984375 10.5 
Q 14.703125 8.734375 18.5 7.8125 
Q 22.3125 6.890625 25.984375 6.890625 
Q 35.75 6.890625 40.890625 13.453125 
Q 46.046875 20.015625 46.78125 33.40625 
Q 43.953125 29.203125 39.59375 26.953125 
Q 35.25 24.703125 29.984375 24.703125 
Q 19.046875 24.703125 12.671875 31.3125 
Q 6.296875 37.9375 6.296875 49.421875 
Q 6.296875 60.640625 12.9375 67.421875 
Q 19.578125 74.21875 30.609375 74.21875 
Q 43.265625 74.21875 49.921875 64.515625 
Q 56.59375 54.828125 56.59375 36.375 
Q 56.59375 19.140625 48.40625 8.859375 
Q 40.234375 -1.421875 26.421875 -1.421875 
Q 22.703125 -1.421875 18.890625 -0.6875 
Q 15.09375 0.046875 10.984375 1.515625 
z
M 30.609375 32.421875 
Q 37.25 32.421875 41.125 36.953125 
Q 45.015625 41.5 45.015625 49.421875 
Q 45.015625 57.28125 41.125 61.84375 
Q 37.25 66.40625 30.609375 66.40625 
Q 23.96875 66.40625 20.09375 61.84375 
Q 16.21875 57.28125 16.21875 49.421875 
Q 16.21875 41.5 20.09375 36.953125 
Q 23.96875 32.421875 30.609375 32.421875 
z
" id="DejaVuSans-57"/>
     <path d="M 10.59375 35.5 
L 73.1875 35.5 
L 73.1875 27.203125 
L 10.59375 27.203125 
z
" id="DejaVuSans-8722"/>
     <path d="M 31.78125 34.625 
Q 24.75 34.625 20.71875 30.859375 
Q 16.703125 27.09375 16.703125 20.515625 
Q 16.703125 13.921875 20.71875 10.15625 
Q 24.75 6.390625 31.78125 6.390625 
Q 38.8125 6.390625 42.859375 10.171875 
Q 46.921875 13.96875 46.921875 20.515625 
Q 46.921875 27.09375 42.890625 30.859375 
Q 38.875 34.625 31.78125 34.625 
z
M 21.921875 38.8125 
Q 15.578125 40.375 12.03125 44.71875 
Q 8.5 49.078125 8.5 55.328125 
Q 8.5 64.0625 14.71875 69.140625 
Q 20.953125 74.21875 31.78125 74.21875 
Q 42.671875 74.21875 48.875 69.140625 
Q 55.078125 64.0625 55.078125 55.328125 
Q 55.078125 49.078125 51.53125 44.71875 
Q 48 40.375 41.703125 38.8125 
Q 48.828125 37.15625 52.796875 32.3125 
Q 56.78125 27.484375 56.78125 20.515625 
Q 56.78125 9.90625 50.3125 4.234375 
Q 43.84375 -1.421875 31.78125 -1.421875 
Q 19.734375 -1.421875 13.25 4.234375 
Q 6.78125 9.90625 6.78125 20.515625 
Q 6.78125 27.484375 10.78125 32.3125 
Q 14.796875 37.15625 21.921875 38.8125 
z
M 18.3125 54.390625 
Q 18.3125 48.734375 21.84375 45.5625 
Q 25.390625 42.390625 31.78125 42.390625 
Q 38.140625 42.390625 41.71875 45.5625 
Q 45.3125 48.734375 45.3125 54.390625 
Q 45.3125 60.0625 41.71875 63.234375 
Q 38.140625 66.40625 31.78125 66.40625 
Q 25.390625 66.40625 21.84375 63.234375 
Q 18.3125 60.0625 18.3125 54.390625 
z
" id="DejaVuSans-56"/>
    </defs>
    <g transform="translate(272.64418 19.05)scale(0.11 -0.11)">
     <use transform="translate(0 0.78125)" xlink:href="#DejaVuSans-Oblique-74"/>
     <use transform="translate(48.974609 0.78125)" xlink:href="#DejaVuSans-61"/>
     <use transform="translate(152.246094 0.78125)" xlink:href="#DejaVuSans-51"/>
     <use transform="translate(215.869141 0.78125)" xlink:href="#DejaVuSans-57"/>
     <use transform="translate(298.974609 0.78125)" xlink:href="#DejaVuSans-8722"/>
     <use transform="translate(402.246094 0.78125)" xlink:href="#DejaVuSans-51"/>
     <use transform="translate(465.869141 0.78125)" xlink:href="#DejaVuSans-56"/>
    </g>
   </g>
   <g id="legend_1">
    <g id="line2d_17">
     <path d="M 462.976797 38.05 
L 482.976797 38.05 
" style="fill:none;stroke:#ff0000;stroke-linecap:square;stroke-opacity:0.7;stroke-width:2;"/>
    </g>
    <g id="line2d_18"/>
    <g id="text_19">
     <!-- Observed -->
     <defs>
      <path d="M 62.984375 33.296875 
Q 62.984375 17.28125 55.21875 8.140625 
Q 47.46875 -0.984375 34.46875 -0.984375 
Q 21.828125 -0.984375 13.8125 8.140625 
Q 5.8125 17.28125 5.8125 33.296875 
L 5.8125 37.796875 
Q 5.8125 53.765625 13.765625 62.921875 
Q 21.734375 72.078125 34.375 72.078125 
Q 47.265625 72.078125 55.046875 63.0625 
Q 62.84375 54.046875 62.984375 38.375 
z
M 53.65625 37.890625 
Q 53.65625 50.59375 48.578125 57.328125 
Q 43.5 64.0625 34.375 64.0625 
Q 25.640625 64.0625 20.390625 57.328125 
Q 15.140625 50.59375 15.140625 37.890625 
L 15.140625 33.296875 
Q 15.140625 20.515625 20.4375 13.75 
Q 25.734375 6.984375 34.46875 6.984375 
Q 43.65625 6.984375 48.65625 13.75 
Q 53.65625 20.515625 53.65625 33.296875 
z
" id="Roboto-Regular-79"/>
      <path d="M 51.609375 25.828125 
Q 51.609375 14.265625 46.234375 6.640625 
Q 40.875 -0.984375 31.0625 -0.984375 
Q 21.046875 -0.984375 15.625 6.109375 
L 15.140625 0 
L 6.84375 0 
L 6.84375 75 
L 15.921875 75 
L 15.921875 47.125 
Q 21.296875 53.8125 30.953125 53.8125 
Q 40.921875 53.8125 46.265625 46.390625 
Q 51.609375 38.96875 51.609375 26.859375 
z
M 28.71875 46.1875 
Q 23.78125 46.1875 20.703125 43.8125 
Q 17.625 41.453125 15.921875 37.984375 
L 15.921875 14.984375 
Q 17.671875 11.46875 20.796875 9.078125 
Q 23.921875 6.6875 28.8125 6.6875 
Q 36.140625 6.6875 39.328125 12.328125 
Q 42.53125 17.96875 42.53125 25.828125 
L 42.53125 26.859375 
Q 42.53125 34.71875 39.46875 40.453125 
Q 36.421875 46.1875 28.71875 46.1875 
z
" id="Roboto-Regular-98"/>
      <path d="M 37.640625 14.015625 
Q 37.640625 16.890625 35.515625 19.203125 
Q 33.40625 21.53125 25.734375 23.09375 
Q 16.890625 24.90625 11.671875 28.34375 
Q 6.453125 31.78125 6.453125 38.375 
Q 6.453125 44.625 11.796875 49.21875 
Q 17.140625 53.8125 26.03125 53.8125 
Q 35.5 53.8125 40.8125 48.96875 
Q 46.140625 44.140625 46.140625 37.3125 
L 37.109375 37.3125 
Q 37.109375 40.578125 34.21875 43.484375 
Q 31.34375 46.390625 26.03125 46.390625 
Q 20.40625 46.390625 17.96875 43.9375 
Q 15.53125 41.5 15.53125 38.625 
Q 15.53125 35.75 17.796875 33.953125 
Q 20.0625 32.171875 27.4375 30.515625 
Q 37.15625 28.328125 41.921875 24.75 
Q 46.6875 21.1875 46.6875 14.703125 
Q 46.6875 7.71875 41.09375 3.359375 
Q 35.5 -0.984375 26.265625 -0.984375 
Q 15.765625 -0.984375 10.203125 4.390625 
Q 4.640625 9.765625 4.640625 16.3125 
L 13.71875 16.3125 
Q 14.015625 10.6875 18.046875 8.5625 
Q 22.078125 6.453125 26.265625 6.453125 
Q 31.78125 6.453125 34.703125 8.59375 
Q 37.640625 10.75 37.640625 14.015625 
z
" id="Roboto-Regular-115"/>
      <path d="M 46.625 52.828125 
L 27.640625 0 
L 20.75 0 
L 1.609375 52.828125 
L 10.890625 52.828125 
L 24.3125 12.359375 
L 37.40625 52.828125 
z
" id="Roboto-Regular-118"/>
      <path d="M 40.96875 0 
L 40.53125 5.671875 
Q 35.109375 -0.984375 25.4375 -0.984375 
Q 16.15625 -0.984375 10.4375 6.53125 
Q 4.734375 14.0625 4.640625 25.4375 
L 4.640625 26.859375 
Q 4.640625 38.96875 10.375 46.390625 
Q 16.109375 53.8125 25.53125 53.8125 
Q 34.859375 53.8125 40.1875 47.5625 
L 40.1875 75 
L 49.265625 75 
L 49.265625 0 
z
M 13.71875 25.828125 
Q 13.71875 17.96875 17.03125 12.328125 
Q 20.359375 6.6875 27.6875 6.6875 
Q 36.078125 6.6875 40.1875 14.359375 
L 40.1875 38.671875 
Q 36.140625 46.1875 27.78125 46.1875 
Q 20.40625 46.1875 17.0625 40.453125 
Q 13.71875 34.71875 13.71875 26.859375 
z
" id="Roboto-Regular-100"/>
     </defs>
     <g transform="translate(490.976797 41.55)scale(0.1 -0.1)">
      <use xlink:href="#Roboto-Regular-79"/>
      <use x="68.798828" xlink:href="#Roboto-Regular-98"/>
      <use x="124.951172" xlink:href="#Roboto-Regular-115"/>
      <use x="176.5625" xlink:href="#Roboto-Regular-101"/>
      <use x="229.589844" xlink:href="#Roboto-Regular-114"/>
      <use x="263.476562" xlink:href="#Roboto-Regular-118"/>
      <use x="311.914062" xlink:href="#Roboto-Regular-101"/>
      <use x="364.941406" xlink:href="#Roboto-Regular-100"/>
     </g>
    </g>
   </g>
  </g>
 </g>
 <defs>
  <clipPath id="pc80dfef0e4">
   <rect height="218.816719" width="480.633984" x="61.477188" y="25.05"/>
  </clipPath>
 </defs>
</svg>
