<?xml version="1.0" encoding="UTF-8" standalone="no"?>
<!-- Created with Inkscape (http://www.inkscape.org/) -->

<svg
   xmlns:dc="http://purl.org/dc/elements/1.1/"
   xmlns:cc="http://creativecommons.org/ns#"
   xmlns:rdf="http://www.w3.org/1999/02/22-rdf-syntax-ns#"
   xmlns:svg="http://www.w3.org/2000/svg"
   xmlns="http://www.w3.org/2000/svg"
   xmlns:sodipodi="http://sodipodi.sourceforge.net/DTD/sodipodi-0.dtd"
   xmlns:inkscape="http://www.inkscape.org/namespaces/inkscape"
   width="125.31065mm"
   height="101.6mm"
   viewBox="0 0 125.31064 101.6"
   version="1.1"
   id="svg8"
   inkscape:version="0.92.5 (2060ec1f9f, 2020-04-08)"
   sodipodi:docname="zero-columns.svg">
  <defs
     id="defs2"
     style="stroke-linecap:butt;stroke-linejoin:round">
    <marker
       inkscape:stockid="Arrow1Send"
       orient="auto"
       refY="0"
       refX="0"
       id="marker1942"
       style="overflow:visible;stroke-linecap:butt;stroke-linejoin:round"
       inkscape:isstock="true">
      <path
         id="path1940"
         d="M 0,0 5,-5 -12.5,0 5,5 Z"
         style="fill:#000000;fill-opacity:1;fill-rule:evenodd;stroke:#000000;stroke-width:1.00000003pt;stroke-linecap:butt;stroke-linejoin:round;stroke-opacity:1"
         transform="matrix(-0.2,0,0,-0.2,-1.2,0)"
         inkscape:connector-curvature="0" />
    </marker>
    <inkscape:path-effect
       effect="bspline"
       id="path-effect1938"
       is_visible="true"
       weight="33.333333"
       steps="2"
       helper_size="0"
       apply_no_weight="true"
       apply_with_weight="true"
       only_selected="false" />
    <marker
       inkscape:isstock="true"
       style="overflow:visible;stroke-linecap:butt;stroke-linejoin:round"
       id="marker1572"
       refX="0"
       refY="0"
       orient="auto"
       inkscape:stockid="Arrow1Send"
       inkscape:collect="always">
      <path
         transform="matrix(-0.2,0,0,-0.2,-1.2,0)"
         style="fill:#000000;fill-opacity:1;fill-rule:evenodd;stroke:#000000;stroke-width:1.00000003pt;stroke-linecap:butt;stroke-linejoin:round;stroke-opacity:1"
         d="M 0,0 5,-5 -12.5,0 5,5 Z"
         id="path1570"
         inkscape:connector-curvature="0" />
    </marker>
    <inkscape:path-effect
       only_selected="false"
       apply_with_weight="true"
       apply_no_weight="true"
       helper_size="0"
       steps="2"
       weight="33.333333"
       is_visible="true"
       id="path-effect1568"
       effect="bspline" />
    <marker
       inkscape:stockid="Arrow1Send"
       orient="auto"
       refY="0"
       refX="0"
       id="Arrow1Send"
       style="overflow:visible;stroke-linecap:butt;stroke-linejoin:round"
       inkscape:isstock="true"
       inkscape:collect="always">
      <path
         id="path921"
         d="M 0,0 5,-5 -12.5,0 5,5 Z"
         style="fill:#000000;fill-opacity:1;fill-rule:evenodd;stroke:#000000;stroke-width:1.00000003pt;stroke-linecap:butt;stroke-linejoin:round;stroke-opacity:1"
         transform="matrix(-0.2,0,0,-0.2,-1.2,0)"
         inkscape:connector-curvature="0" />
    </marker>
    <inkscape:path-effect
       effect="bspline"
       id="path-effect898"
       is_visible="true"
       weight="33.333333"
       steps="2"
       helper_size="0"
       apply_no_weight="true"
       apply_with_weight="true"
       only_selected="false" />
    <style
       id="style817"
       type="text/css">*{stroke-linecap:butt;stroke-linejoin:round;}</style>
    <clipPath
       id="p9e044c3c85"
       style="stroke-linecap:butt;stroke-linejoin:round">
      <rect
         id="rect858"
         y="10.8"
         x="10.8"
         width="266.39999"
         height="266.39999"
         style="stroke-linecap:butt;stroke-linejoin:round" />
    </clipPath>
  </defs>
  <sodipodi:namedview
     id="base"
     pagecolor="#ffffff"
     bordercolor="#666666"
     borderopacity="1.0"
     inkscape:pageopacity="0.0"
     inkscape:pageshadow="2"
     inkscape:zoom="1.4"
     inkscape:cx="123.0804"
     inkscape:cy="178.49428"
     inkscape:document-units="mm"
     inkscape:current-layer="layer1"
     showgrid="false"
     inkscape:window-width="1920"
     inkscape:window-height="1020"
     inkscape:window-x="81"
     inkscape:window-y="36"
     inkscape:window-maximized="1" />
  <metadata
     id="metadata5">
    <rdf:RDF>
      <cc:Work
         rdf:about="">
        <dc:format>image/svg+xml</dc:format>
        <dc:type
           rdf:resource="http://purl.org/dc/dcmitype/StillImage" />
        <dc:title></dc:title>
      </cc:Work>
    </rdf:RDF>
  </metadata>
  <g
     inkscape:label="Layer 1"
     inkscape:groupmode="layer"
     id="layer1"
     transform="translate(-53.521428,-12.98869)">
    <g
       id="figure_1"
       transform="matrix(0.35277778,0,0,0.35277778,53.521428,12.98869)"
       style="stroke-linecap:butt;stroke-linejoin:round">
      <g
         id="patch_1"
         style="stroke-linecap:butt;stroke-linejoin:round">
        <path
           id="path821"
           style="fill:none;stroke-linecap:butt;stroke-linejoin:round"
           d="M 0,288 H 288 V 0 H 0 Z"
           inkscape:connector-curvature="0" />
      </g>
      <g
         id="axes_1"
         style="stroke-linecap:butt;stroke-linejoin:round">
        <g
           id="patch_2"
           style="stroke-linecap:butt;stroke-linejoin:round">
          <path
             id="path824"
             style="fill:none;stroke-linecap:butt;stroke-linejoin:round"
             d="M 10.8,277.2 H 277.2 V 10.8 H 10.8 Z"
             inkscape:connector-curvature="0" />
        </g>
        <g
           id="PathCollection_1"
           style="stroke-linecap:butt;stroke-linejoin:round">
          <path
             id="path827"
             style="fill:#f4db96;stroke-linecap:butt;stroke-linejoin:round"
             d="m 113.41447,238.45292 1.9025,0.30777 1.90249,0.22627 1.9025,0.13352 1.90249,0.0323 1.9025,-0.0748 1.90249,-0.18582 1.9025,-0.29951 1.57415,-0.34348 0.32834,-0.0676 1.9025,-0.49994 1.90249,-0.60793 1.34017,-0.5019 0.56233,-0.20131 1.9025,-0.76937 1.56537,-0.70666 0.33712,-0.14621 1.9025,-0.88684 1.29052,-0.64429 0.61197,-0.29331 1.9025,-0.94856 0.84545,-0.43546 1.05704,-0.51979 1.9025,-0.95476 0.4014,-0.20279 1.50109,-0.71807 1.9025,-0.92433 0.0722,-0.0349 1.83029,-0.83179 1.81474,-0.84554 0.0878,-0.0383 1.90249,-0.83153 1.76344,-0.80749 0.13906,-0.0595 1.90249,-0.8311 1.67364,-0.78678 0.22886,-0.10049 1.90249,-0.87345 1.39757,-0.7034 0.50493,-0.23828 1.9025,-0.96275 0.86064,-0.4763 1.04185,-0.54436 1.9025,-1.10088 0.0523,-0.0321 1.85019,-1.08191 0.92621,-0.59543 0.97629,-0.60385 1.59529,-1.07348 0.3072,-0.20093 1.9025,-1.32271 0.21103,-0.1537 1.69146,-1.21181 0.61887,-0.46553 1.28363,-0.95932 0.92878,-0.71802 0.97371,-0.75465 1.16868,-0.92268 0.73382,-0.58532 1.36472,-1.09202 0.53777,-0.43736 1.54257,-1.23998 0.35993,-0.29526 1.72815,-1.38207 0.17434,-0.14259 1.9025,-1.49493 0.0536,-0.0398 1.84892,-1.39988 0.38531,-0.27746 1.51719,-1.11071 0.81435,-0.56663 1.08815,-0.76751 1.35078,-0.90982 0.55171,-0.3754 1.9025,-1.24354 0.0937,-0.0584 1.80878,-1.13018 0.87628,-0.54716 1.02622,-0.64053 1.63293,-1.0368 0.26956,-0.17063 1.9025,-1.22124 0.42768,-0.28547 1.47481,-0.97766 0.99542,-0.69968 0.90708,-0.63282 1.40753,-1.04452 0.49496,-0.36483 1.6741,-1.3125 0.2284,-0.17827 1.80985,-1.49907 0.0926,-0.0767 1.8289,-1.60064 0.0736,-0.0648 1.74238,-1.61257 0.16011,-0.1501 1.55819,-1.52724 0.34431,-0.34485 1.2812,-1.33249 0.62129,-0.66674 0.91393,-1.0106 0.98857,-1.13956 0.4567,-0.53777 1.35899,-1.67734 0.0868,-0.11094 1.21439,-1.5664 0.6881,-0.94883 0.52903,-0.7285 1.14526,-1.67734 0.22821,-0.35167 0.87366,-1.32567 1.01896,-1.67734 0.01,-0.0169 0.99864,-1.66042 0.90386,-1.63297 0.0256,-0.0444 0.93444,-1.67734 0.86839,-1.67733 0.0741,-0.14787 0.81033,-1.52947 0.83782,-1.67734 0.25435,-0.52651 0.59366,-1.15083 0.82779,-1.67733 0.48104,-1.01391 0.33818,-0.66343 0.82647,-1.67734 0.73785,-1.58403 0.0468,-0.0933 0.82059,-1.67734 0.76465,-1.67734 0.27043,-0.6197 0.4953,-1.05764 0.7367,-1.67733 0.6705,-1.66914 0.004,-0.008 0.70255,-1.67734 0.63871,-1.67733 0.55769,-1.60536 0.027,-0.072 0.61363,-1.67734 0.5598,-1.67733 0.51198,-1.67734 0.19008,-0.6521 0.32732,-1.02524 0.50247,-1.67734 0.45746,-1.67733 0.41485,-1.67734 0.2004,-0.8786 0.20449,-0.79874 0.39039,-1.67733 0.33961,-1.67734 0.2891,-1.67734 0.23847,-1.67734 0.18725,-1.67733 0.1351,-1.67734 0.0817,-1.67734 0.027,-1.67734 -0.0286,-1.67733 -0.0842,-1.67734 -0.138,-1.677337 -0.18694,-1.677337 -0.22627,-1.677337 -0.24947,-1.677338 -0.24824,-1.677337 -0.21351,-1.677337 -0.13753,-1.677337 -0.0173,-1.677337 0.1415,-1.677337 0.32173,-1.677337 0.49622,-1.677338 0.57986,-1.538111 0.0623,-0.139226 0.82028,-1.677337 0.82127,-1.677337 0.19864,-0.455623 0.62436,-1.221714 0.66133,-1.677337 0.39746,-1.677338 0.0938,-1.677337 -0.22629,-1.677337 -0.54614,-1.677337 -0.85548,-1.677337 -0.14901,-0.217633 -0.85885,-1.459704 -1.04364,-1.430083 -0.15966,-0.247254 -1.27075,-1.677338 -0.47208,-0.554273 -0.87338,-1.123064 -1.02912,-1.212961 -0.36719,-0.464376 -1.4054,-1.677337 -0.12991,-0.15023 -1.25384,-1.527107 -0.64865,-0.769877 -0.73993,-0.90746 -1.16257,-1.389727 -0.23864,-0.287611 -1.43481,-1.677337 -0.22904,-0.258134 -1.30971,-1.419203 -0.59279,-0.601509 -1.15747,-1.075828 -0.74502,-0.638618 -1.40653,-1.038719 -0.49597,-0.336958 -1.90249,-1.055047 -0.67128,-0.285332 -1.23122,-0.491837 -1.90249,-0.536957 -1.9025,-0.332566 -1.90249,-0.162164 -1.9025,-0.0213 -1.9025,0.09313 -1.90249,0.182934 -1.9025,0.248582 -1.90249,0.289244 -1.9025,0.302848 -1.90249,0.286268 -1.15821,0.141818 -0.74429,0.08614 -1.90249,0.133687 -1.9025,0.01725 -1.90249,-0.129157 -0.69922,-0.107921 -1.20328,-0.213129 -1.90249,-0.535287 -1.9025,-0.722468 -0.45158,-0.206454 -1.45091,-0.750436 -1.64265,-0.926901 -0.25985,-0.163491 -1.90249,-1.21257 -0.49489,-0.301276 -1.40761,-0.931272 -1.25419,-0.746065 -0.64831,-0.418865 -1.90249,-1.07462 -0.38074,-0.183852 -1.52176,-0.822476 -1.84604,-0.854861 -0.0565,-0.03015 -1.9025,-0.902887 -1.69472,-0.744302 -0.20777,-0.111242 -1.9025,-0.970957 -1.16385,-0.595139 -0.73864,-0.465416 -1.9025,-1.18604 -0.0445,-0.02588 -1.85804,-1.190837 -0.90803,-0.4865 -0.99447,-0.50702 -1.90249,-0.636944 -1.9025,-0.256379 -1.90249,0.11191 -1.9025,0.43516 -1.90249,0.702936 -0.2953,0.150337 -1.6072,0.840749 -1.33172,0.836588 -0.57078,0.354454 -1.86246,1.322883 -0.04,0.02676 -1.9025,1.418403 -0.29149,0.232172 -1.611,1.159829 -0.68798,0.517508 -1.21452,0.801679 -1.2859,0.875658 -0.61659,0.363071 -1.9025,1.155032 -0.25787,0.159234 -1.64462,0.891291 -1.42636,0.786046 -0.47614,0.232092 -1.90249,0.944927 -0.99681,0.500318 -0.90569,0.413354 -1.90249,0.880324 -0.83054,0.383659 -1.07196,0.462519 -1.90249,0.82874 -0.89483,0.386079 -1.00767,0.415473 -1.90249,0.783387 -1.16633,0.478477 -0.73617,0.29324 -1.9025,0.7421 -1.61368,0.641997 -0.28881,0.112278 -1.9025,0.706378 -1.90249,0.733435 -0.33725,0.125246 -1.56525,0.563872 -1.90249,0.697906 -1.14385,0.415559 -0.75865,0.26377 -1.90249,0.64391 -1.9025,0.629427 -0.45221,0.14023 -1.45028,0.424862 -1.9025,0.517159 -1.90249,0.462927 -1.28874,0.27239 -0.61376,0.123178 -1.90249,0.329201 -1.9025,0.276948 -1.90249,0.234461 -1.9025,0.207459 -1.9025,0.199688 -1.90249,0.212901 -0.710007,0.0935 -1.192489,0.154128 -1.902495,0.301271 -1.902495,0.370865 -1.902495,0.454352 -1.373657,0.396721 -0.528839,0.154117 -1.902495,0.657173 -1.902495,0.76793 -0.21563,0.09812 -1.686866,0.797717 -1.64463,0.87962 -0.257865,0.145946 -1.902495,1.180918 -0.521728,0.350473 -1.380768,1.01022 -0.851904,0.667118 -1.050591,0.914303 -0.83236,0.763034 -1.070135,1.112783 -0.523109,0.564554 -1.344933,1.677337 -0.03445,0.04826 -1.133841,1.629074 -0.768655,1.292645 -0.225794,0.384692 -0.890407,1.677337 -0.785954,1.677338 -3.4e-4,7.45e-4 -0.76126,1.676592 -0.714169,1.677337 -0.427066,1.014385 -0.279697,0.662952 -0.718518,1.677337 -0.709276,1.677337 -0.195005,0.447274 -0.540908,1.230064 -0.733701,1.677337 -0.627886,1.468588 -0.09086,0.208749 -0.731751,1.677337 -0.689229,1.677337 -0.39066,1.00551 -0.268896,0.671827 -0.629575,1.677337 -0.566183,1.677338 -0.437842,1.452548 -0.07086,0.224789 -0.479345,1.677337 -0.420065,1.677333 -0.370718,1.67734 -0.333788,1.67733 -0.227723,1.22029 -0.0906,0.45705 -0.329248,1.67734 -0.337069,1.67734 -0.360215,1.67733 -0.396115,1.67734 -0.389244,1.47585 -0.05638,0.20149 -0.530035,1.67734 -0.581476,1.67733 -0.630243,1.67734 -0.104363,0.25586 -0.610403,1.42148 -0.753882,1.67733 -0.538211,1.15619 -0.254837,0.52115 -0.838135,1.67734 -0.809523,1.62566 -0.02696,0.0517 -0.870733,1.67733 -0.841799,1.67734 -0.163001,0.33619 -0.678418,1.34115 -0.800428,1.67733 -0.42365,0.9487 -0.339658,0.72864 -0.72081,1.67734 -0.654898,1.67733 -0.187129,0.53362 -0.420952,1.14372 -0.547133,1.67734 -0.479861,1.67734 -0.415906,1.67733 -0.03864,0.18354 -0.337302,1.4938 -0.324412,1.67734 -0.277607,1.67733 -0.237844,1.67734 -0.204937,1.67734 -0.178344,1.67734 -0.15715,1.67733 -0.140135,1.67734 -0.04477,0.5966 -0.0952,1.08074 -0.136554,1.67733 -0.125803,1.67734 -0.113739,1.67734 -0.100289,1.67734 -0.08607,1.67733 -0.07214,1.67734 -0.05974,1.67734 -0.05007,1.67733 -0.04417,1.67734 -0.04293,1.67734 -0.04709,1.67734 -0.05728,1.67733 -0.07396,1.67734 -0.09728,1.67734 -0.12699,1.67733 -0.162209,1.67734 -0.201415,1.67734 -0.20955,1.45509 -0.03602,0.22225 -0.302595,1.67733 -0.331327,1.67734 -0.354113,1.67734 -0.371021,1.67733 -0.383014,1.67734 -0.12441,0.54767 -0.260767,1.12967 -0.372913,1.67734 -0.356986,1.67733 -0.334832,1.67734 -0.300388,1.67734 -0.24082,1.67733 -0.03579,0.51451 -0.07748,1.16283 0.07748,1.67734 0.577706,1.67734 1.324789,1.34685 0.944329,0.33048 0.958166,0.20066 1.902495,0.0268 1.902496,-0.1403 0.912737,-0.0872 0.989758,-0.0956 1.902495,-0.12934 1.902496,-0.001 1.902495,0.17734 0.22709,0.0486 1.675405,0.33402 1.902496,0.62594 1.542521,0.71738 0.359974,0.15977 1.902495,1.08265 0.645388,0.43492 1.257107,0.79907 1.253049,0.87826 0.649447,0.42761 1.819531,1.24973 0.08296,0.0538 1.902495,1.25221 0.577769,0.3713 1.324727,0.81905 1.456267,0.85829 0.446228,0.25987 1.902495,1.05329 0.707607,0.36417 1.194889,0.62844 1.902495,0.91309 0.312762,0.13581 1.589733,0.72491 1.902495,0.75798 0.566059,0.19445 1.336437,0.48921 1.902495,0.58 1.902495,0.46972 0.696263,0.1384 1.206233,0.25489 1.902495,0.31959 1.902495,0.25872 1.902496,0.22305 1.902495,0.21146 1.902495,0.22088 1.448314,0.18875 0.454181,0.0608 1.902496,0.2967 1.902488,0.33707 1.9025,0.3748 1.9025,0.40436 0.90014,0.20362 1.00235,0.22999 1.9025,0.44795 1.90249,0.43423 1.9025,0.40297 0.8532,0.1622 z m -0.75875,-23.68639 -1.14374,-0.31688 -1.9025,-0.56931 -1.90249,-0.58402 -0.68523,-0.20713 -1.21727,-0.34107 -1.90249,-0.50777 -1.9025,-0.47539 -1.51354,-0.35311 -0.38896,-0.0857 -1.90249,-0.39875 -1.902496,-0.40127 -1.902495,-0.42874 -1.433488,-0.36289 -0.469007,-0.12044 -1.902495,-0.56958 -1.902496,-0.71672 -0.595626,-0.27059 -1.306869,-0.64494 -1.676164,-1.0324 -0.226331,-0.15531 -1.876751,-1.52203 -0.02575,-0.0235 -1.61511,-1.6538 -0.287385,-0.32967 -1.100667,-1.34767 -0.801828,-1.07366 -0.439679,-0.60368 -1.170941,-1.67734 -0.291876,-0.4255 -0.872268,-1.25183 -1.030227,-1.48188 -0.140225,-0.19546 -1.243149,-1.67734 -0.519121,-0.67737 -0.796225,-0.99996 -1.10627,-1.33448 -0.29414,-0.34286 -1.50632,-1.67734 -0.102036,-0.10811 -1.507536,-1.56923 -0.394959,-0.39741 -1.267686,-1.27992 -0.634809,-0.63306 -1.015587,-1.04428 -0.886909,-0.933 -0.66745,-0.74434 -1.235045,-1.48125 -0.151112,-0.19608 -1.17126,-1.67734 -0.580123,-0.98942 -0.370708,-0.68792 -0.73768,-1.67734 -0.547199,-1.67733 -0.246909,-1.07548 -0.131971,-0.60186 -0.23393,-1.67734 -0.10671,-1.67733 0.0036,-1.67734 0.09958,-1.67734 0.183888,-1.67734 0.18554,-1.20298 0.06985,-0.47435 0.308361,-1.67734 0.363947,-1.67734 0.41632,-1.67733 0.467376,-1.67734 0.276641,-0.90933 0.224691,-0.76801 0.52564,-1.67734 0.569948,-1.67733 0.582216,-1.58782 0.03154,-0.0895 0.608163,-1.67734 0.648159,-1.67733 0.614634,-1.50424 0.06773,-0.1731 0.662601,-1.67734 0.693641,-1.67734 0.478524,-1.1296 0.221491,-0.54773 0.678529,-1.67734 0.695995,-1.67734 0.30648,-0.7426 0.367593,-0.93473 0.656824,-1.67734 0.662049,-1.67734 0.216029,-0.55825 0.412605,-1.11908 0.612776,-1.67734 0.610275,-1.67734 0.26684,-0.74979 0.315333,-0.92755 0.559569,-1.67733 0.552404,-1.67734 0.475189,-1.47055 0.06428,-0.20679 0.505874,-1.67733 0.500631,-1.67734 0.498237,-1.67734 0.333474,-1.12449 0.160378,-0.55285 0.491909,-1.67733 0.516724,-1.67734 0.555602,-1.67734 0.177882,-0.50048 0.419553,-1.17686 0.668326,-1.67733 0.766407,-1.67734 0.04821,-0.0954 0.820478,-1.581937 1.014631,-1.677337 0.06739,-0.100737 1.10019,-1.5766 0.802305,-1.010527 0.555959,-0.666811 1.346537,-1.446535 0.226548,-0.230802 1.675947,-1.558116 0.135381,-0.119221 1.767114,-1.445277 0.298997,-0.23206 1.603499,-1.17432 0.72058,-0.503017 1.181915,-0.78936 1.38609,-0.887977 0.516405,-0.320212 1.902495,-1.157446 0.327161,-0.199679 1.575335,-0.937852 1.259588,-0.739486 0.642905,-0.3707 1.9025,-1.103836 0.34109,-0.202801 1.56141,-0.914715 1.30689,-0.762622 0.5956,-0.344 1.9025,-1.112375 0.37024,-0.220962 1.53225,-0.907601 1.31099,-0.769736 0.59151,-0.346232 1.90249,-1.118564 0.35756,-0.212541 1.54494,-0.919674 1.29425,-0.757664 0.60824,-0.358367 1.9025,-1.116062 0.34495,-0.202908 1.55754,-0.927396 1.28834,-0.749941 0.61416,-0.363625 1.90249,-1.113369 0.34443,-0.200343 1.55807,-0.92654 1.30146,-0.750797 0.60103,-0.355711 1.9025,-1.101123 0.38931,-0.220503 1.51318,-0.881974 1.43075,-0.795363 0.47175,-0.270385 1.9025,-1.049724 0.68203,-0.357229 1.22046,-0.66015 1.9025,-0.954982 0.1311,-0.0622 1.77139,-0.869691 1.82508,-0.807646 0.0774,-0.03557 1.90249,-0.811225 1.9025,-0.716141 0.33492,-0.114405 1.56757,-0.559524 1.9025,-0.597297 1.90249,-0.520516 1.9025,-0.498404 1.90249,-0.436883 1.9025,-0.385723 1.90249,-0.343852 0.0744,-0.01248 1.82808,-0.329266 1.90249,-0.309936 1.9025,-0.280029 1.9025,-0.251026 1.90249,-0.220534 1.9025,-0.186128 1.31627,-0.100419 0.58622,-0.04933 1.9025,-0.104102 1.90249,-0.0364 1.9025,0.04533 1.90249,0.143407 0.008,0.0011 1.89414,0.241828 1.90249,0.371179 1.9025,0.515807 1.57142,0.548524 0.33107,0.117542 1.9025,0.793064 1.58333,0.766731 0.31916,0.15918 1.9025,1.008812 0.92599,0.509345 0.9765,0.554568 1.9025,1.073952 0.0917,0.04882 1.81082,1.002113 1.29759,0.675224 0.6049,0.332277 1.9025,0.957602 0.84339,0.387458 1.0591,0.52709 1.9025,0.880522 0.63025,0.269726 1.27224,0.608008 1.9025,0.887232 0.40742,0.182097 1.49507,0.761841 1.73999,0.915496 0.16251,0.09668 1.90249,1.130537 0.72608,0.450123 1.17642,0.808407 1.20253,0.86893 0.69996,0.544781 1.37359,1.132556 0.52891,0.461961 1.28963,1.215376 0.61286,0.614202 0.95985,1.063136 0.94265,1.137044 0.39722,0.540293 1.13906,1.677337 0.36621,0.582856 0.61059,1.094481 0.8667,1.677337 0.42521,0.852878 0.37491,0.824459 0.77783,1.677338 0.74976,1.587434 0.0402,0.0899 0.84136,1.677337 0.91056,1.677337 0.11037,0.181166 0.89759,1.496171 1.00491,1.531001 0.0946,0.146336 1.18193,1.677337 0.62594,0.848937 0.5925,0.828401 1.19873,1.677337 0.11127,0.159796 0.99927,1.517541 0.90322,1.533503 0.0795,0.14383 0.81169,1.67734 0.64147,1.67733 0.36983,1.30644 0.0993,0.3709 0.3022,1.67734 0.15032,1.67734 0.0103,1.67733 -0.11831,1.67734 -0.23686,1.67734 -0.20698,0.99907 -0.13875,0.67827 -0.44303,1.67733 -0.53506,1.67734 -0.62302,1.67734 -0.16264,0.39126 -0.53533,1.28607 -0.768,1.67734 -0.59916,1.20708 -0.235,0.47026 -0.88185,1.67734 -0.78565,1.41489 -0.14659,0.26244 -0.95593,1.67734 -0.79997,1.36197 -0.1853,0.31537 -0.98464,1.67733 -0.73256,1.23649 -0.25928,0.44085 -0.9724,1.67734 -0.67081,1.1622 -0.29324,0.51513 -0.93538,1.67734 -0.67388,1.21667 -0.25087,0.46067 -0.89636,1.67734 -0.75527,1.40744 -0.14258,0.26989 -0.87784,1.67734 -0.88207,1.64098 -0.0193,0.0364 -0.89786,1.67733 -0.94562,1.67734 -0.0397,0.0685 -0.93084,1.60885 -0.97165,1.56386 -0.0709,0.11348 -1.09853,1.67733 -0.73309,1.03759 -0.45785,0.63975 -1.28888,1.67734 -0.15576,0.19114 -1.23424,1.48619 -0.66826,0.75037 -0.84323,0.92697 -1.05926,1.09404 -0.57707,0.5833 -1.32543,1.26916 -0.43482,0.40818 -1.46767,1.31624 -0.40921,0.36109 -1.49329,1.26947 -0.48497,0.40787 -1.41752,1.15774 -0.63862,0.5196 -1.26388,1.00606 -0.83984,0.67127 -1.06265,0.83662 -1.0547,0.84072 -0.8478,0.66966 -1.24996,1.00768 -0.65253,0.52394 -1.39776,1.1534 -0.50474,0.41652 -1.47906,1.26081 -0.42344,0.36203 -1.48536,1.31531 -0.41713,0.37103 -1.41822,1.30631 -0.48428,0.44803 -1.28726,1.2293 -0.61523,0.58916 -1.10774,1.08818 -0.79476,0.78044 -0.89837,0.8969 -1.00412,0.9979 -0.68015,0.67944 -1.22235,1.20981 -0.47623,0.46752 -1.42626,1.3812 -0.31291,0.29614 -1.58959,1.47912 -0.22141,0.19822 -1.68108,1.47718 -0.24061,0.20015 -1.66189,1.35761 -0.42007,0.31973 -1.48242,1.11093 -0.82362,0.56641 -1.07888,0.73396 -1.53207,0.94338 -0.37042,0.22708 -1.9025,1.04151 -0.8506,0.40874 -1.05189,0.50954 -1.9025,0.79726 -1.04365,0.37054 -0.85885,0.31133 -1.90249,0.56784 -1.9025,0.46268 -1.76132,0.33549 -0.14117,0.0279 -1.9025,0.26733 -1.90249,0.18958 -1.9025,0.13164 -1.90249,0.1017 -1.9025,0.10844 -1.90249,0.15779 -1.9025,0.24866 -1.90249,0.36995 -0.28254,0.0744 -1.61996,0.43611 -1.90249,0.6428 -1.5333,0.59843 -0.3692,0.14486 -1.90249,0.81398 -1.66375,0.7185 -0.23875,0.10221 -1.9025,0.79414 -1.90249,0.70825 -0.22668,0.0727 -1.67582,0.53202 -1.90249,0.46839 -1.9025,0.31809 -1.90249,0.16412 -1.9025,0.0125 -1.90249,-0.13245 -1.9025,-0.2666 -1.90249,-0.3859 -1.9025,-0.48586 z"
             clip-path="url(#p9e044c3c85)"
             inkscape:connector-curvature="0" />
        </g>
        <g
           id="PathCollection_2"
           style="stroke-linecap:butt;stroke-linejoin:round">
          <path
             id="path830"
             style="fill:#f6c28c;stroke-linecap:butt;stroke-linejoin:round"
             d="m 113.41447,214.9908 1.9025,0.48586 1.90249,0.3859 1.9025,0.2666 1.90249,0.13245 1.9025,-0.0125 1.90249,-0.16412 1.9025,-0.31809 1.90249,-0.46839 1.67582,-0.53202 0.22668,-0.0727 1.90249,-0.70825 1.9025,-0.79414 0.23875,-0.10221 1.66375,-0.7185 1.90249,-0.81398 0.3692,-0.14486 1.5333,-0.59843 1.90249,-0.6428 1.61996,-0.43611 0.28254,-0.0744 1.90249,-0.36995 1.9025,-0.24866 1.90249,-0.15779 1.9025,-0.10844 1.90249,-0.1017 1.9025,-0.13164 1.90249,-0.18958 1.9025,-0.26733 0.14117,-0.0279 1.76132,-0.33549 1.9025,-0.46268 1.90249,-0.56784 0.85885,-0.31133 1.04365,-0.37054 1.9025,-0.79726 1.05189,-0.50954 0.8506,-0.40874 1.9025,-1.04151 0.37042,-0.22708 1.53207,-0.94338 1.07888,-0.73396 0.82362,-0.56641 1.48242,-1.11093 0.42007,-0.31973 1.66189,-1.35761 0.24061,-0.20015 1.68108,-1.47718 0.22141,-0.19822 1.58959,-1.47912 0.31291,-0.29614 1.42626,-1.3812 0.47623,-0.46752 1.22235,-1.20981 0.68015,-0.67944 1.00412,-0.9979 0.89837,-0.8969 0.79476,-0.78044 1.10774,-1.08818 0.61523,-0.58916 1.28726,-1.2293 0.48428,-0.44803 1.41822,-1.30631 0.41713,-0.37103 1.48536,-1.31531 0.42344,-0.36203 1.47906,-1.26081 0.50474,-0.41652 1.39776,-1.1534 0.65253,-0.52394 1.24996,-1.00768 0.8478,-0.66966 1.0547,-0.84072 1.06265,-0.83662 0.83984,-0.67127 1.26388,-1.00606 0.63862,-0.5196 1.41752,-1.15774 0.48497,-0.40787 1.49329,-1.26947 0.40921,-0.36109 1.46767,-1.31624 0.43482,-0.40818 1.32543,-1.26916 0.57707,-0.5833 1.05926,-1.09404 0.84323,-0.92697 0.66826,-0.75037 1.23424,-1.48619 0.15576,-0.19114 1.28888,-1.67734 0.45785,-0.63975 0.73309,-1.03759 1.09853,-1.67733 0.0709,-0.11348 0.97165,-1.56386 0.93084,-1.60885 0.0397,-0.0685 0.94562,-1.67734 0.89786,-1.67733 0.0193,-0.0364 0.88207,-1.64098 0.87784,-1.67734 0.14258,-0.26989 0.75527,-1.40744 0.89636,-1.67734 0.25087,-0.46067 0.67388,-1.21667 0.93538,-1.67734 0.29324,-0.51513 0.67081,-1.1622 0.9724,-1.67734 0.25928,-0.44085 0.73256,-1.23649 0.98464,-1.67733 0.1853,-0.31537 0.79997,-1.36197 0.95593,-1.67734 0.14659,-0.26244 0.78565,-1.41489 0.88185,-1.67734 0.235,-0.47026 0.59916,-1.20708 0.768,-1.67734 0.53533,-1.28607 0.16264,-0.39126 0.62302,-1.67734 0.53506,-1.67734 0.44303,-1.67733 0.13875,-0.67827 0.20698,-0.99907 0.23686,-1.67734 0.11831,-1.67734 -0.0103,-1.67733 -0.15032,-1.67734 -0.3022,-1.67734 -0.0993,-0.3709 -0.36983,-1.30644 -0.64147,-1.67733 -0.81169,-1.67734 -0.0795,-0.14383 -0.90322,-1.533507 -0.99927,-1.517541 -0.11127,-0.159796 -1.19873,-1.677337 -0.5925,-0.828401 -0.62594,-0.848937 -1.18193,-1.677337 -0.0946,-0.146336 -1.00491,-1.531001 -0.89759,-1.496171 -0.11037,-0.181166 -0.91056,-1.677337 -0.84136,-1.677337 -0.0402,-0.0899 -0.74976,-1.587434 -0.77783,-1.677338 -0.37491,-0.824459 -0.42521,-0.852878 -0.8667,-1.677337 -0.61059,-1.094481 -0.36621,-0.582856 -1.13906,-1.677337 -0.39722,-0.540293 -0.94265,-1.137044 -0.95985,-1.063136 -0.61286,-0.614202 -1.28963,-1.215376 -0.52891,-0.461961 -1.37359,-1.132556 -0.69996,-0.544781 -1.20253,-0.86893 -1.17642,-0.808407 -0.72608,-0.450123 -1.90249,-1.130537 -0.16251,-0.09668 -1.73999,-0.915496 -1.49507,-0.761841 -0.40742,-0.182097 -1.9025,-0.887232 -1.27224,-0.608008 -0.63025,-0.269726 -1.9025,-0.880522 -1.0591,-0.52709 -0.84339,-0.387458 -1.9025,-0.957602 -0.6049,-0.332277 -1.29759,-0.675224 -1.81082,-1.002113 -0.0917,-0.04882 -1.9025,-1.073952 -0.9765,-0.554568 -0.92599,-0.509345 -1.9025,-1.008812 -0.31916,-0.15918 -1.58333,-0.766731 -1.9025,-0.793064 -0.33107,-0.117542 -1.57142,-0.548524 -1.9025,-0.515807 -1.90249,-0.371179 -1.89414,-0.241828 -0.008,-0.0011 -1.90249,-0.143407 -1.9025,-0.04533 -1.90249,0.0364 -1.9025,0.104102 -0.58622,0.04933 -1.31627,0.100419 -1.9025,0.186128 -1.90249,0.220534 -1.9025,0.251026 -1.9025,0.280029 -1.90249,0.309936 -1.82808,0.329266 -0.0744,0.01248 -1.90249,0.343852 -1.9025,0.385723 -1.90249,0.436883 -1.9025,0.498404 -1.90249,0.520516 -1.9025,0.597297 -1.56757,0.559524 -0.33492,0.114405 -1.9025,0.716141 -1.90249,0.811225 -0.0774,0.03557 -1.82508,0.807646 -1.77139,0.869691 -0.1311,0.0622 -1.9025,0.954982 -1.22046,0.66015 -0.68203,0.357229 -1.9025,1.049724 -0.47175,0.270385 -1.43075,0.795363 -1.51318,0.881974 -0.38931,0.220503 -1.9025,1.101123 -0.60103,0.355711 -1.30146,0.750797 -1.55807,0.92654 -0.34443,0.200343 -1.90249,1.113369 -0.61416,0.363625 -1.28834,0.749941 -1.55754,0.927396 -0.34495,0.202908 -1.9025,1.116062 -0.60824,0.358367 -1.29425,0.757664 -1.54494,0.919674 -0.35756,0.212541 -1.90249,1.118564 -0.59151,0.346232 -1.31099,0.769736 -1.53225,0.907601 -0.37024,0.220962 -1.9025,1.112375 -0.5956,0.344 -1.30689,0.762622 -1.56141,0.914715 -0.34109,0.202801 -1.9025,1.103836 -0.642902,0.3707 -1.259588,0.739486 -1.575335,0.937852 -0.327161,0.199679 -1.902495,1.157446 -0.516405,0.320212 -1.38609,0.887977 -1.181915,0.78936 -0.72058,0.503017 -1.603499,1.17432 -0.298997,0.23206 -1.767114,1.445277 -0.135381,0.119221 -1.675947,1.558116 -0.226548,0.230802 -1.346537,1.446535 -0.555959,0.666811 -0.802305,1.010527 -1.10019,1.5766 -0.06739,0.100737 -1.014631,1.677337 -0.820478,1.581941 -0.04821,0.0954 -0.766407,1.67734 -0.668326,1.67733 -0.419553,1.17686 -0.177882,0.50048 -0.555602,1.67734 -0.516724,1.67734 -0.491909,1.67733 -0.160378,0.55285 -0.333474,1.12449 -0.498237,1.67734 -0.500631,1.67734 -0.505874,1.67733 -0.06428,0.20679 -0.475189,1.47055 -0.552404,1.67734 -0.559569,1.67733 -0.315333,0.92755 -0.26684,0.74979 -0.610275,1.67734 -0.612776,1.67734 -0.412605,1.11908 -0.216029,0.55825 -0.662049,1.67734 -0.656824,1.67734 -0.367593,0.93473 -0.30648,0.7426 -0.695995,1.67734 -0.678529,1.67734 -0.221491,0.54773 -0.478524,1.1296 -0.693641,1.67734 -0.662601,1.67734 -0.06773,0.1731 -0.614634,1.50424 -0.648159,1.67733 -0.608163,1.67734 -0.03154,0.0895 -0.582216,1.58782 -0.569948,1.67733 -0.52564,1.67734 -0.224691,0.76801 -0.276641,0.90933 -0.467376,1.67734 -0.41632,1.67733 -0.363947,1.67734 -0.308361,1.67734 -0.06985,0.47435 -0.18554,1.20298 -0.183888,1.67734 -0.09958,1.67734 -0.0036,1.67734 0.10671,1.67733 0.23393,1.67734 0.131971,0.60186 0.246909,1.07548 0.547199,1.67733 0.73768,1.67734 0.370708,0.68792 0.580123,0.98942 1.17126,1.67734 0.151112,0.19608 1.235045,1.48125 0.66745,0.74434 0.886909,0.933 1.015587,1.04428 0.634809,0.63306 1.267686,1.27992 0.394959,0.39741 1.507536,1.56923 0.102036,0.10811 1.50632,1.67734 0.29414,0.34286 1.10627,1.33448 0.796225,0.99996 0.519121,0.67737 1.243149,1.67734 0.140225,0.19546 1.030227,1.48188 0.872268,1.25183 0.291876,0.4255 1.170941,1.67734 0.439679,0.60368 0.801828,1.07366 1.100667,1.34767 0.287385,0.32967 1.61511,1.6538 0.02575,0.0235 1.876751,1.52203 0.226331,0.15531 1.676164,1.0324 1.306869,0.64494 0.595626,0.27059 1.902496,0.71672 1.902495,0.56958 0.469007,0.12044 1.433488,0.36289 1.902495,0.42874 1.902496,0.40127 1.902487,0.39875 0.38896,0.0857 1.51354,0.35311 1.9025,0.47539 1.90249,0.50777 1.21727,0.34107 0.68523,0.20713 1.90249,0.58402 1.9025,0.56931 1.14374,0.31688 z m -2.74747,-13.64297 -1.05752,-0.1636 -1.90249,-0.35695 -1.9025,-0.42113 -1.90249,-0.49354 -0.80831,-0.24212 -1.09419,-0.3387 -1.9025,-0.69897 -1.444243,-0.63967 -0.458247,-0.21841 -1.902496,-1.07347 -0.580558,-0.38545 -1.321937,-0.96669 -0.844842,-0.71065 -1.057653,-0.97674 -0.686704,-0.7006 -1.215791,-1.33762 -0.290217,-0.33971 -1.376951,-1.67734 -0.235328,-0.293 -1.091255,-1.38434 -0.81124,-1.03454 -0.506036,-0.6428 -1.339108,-1.67733 -0.05735,-0.0701 -1.348166,-1.60722 -0.55433,-0.64711 -0.914696,-1.03023 -0.987799,-1.09092 -0.553397,-0.58641 -1.349098,-1.41318 -0.26236,-0.26416 -1.640136,-1.66002 -0.01759,-0.0173 -1.653156,-1.67734 -0.23175,-0.24959 -1.315633,-1.42774 -0.586862,-0.7125 -0.763835,-0.96484 -1.103036,-1.67734 -0.03562,-0.0673 -0.793395,-1.61004 -0.581461,-1.67734 -0.359813,-1.67734 -0.167827,-1.67734 -0.0058,-1.67733 0.0058,-0.0733 0.122776,-1.60404 0.23951,-1.67734 0.33157,-1.67733 0.409488,-1.67734 0.477596,-1.67734 0.321556,-0.99715 0.212571,-0.68019 0.577511,-1.67733 0.624944,-1.67734 0.487469,-1.21797 0.178007,-0.45937 0.688041,-1.67733 0.727676,-1.67734 0.308771,-0.68136 0.438275,-0.99598 0.766397,-1.67734 0.697823,-1.46833 0.09696,-0.209 0.788486,-1.67734 0.812394,-1.67734 0.204659,-0.42222 0.597856,-1.25511 0.806027,-1.67734 0.498612,-1.03938 0.302622,-0.63796 0.781585,-1.67733 0.780747,-1.67734 0.03754,-0.084 0.707695,-1.59338 0.736059,-1.67734 0.458742,-1.07062 0.259321,-0.60671 0.694697,-1.67734 0.691066,-1.67734 0.257411,-0.63417 0.42338,-1.04316 0.684395,-1.67734 0.707201,-1.67734 0.08752,-0.20245 0.639101,-1.47489 0.775946,-1.67733 0.487449,-0.97852 0.349384,-0.69882 0.91076,-1.67734 0.642351,-1.06866 0.366723,-0.60868 1.115665,-1.67733 0.420107,-0.57036 0.814242,-1.10698 1.088253,-1.328883 0.283467,-0.348454 1.500903,-1.677337 0.118126,-0.121214 1.498591,-1.556123 0.403902,-0.385614 1.3315,-1.291724 0.571,-0.514032 1.26881,-1.163305 0.63369,-0.543683 1.29723,-1.133654 0.60526,-0.498773 1.40691,-1.178564 0.49559,-0.394219 1.59266,-1.283118 0.30983,-0.238577 1.8539,-1.43876 0.0486,-0.03627 1.90249,-1.432841 0.27662,-0.208223 1.62588,-1.18445 0.6815,-0.492888 1.22099,-0.860042 1.17478,-0.817295 0.72772,-0.496232 1.76161,-1.181105 0.14088,-0.09318 1.9025,-1.245236 0.52851,-0.338922 1.37398,-0.875197 1.29276,-0.80214 0.60974,-0.378144 1.90249,-1.150526 0.25114,-0.148667 1.65136,-0.982793 1.20819,-0.694545 0.6943,-0.403334 1.9025,-1.068455 0.37783,-0.205548 1.52467,-0.84108 1.59048,-0.836257 0.31201,-0.166903 1.9025,-0.977057 1.09744,-0.533377 0.80505,-0.398261 1.9025,-0.888644 0.88908,-0.390432 1.01341,-0.452685 1.9025,-0.792301 1.11798,-0.432351 0.78451,-0.308434 1.9025,-0.694246 1.90249,-0.632215 0.13695,-0.04244 1.76555,-0.556176 1.90249,-0.54241 1.9025,-0.489123 0.38316,-0.08963 1.51933,-0.36317 1.9025,-0.402445 1.90249,-0.348672 1.9025,-0.293147 1.9025,-0.233299 0.4244,-0.0366 1.47809,-0.13232 1.9025,-0.08922 1.90249,0.0038 1.9025,0.112256 0.8606,0.105476 1.04189,0.133674 1.9025,0.388579 1.90249,0.5598 1.53026,0.595284 0.37224,0.158254 1.90249,0.976775 0.9016,0.542309 1.0009,0.666243 1.37391,1.011094 0.52858,0.430728 1.45973,1.246609 0.44277,0.414818 1.33966,1.262519 0.56283,0.571302 1.11589,1.106035 0.78661,0.818742 0.86078,0.858595 1.04171,1.060273 0.6379,0.617064 1.2646,1.214414 0.50652,0.462924 1.39598,1.239297 0.51359,0.43804 1.3889,1.136245 0.67797,0.541092 1.22453,0.935636 0.97645,0.741701 0.92604,0.67914 1.34241,0.998197 0.56009,0.409103 1.68205,1.268234 0.22044,0.167183 1.9025,1.509459 8.4e-4,6.96e-4 1.90165,1.640302 0.0408,0.03704 1.73542,1.677337 0.1263,0.132537 1.41344,1.5448 0.48905,0.589003 0.88222,1.088334 1.02028,1.384031 0.21565,0.293306 1.15578,1.677337 0.53106,0.821771 0.57362,0.855567 1.08804,1.677337 0.24084,0.381413 0.87613,1.295924 1.02636,1.519113 0.11454,0.15822 1.19225,1.67734 0.59571,0.85754 0.59407,0.81979 1.13619,1.67734 0.17223,0.2864 0.81607,1.39094 0.79738,1.67734 0.28905,0.83797 0.26397,0.83936 0.30403,1.67734 0.0813,1.67734 -0.12222,1.67734 -0.29945,1.67733 -0.22766,0.83636 -0.23721,0.84098 -0.60624,1.67734 -0.69854,1.67733 -0.36051,0.77161 -0.42661,0.90573 -0.84701,1.67734 -0.62887,1.19474 -0.25096,0.4826 -0.90732,1.67733 -0.74422,1.3617 -0.16826,0.31564 -0.91774,1.67734 -0.81649,1.48905 -0.10045,0.18828 -0.91541,1.67734 -0.88664,1.61297 -0.0346,0.0644 -0.92375,1.67733 -0.94115,1.67734 -0.003,0.005 -0.95154,1.67217 -0.95096,1.62064 -0.0334,0.0567 -1.01336,1.67733 -0.8557,1.36314 -0.20076,0.3142 -1.10385,1.67734 -0.59789,0.87397 -0.56414,0.80336 -1.22699,1.67734 -0.11136,0.14736 -1.1898,1.52998 -0.7127,0.87766 -0.66755,0.79968 -1.23494,1.42089 -0.22817,0.25644 -1.54634,1.67734 -0.12799,0.13385 -1.49557,1.54349 -0.40692,0.40486 -1.28517,1.27247 -0.61733,0.59094 -1.1307,1.0864 -0.77179,0.71892 -1.0174,0.95842 -0.8851,0.81069 -0.93041,0.86665 -0.97209,0.88335 -0.85664,0.79398 -1.04585,0.94951 -0.78595,0.72783 -1.11655,1.01769 -0.71159,0.65965 -1.1909,1.09256 -0.6304,0.58477 -1.2721,1.1749 -0.54267,0.50244 -1.35982,1.26133 -0.45248,0.41601 -1.45002,1.34366 -0.36835,0.33368 -1.53414,1.40826 -0.30483,0.26907 -1.59767,1.43553 -0.28527,0.24181 -1.61722,1.40006 -0.34699,0.27728 -1.55551,1.27197 -0.55061,0.40536 -1.35188,1.01926 -0.9975,0.65808 -0.905,0.6113 -1.86396,1.06604 -0.0385,0.0225 -1.9025,0.9002 -1.90249,0.68688 -0.27256,0.0677 -1.62994,0.41845 -1.9025,0.28908 -1.90249,0.1145 -1.9025,-0.0207 -1.90249,-0.10464 -1.9025,-0.13225 -1.90249,-0.10653 -1.9025,-0.0375 -1.90249,0.061 -1.9025,0.1745 -1.90249,0.29072 -1.9025,0.40049 -1.24184,0.33024 -0.66065,0.18647 -1.9025,0.6417 -1.90249,0.70717 -0.34886,0.142 -1.55364,0.6711 -1.90249,0.84488 -0.35667,0.16136 -1.54583,0.74028 -1.9025,0.87661 -0.1375,0.0604 -1.76499,0.81782 -1.9025,0.78681 -0.20013,0.0727 -1.70236,0.64865 -1.9025,0.58968 -1.86069,0.43901 -0.0418,0.0103 -1.9025,0.3296 -1.90249,0.18646 -1.9025,0.0566 -1.90249,-0.0573 -1.9025,-0.15435 -1.90249,-0.23588 z"
             clip-path="url(#p9e044c3c85)"
             inkscape:connector-curvature="0" />
        </g>
        <g
           id="PathCollection_3"
           style="stroke-linecap:butt;stroke-linejoin:round">
          <path
             id="path833"
             style="fill:#f7ab82;stroke-linecap:butt;stroke-linejoin:round"
             d="m 111.51198,201.48331 1.90249,0.23588 1.9025,0.15435 1.90249,0.0573 1.9025,-0.0566 1.90249,-0.18646 1.9025,-0.3296 0.0418,-0.0103 1.86069,-0.43901 1.9025,-0.58968 1.70236,-0.64865 0.20013,-0.0727 1.9025,-0.78681 1.76499,-0.81782 0.1375,-0.0604 1.9025,-0.87661 1.54583,-0.74028 0.35667,-0.16136 1.90249,-0.84488 1.55364,-0.6711 0.34886,-0.142 1.90249,-0.70717 1.9025,-0.6417 0.66065,-0.18647 1.24184,-0.33024 1.9025,-0.40049 1.90249,-0.29072 1.9025,-0.1745 1.90249,-0.061 1.9025,0.0375 1.90249,0.10653 1.9025,0.13225 1.90249,0.10464 1.9025,0.0207 1.90249,-0.1145 1.9025,-0.28908 1.62994,-0.41845 0.27256,-0.0677 1.90249,-0.68688 1.9025,-0.9002 0.0385,-0.0225 1.86396,-1.06604 0.905,-0.6113 0.9975,-0.65808 1.35188,-1.01926 0.55061,-0.40536 1.55551,-1.27197 0.34699,-0.27728 1.61722,-1.40006 0.28527,-0.24181 1.59767,-1.43553 0.30483,-0.26907 1.53414,-1.40826 0.36835,-0.33368 1.45002,-1.34366 0.45248,-0.41601 1.35982,-1.26133 0.54267,-0.50244 1.2721,-1.1749 0.6304,-0.58477 1.1909,-1.09256 0.71159,-0.65965 1.11655,-1.01769 0.78595,-0.72783 1.04585,-0.94951 0.85664,-0.79398 0.97209,-0.88335 0.93041,-0.86665 0.8851,-0.81069 1.0174,-0.95842 0.77179,-0.71892 1.1307,-1.0864 0.61733,-0.59094 1.28517,-1.27247 0.40692,-0.40486 1.49557,-1.54349 0.12799,-0.13385 1.54634,-1.67734 0.22817,-0.25644 1.23494,-1.42089 0.66755,-0.79968 0.7127,-0.87766 1.1898,-1.52998 0.11136,-0.14736 1.22699,-1.67734 0.56414,-0.80336 0.59789,-0.87397 1.10385,-1.67734 0.20076,-0.3142 0.8557,-1.36314 1.01336,-1.67733 0.0334,-0.0567 0.95096,-1.62064 0.95154,-1.67217 0.003,-0.005 0.94115,-1.67734 0.92375,-1.67733 0.0346,-0.0644 0.88664,-1.61297 0.91541,-1.67734 0.10045,-0.18828 0.81649,-1.48905 0.91774,-1.67734 0.16826,-0.31564 0.74422,-1.3617 0.90732,-1.67733 0.25096,-0.4826 0.62887,-1.19474 0.84701,-1.67734 0.42661,-0.90573 0.36051,-0.77161 0.69854,-1.67733 0.60624,-1.67734 0.23721,-0.84098 0.22766,-0.83636 0.29945,-1.67733 0.12222,-1.67734 -0.0813,-1.67734 -0.30403,-1.67734 -0.26397,-0.83936 -0.28905,-0.83797 -0.79738,-1.67734 -0.81607,-1.39094 -0.17223,-0.2864 -1.13619,-1.67734 -0.59407,-0.81979 -0.59571,-0.85754 -1.19225,-1.67734 -0.11454,-0.15822 -1.02636,-1.519117 -0.87613,-1.295924 -0.24084,-0.381413 -1.08804,-1.677337 -0.57362,-0.855567 -0.53106,-0.821771 -1.15578,-1.677337 -0.21565,-0.293306 -1.02028,-1.384031 -0.88222,-1.088334 -0.48905,-0.589003 -1.41344,-1.5448 -0.1263,-0.132537 -1.73542,-1.677337 -0.0408,-0.03704 -1.90165,-1.640302 -8.4e-4,-6.96e-4 -1.9025,-1.509459 -0.22044,-0.167183 -1.68205,-1.268234 -0.56009,-0.409103 -1.34241,-0.998197 -0.92604,-0.67914 -0.97645,-0.741701 -1.22453,-0.935636 -0.67797,-0.541092 -1.3889,-1.136245 -0.51359,-0.43804 -1.39598,-1.239297 -0.50652,-0.462924 -1.2646,-1.214414 -0.6379,-0.617064 -1.04171,-1.060273 -0.86078,-0.858595 -0.78661,-0.818742 -1.11589,-1.106035 -0.56283,-0.571302 -1.33966,-1.262519 -0.44277,-0.414818 -1.45973,-1.246609 -0.52858,-0.430728 -1.37391,-1.011094 -1.0009,-0.666243 -0.9016,-0.542309 -1.90249,-0.976775 -0.37224,-0.158254 -1.53026,-0.595284 -1.90249,-0.5598 -1.9025,-0.388579 -1.04189,-0.133674 -0.8606,-0.105476 -1.9025,-0.112256 -1.90249,-0.0038 -1.9025,0.08922 -1.47809,0.13232 -0.4244,0.0366 -1.9025,0.233299 -1.9025,0.293147 -1.90249,0.348672 -1.9025,0.402445 -1.51933,0.36317 -0.38316,0.08963 -1.9025,0.489123 -1.90249,0.54241 -1.76555,0.556176 -0.13695,0.04244 -1.90249,0.632215 -1.9025,0.694246 -0.78451,0.308434 -1.11798,0.432351 -1.9025,0.792301 -1.01341,0.452685 -0.88908,0.390432 -1.9025,0.888644 -0.80505,0.398261 -1.09744,0.533377 -1.9025,0.977057 -0.31201,0.166903 -1.59048,0.836257 -1.52467,0.84108 -0.37783,0.205548 -1.9025,1.068455 -0.6943,0.403334 -1.20819,0.694545 -1.65136,0.982793 -0.25114,0.148667 -1.90249,1.150526 -0.60974,0.378144 -1.29276,0.80214 -1.37398,0.875197 -0.52851,0.338922 -1.9025,1.245236 -0.14088,0.09318 -1.76161,1.181105 -0.72772,0.496232 -1.17478,0.817295 -1.22099,0.860042 -0.6815,0.492888 -1.62588,1.18445 -0.27662,0.208223 -1.90249,1.432841 -0.0486,0.03627 -1.8539,1.43876 -0.30983,0.238577 -1.59266,1.283118 -0.49559,0.394219 -1.40691,1.178564 -0.60526,0.498773 -1.29723,1.133654 -0.63369,0.543683 -1.26881,1.163305 -0.571,0.514032 -1.3315,1.291724 -0.403899,0.385614 -1.498591,1.556123 -0.118126,0.121214 -1.500903,1.677337 -0.283467,0.348454 -1.088253,1.328887 -0.814242,1.10698 -0.420107,0.57036 -1.115665,1.67733 -0.366723,0.60868 -0.642351,1.06866 -0.91076,1.67734 -0.349384,0.69882 -0.487449,0.97852 -0.775946,1.67733 -0.639101,1.47489 -0.08752,0.20245 -0.707201,1.67734 -0.684395,1.67734 -0.42338,1.04316 -0.257411,0.63417 -0.691066,1.67734 -0.694697,1.67734 -0.259321,0.60671 -0.458742,1.07062 -0.736059,1.67734 -0.707695,1.59338 -0.03754,0.084 -0.780747,1.67734 -0.781585,1.67733 -0.302622,0.63796 -0.498612,1.03938 -0.806027,1.67734 -0.597856,1.25511 -0.204659,0.42222 -0.812394,1.67734 -0.788486,1.67734 -0.09696,0.209 -0.697823,1.46833 -0.766397,1.67734 -0.438275,0.99598 -0.308771,0.68136 -0.727676,1.67734 -0.688041,1.67733 -0.178007,0.45937 -0.487469,1.21797 -0.624944,1.67734 -0.577511,1.67733 -0.212571,0.68019 -0.321556,0.99715 -0.477596,1.67734 -0.409488,1.67734 -0.33157,1.67733 -0.23951,1.67734 -0.122776,1.60404 -0.0058,0.0733 0.0058,1.67733 0.167827,1.67734 0.359813,1.67734 0.581461,1.67734 0.793395,1.61004 0.03562,0.0673 1.103036,1.67734 0.763835,0.96484 0.586862,0.7125 1.315633,1.42774 0.23175,0.24959 1.653156,1.67734 0.01759,0.0173 1.640136,1.66002 0.26236,0.26416 1.349098,1.41318 0.553397,0.58641 0.987799,1.09092 0.914696,1.03023 0.55433,0.64711 1.348166,1.60722 0.05735,0.0701 1.339108,1.67733 0.506036,0.6428 0.81124,1.03454 1.091255,1.38434 0.235328,0.293 1.376951,1.67734 0.290217,0.33971 1.215791,1.33762 0.686704,0.7006 1.057653,0.97674 0.844842,0.71065 1.321937,0.96669 0.580558,0.38545 1.902496,1.07347 0.458247,0.21841 1.44424,0.63967 1.9025,0.69897 1.09419,0.3387 0.80831,0.24212 1.90249,0.49354 1.9025,0.42113 1.90249,0.35695 1.05752,0.1636 z m -3.53255,-10.1995 -0.27244,-0.0889 -1.9025,-0.76963 -1.62561,-0.81883 -0.27688,-0.14938 -1.9025,-1.20947 -0.43281,-0.31849 -1.46969,-1.15636 -0.590068,-0.52098 -1.312422,-1.22265 -0.449809,-0.45468 -1.452687,-1.52383 -0.138756,-0.15351 -1.489806,-1.67734 -0.273933,-0.31388 -1.162073,-1.36345 -0.740422,-0.88224 -0.663078,-0.7951 -1.239417,-1.51048 -0.138112,-0.16686 -1.36388,-1.67734 -0.400504,-0.50776 -0.944001,-1.16957 -0.958494,-1.23932 -0.34914,-0.43802 -1.261279,-1.67734 -0.292076,-0.41995 -0.895656,-1.25738 -1.00684,-1.5936 -0.05339,-0.0837 -0.919081,-1.67734 -0.731203,-1.67734 -0.198823,-0.60044 -0.345221,-1.07689 -0.359773,-1.67734 -0.190961,-1.67734 -0.04224,-1.67733 0.08672,-1.67734 0.198118,-1.67734 0.295149,-1.67734 0.358205,-1.57312 0.02298,-0.10421 0.456569,-1.67734 0.525953,-1.67734 0.591227,-1.67733 0.305766,-0.781 0.343992,-0.89634 0.702964,-1.67734 0.757217,-1.67734 0.09832,-0.20503 0.699938,-1.4723 0.842305,-1.67734 0.360252,-0.6892 0.51625,-0.98814 0.906281,-1.67733 0.479964,-0.86859 0.449849,-0.80875 0.945344,-1.67734 0.507303,-0.8955 0.448098,-0.78183 0.957039,-1.67734 0.497358,-0.8809 0.45605,-0.79644 0.943224,-1.67734 0.503221,-0.9133 0.426744,-0.76403 0.913247,-1.67734 0.562504,-1.05299 0.337002,-0.62435 0.884961,-1.67733 0.680533,-1.29366 0.202836,-0.38368 0.881073,-1.67734 0.818579,-1.52009 0.0846,-0.15725 0.92121,-1.67733 0.89674,-1.54724 0.0748,-0.1301 1.01428,-1.67734 0.81342,-1.25041 0.27409,-0.42693 1.15665,-1.67733 0.47175,-0.6323 0.76743,-1.04504 1.13507,-1.426321 0.19687,-0.251016 1.41836,-1.677337 0.28726,-0.315336 1.22538,-1.362001 0.67712,-0.700714 0.93613,-0.976624 0.96636,-0.943352 0.74958,-0.733985 1.15292,-1.061948 0.66949,-0.615389 1.233,-1.071954 0.70122,-0.605383 1.20128,-0.986487 0.85091,-0.69085 1.05158,-0.816843 1.12473,-0.860494 0.77777,-0.572715 1.52794,-1.104622 0.37455,-0.26221 1.9025,-1.305351 0.16313,-0.109777 1.73936,-1.139514 0.84086,-0.537823 1.06164,-0.665084 1.65903,-1.012253 0.24346,-0.146372 1.9025,-1.116061 0.72752,-0.414904 1.17498,-0.663184 1.85858,-1.014153 0.0439,-0.02384 1.9025,-1.003129 1.28399,-0.65037 0.6185,-0.312635 1.9025,-0.924264 0.94805,-0.440439 0.95444,-0.443387 1.9025,-0.840085 0.94169,-0.393865 0.9608,-0.402297 1.9025,-0.748246 1.43778,-0.526794 0.46471,-0.170574 1.9025,-0.645937 1.90249,-0.587304 0.98728,-0.273522 0.91522,-0.254229 1.90249,-0.460466 1.9025,-0.387681 1.90249,-0.307977 1.9025,-0.217798 0.84482,-0.04919 1.05768,-0.06207 1.90249,0.0109 0.6583,0.05117 1.2442,0.105353 1.90249,0.333382 1.9025,0.538393 1.73347,0.700209 0.16902,0.07756 1.9025,1.100283 0.71223,0.499492 1.19026,0.949338 0.80899,0.727999 1.09351,1.097949 0.54225,0.579388 1.36024,1.564547 0.0964,0.112791 1.39802,1.677337 0.40803,0.489653 1.02001,1.187684 0.88248,0.990116 0.64507,0.687221 1.25743,1.262413 0.44008,0.414924 1.46241,1.291742 0.46457,0.385595 1.43793,1.126584 0.73862,0.550754 1.16387,0.833529 1.2093,0.843808 0.6932,0.475986 1.74288,1.201351 0.15962,0.111478 1.90249,1.369802 0.26059,0.196057 1.64191,1.308421 0.43544,0.368916 1.46705,1.363186 0.31693,0.314151 1.49504,1.677337 0.0905,0.117231 1.14516,1.560107 0.75733,1.234875 0.26397,0.442462 0.841,1.677337 0.68663,1.677335 0.1109,0.33291 0.46135,1.34443 0.46954,1.67733 0.3805,1.67734 0.30635,1.67734 0.24533,1.67734 0.0394,0.34196 0.17137,1.33537 0.17268,1.67734 0.13759,1.67734 0.1062,1.67734 0.0751,1.67733 0.0408,1.67734 7e-5,1.67734 -0.0491,1.67733 -0.10748,1.67734 -0.1744,1.67734 -0.2484,1.67734 -0.12442,0.62314 -0.19513,1.05419 -0.39891,1.67734 -0.48749,1.67734 -0.57793,1.67733 -0.24303,0.60436 -0.41849,1.07298 -0.75337,1.67734 -0.73064,1.44098 -0.11893,0.23635 -0.94133,1.67734 -0.84223,1.35904 -0.19944,0.3183 -1.13848,1.67734 -0.56458,0.77562 -0.6709,0.90171 -1.23159,1.55674 -0.0975,0.1206 -1.40999,1.67734 -0.39497,0.4542 -1.08225,1.22313 -0.82024,0.90407 -0.70736,0.77327 -1.19514,1.28514 -0.36389,0.3922 -1.53861,1.63962 -0.035,0.0377 -1.5644,1.67733 -0.30313,0.32077 -1.25587,1.35657 -0.64663,0.68635 -0.91246,0.99099 -0.99003,1.05073 -0.57816,0.6266 -1.32434,1.39457 -0.26457,0.28277 -1.62238,1.67734 -0.0155,0.0156 -1.65218,1.66173 -0.25032,0.24368 -1.49056,1.43365 -0.41193,0.3845 -1.42535,1.29284 -0.47715,0.42206 -1.48898,1.25528 -0.41351,0.34222 -1.73081,1.33511 -0.17169,0.13104 -1.90249,1.32828 -0.34981,0.21802 -1.55269,0.96482 -1.33276,0.71252 -0.56973,0.30652 -1.9025,0.87078 -1.33667,0.50004 -0.56582,0.21501 -1.9025,0.59589 -1.9025,0.47212 -1.90249,0.3794 -0.0848,0.0149 -1.81769,0.32819 -1.90249,0.30727 -1.9025,0.29523 -1.90249,0.30324 -1.9025,0.32625 -0.6023,0.11716 -1.30019,0.26263 -1.9025,0.42969 -1.90249,0.47169 -1.9025,0.51333 -1.90249,0.59359 -1.9025,0.62511 -1.33504,0.45863 -0.56745,0.20582 -1.9025,0.71216 -1.90249,0.71492 -0.1192,0.0444 -1.7833,0.70516 -1.9025,0.72498 -0.6874,0.2472 -1.21509,0.46329 -1.9025,0.66246 -1.789,0.55159 -0.11349,0.037 -1.9025,0.52065 -1.90249,0.41308 -1.9025,0.29911 -1.90249,0.18091 -1.9025,0.0603 -1.90249,-0.0616 -1.9025,-0.18514 -1.90249,-0.3123 -1.9025,-0.44663 z"
             clip-path="url(#p9e044c3c85)"
             inkscape:connector-curvature="0" />
        </g>
        <g
           id="PathCollection_4"
           style="stroke-linecap:butt;stroke-linejoin:round">
          <path
             id="path836"
             style="fill:#f09582;stroke-linecap:butt;stroke-linejoin:round"
             d="m 109.60948,191.78923 1.9025,0.44663 1.90249,0.3123 1.9025,0.18514 1.90249,0.0616 1.9025,-0.0603 1.90249,-0.18091 1.9025,-0.29911 1.90249,-0.41308 1.9025,-0.52065 0.11349,-0.037 1.789,-0.55159 1.9025,-0.66246 1.21509,-0.46329 0.6874,-0.2472 1.9025,-0.72498 1.7833,-0.70516 0.1192,-0.0444 1.90249,-0.71492 1.9025,-0.71216 0.56745,-0.20582 1.33504,-0.45863 1.9025,-0.62511 1.90249,-0.59359 1.9025,-0.51333 1.90249,-0.47169 1.9025,-0.42969 1.30019,-0.26263 0.6023,-0.11716 1.9025,-0.32625 1.90249,-0.30324 1.9025,-0.29523 1.90249,-0.30727 1.81769,-0.32819 0.0848,-0.0149 1.90249,-0.3794 1.9025,-0.47212 1.9025,-0.59589 0.56582,-0.21501 1.33667,-0.50004 1.9025,-0.87078 0.56973,-0.30652 1.33276,-0.71252 1.55269,-0.96482 0.34981,-0.21802 1.90249,-1.32828 0.17169,-0.13104 1.73081,-1.33511 0.41351,-0.34222 1.48898,-1.25528 0.47715,-0.42206 1.42535,-1.29284 0.41193,-0.3845 1.49056,-1.43365 0.25032,-0.24368 1.65218,-1.66173 0.0155,-0.0156 1.62238,-1.67734 0.26457,-0.28277 1.32434,-1.39457 0.57816,-0.6266 0.99003,-1.05073 0.91246,-0.99099 0.64663,-0.68635 1.25587,-1.35657 0.30313,-0.32077 1.5644,-1.67733 0.035,-0.0377 1.53861,-1.63962 0.36389,-0.3922 1.19514,-1.28514 0.70736,-0.77327 0.82024,-0.90407 1.08225,-1.22313 0.39497,-0.4542 1.40999,-1.67734 0.0975,-0.1206 1.23159,-1.55674 0.6709,-0.90171 0.56458,-0.77562 1.13848,-1.67734 0.19944,-0.3183 0.84223,-1.35904 0.94133,-1.67734 0.11893,-0.23635 0.73064,-1.44098 0.75337,-1.67734 0.41849,-1.07298 0.24303,-0.60436 0.57793,-1.67733 0.48749,-1.67734 0.39891,-1.67734 0.19513,-1.05419 0.12442,-0.62314 0.2484,-1.67734 0.1744,-1.67734 0.10748,-1.67734 0.0491,-1.67733 -7e-5,-1.67734 -0.0408,-1.67734 -0.0751,-1.67733 -0.1062,-1.67734 -0.13759,-1.67734 -0.17268,-1.67734 -0.17137,-1.33537 -0.0394,-0.34196 -0.24533,-1.67734 -0.30635,-1.67734 -0.3805,-1.67734 -0.46954,-1.67733 -0.46135,-1.34443 -0.1109,-0.33291 -0.68663,-1.677337 -0.841,-1.677337 -0.26397,-0.442462 -0.75733,-1.234875 -1.14516,-1.560107 -0.0905,-0.117231 -1.49504,-1.677337 -0.31693,-0.314151 -1.46705,-1.363186 -0.43544,-0.368916 -1.64191,-1.308421 -0.26059,-0.196057 -1.90249,-1.369802 -0.15962,-0.111478 -1.74288,-1.201351 -0.6932,-0.475986 -1.2093,-0.843808 -1.16387,-0.833529 -0.73862,-0.550754 -1.43793,-1.126584 -0.46457,-0.385595 -1.46241,-1.291742 -0.44008,-0.414924 -1.25743,-1.262413 -0.64507,-0.687221 -0.88248,-0.990116 -1.02001,-1.187684 -0.40803,-0.489653 -1.39802,-1.677337 -0.0964,-0.112791 -1.36024,-1.564547 -0.54225,-0.579388 -1.09351,-1.097949 -0.80899,-0.727999 -1.19026,-0.949338 -0.71223,-0.499492 -1.9025,-1.100283 -0.16902,-0.07756 -1.73347,-0.700209 -1.9025,-0.538393 -1.90249,-0.333382 -1.2442,-0.105353 -0.6583,-0.05117 -1.90249,-0.0109 -1.05768,0.06207 -0.84482,0.04919 -1.9025,0.217798 -1.90249,0.307977 -1.9025,0.387681 -1.90249,0.460466 -0.91522,0.254229 -0.98728,0.273522 -1.90249,0.587304 -1.9025,0.645937 -0.46471,0.170574 -1.43778,0.526794 -1.9025,0.748246 -0.9608,0.402297 -0.94169,0.393865 -1.9025,0.840085 -0.95444,0.443387 -0.94805,0.440439 -1.9025,0.924264 -0.6185,0.312635 -1.28399,0.65037 -1.9025,1.003129 -0.0439,0.02384 -1.85858,1.014153 -1.17498,0.663184 -0.72752,0.414904 -1.9025,1.116061 -0.24346,0.146372 -1.65903,1.012253 -1.06164,0.665084 -0.84086,0.537823 -1.73936,1.139514 -0.16313,0.109777 -1.9025,1.305351 -0.37455,0.26221 -1.52794,1.104622 -0.77777,0.572715 -1.12473,0.860494 -1.05158,0.816843 -0.85091,0.69085 -1.20128,0.986487 -0.70122,0.605383 -1.233,1.071954 -0.66949,0.615389 -1.15292,1.061948 -0.74958,0.733985 -0.96636,0.943352 -0.93613,0.976624 -0.67712,0.700714 -1.22538,1.362001 -0.28726,0.315336 -1.41836,1.677337 -0.19687,0.251016 -1.13507,1.426323 -0.76743,1.04504 -0.47175,0.6323 -1.15665,1.67733 -0.27409,0.42693 -0.81342,1.25041 -1.01428,1.67734 -0.0748,0.1301 -0.89674,1.54724 -0.92121,1.67733 -0.0846,0.15725 -0.818581,1.52009 -0.881073,1.67734 -0.202836,0.38368 -0.680533,1.29366 -0.884961,1.67733 -0.337002,0.62435 -0.562504,1.05299 -0.913247,1.67734 -0.426744,0.76403 -0.503221,0.9133 -0.943224,1.67734 -0.45605,0.79644 -0.497358,0.8809 -0.957039,1.67734 -0.448098,0.78183 -0.507303,0.8955 -0.945344,1.67734 -0.449849,0.80875 -0.479964,0.86859 -0.906281,1.67733 -0.51625,0.98814 -0.360252,0.6892 -0.842305,1.67734 -0.699938,1.4723 -0.09832,0.20503 -0.757217,1.67734 -0.702964,1.67734 -0.343992,0.89634 -0.305766,0.781 -0.591227,1.67733 -0.525953,1.67734 -0.456569,1.67734 -0.02298,0.10421 -0.358205,1.57312 -0.295149,1.67734 -0.198118,1.67734 -0.08672,1.67734 0.04224,1.67733 0.190961,1.67734 0.359773,1.67734 0.345221,1.07689 0.198823,0.60044 0.731203,1.67734 0.919081,1.67734 0.05339,0.0837 1.00684,1.5936 0.895656,1.25738 0.292076,0.41995 1.261279,1.67734 0.34914,0.43802 0.958494,1.23932 0.944001,1.16957 0.400504,0.50776 1.36388,1.67734 0.138112,0.16686 1.239417,1.51048 0.663078,0.7951 0.740422,0.88224 1.162073,1.36345 0.273933,0.31388 1.489806,1.67734 0.138756,0.15351 1.452687,1.52383 0.449809,0.45468 1.312422,1.22265 0.59007,0.52098 1.46969,1.15636 0.43281,0.31849 1.9025,1.20947 0.27688,0.14938 1.62561,0.81883 1.9025,0.76963 0.27244,0.0889 z m 7.58082,-7.21477 -1.87333,-0.32975 -1.9025,-0.50616 -1.90249,-0.69181 -0.33187,-0.14962 -1.57063,-0.75652 -1.57126,-0.92082 -0.33123,-0.20679 -1.9025,-1.36665 -0.12913,-0.10389 -1.77336,-1.50062 -0.19116,-0.17672 -1.71134,-1.65251 -0.0241,-0.0248 -1.56832,-1.67734 -0.3101,-0.34701 -1.137194,-1.33032 -0.765296,-0.94222 -0.578951,-0.73512 -1.245692,-1.67734 -0.07785,-0.11161 -1.074595,-1.56572 -0.8279,-1.30942 -0.231715,-0.36792 -0.969172,-1.67734 -0.701608,-1.35763 -0.165845,-0.31971 -0.769257,-1.67733 -0.649893,-1.67734 -0.3175,-1.00292 -0.212424,-0.67442 -0.405153,-1.67733 -0.273121,-1.67734 -0.143319,-1.67734 -0.01752,-1.67734 0.103142,-1.67733 0.21814,-1.67734 0.327411,-1.67734 0.402845,-1.56496 0.02816,-0.11237 0.526343,-1.67734 0.619436,-1.67734 0.707522,-1.67734 0.02104,-0.0446 0.762346,-1.63271 0.859958,-1.67734 0.280191,-0.5083 0.642827,-1.16904 0.983137,-1.67733 0.276531,-0.45223 0.751619,-1.22511 1.071452,-1.67734 0.07943,-0.12278 1.012982,-1.55455 0.889503,-1.33995 0.22574,-0.33739 1.11694,-1.67734 0.55982,-0.84612 0.5551,-0.83122 1.1041,-1.67733 0.24331,-0.38019 0.83778,-1.29715 1.06471,-1.67734 1.03318,-1.67733 0.86932,-1.43341 0.14933,-0.24393 0.99881,-1.67734 0.75435,-1.27275 0.24186,-0.40459 0.99857,-1.67733 0.66207,-1.0931 0.35665,-0.58424 1.04999,-1.67734 0.49585,-0.76046 0.6024,-0.91688 1.15859,-1.67733 0.14151,-0.19334 1.09484,-1.484 0.80765,-1.027577 0.51614,-0.64976 1.38636,-1.635443 0.036,-0.04189 1.53767,-1.677337 0.32886,-0.335967 1.33011,-1.341371 0.57239,-0.54177 1.21647,-1.135567 0.68602,-0.60272 1.24081,-1.074617 0.66169,-0.541188 1.40983,-1.136149 0.49265,-0.37643 1.72935,-1.300907 0.17315,-0.124071 1.90249,-1.341021 0.30615,-0.212245 1.59636,-1.058041 0.95337,-0.619296 0.94913,-0.592942 1.77814,-1.084396 0.12435,-0.0734 1.9025,-1.094687 0.9144,-0.509252 0.98809,-0.536091 1.9025,-0.99365 0.2951,-0.147596 1.60739,-0.789025 1.9025,-0.886654 0.004,-0.0017 1.8987,-0.822075 1.90251,-0.768511 0.2351,-0.08675 1.66739,-0.611757 1.9025,-0.63001 1.49533,-0.43557 0.40716,-0.118365 1.9025,-0.458805 1.90249,-0.360921 1.9025,-0.24684 1.90249,-0.110898 1.9025,0.05313 1.9025,0.251291 1.90249,0.488204 1.28026,0.503203 0.62224,0.280259 1.90249,1.151632 0.3279,0.245446 1.5746,1.325426 0.36369,0.351911 1.5388,1.614311 0.0558,0.06303 1.43982,1.677337 0.40691,0.479023 1.00923,1.198314 0.89326,1.032808 0.57199,0.64453 1.33051,1.428805 0.24341,0.248532 1.65908,1.606168 0.0784,0.07117 1.82406,1.582054 0.11748,0.09528 1.78501,1.408415 0.36031,0.268922 1.54219,1.147247 0.73456,0.53009 1.16793,0.864979 1.09208,0.812358 0.81042,0.639902 1.26152,1.037436 0.64097,0.581386 1.1274,1.095951 0.7751,0.867969 0.66452,0.809368 1.14239,1.677335 0.0956,0.17117 0.77544,1.50617 0.66909,1.67733 0.45796,1.52128 0.0445,0.15606 0.36719,1.67734 0.26876,1.67734 0.1948,1.67733 0.14179,1.67734 0.10577,1.67734 0.0826,1.67734 0.0678,1.67733 0.0568,1.67734 0.045,1.67734 0.0277,1.67733 5.7e-4,1.67734 -0.0402,1.67734 -0.0976,1.67734 -0.17341,1.67733 -0.26812,1.67734 -0.38087,1.67734 -0.443,1.46115 -0.0642,0.21618 -0.63048,1.67734 -0.78169,1.67734 -0.42614,0.7723 -0.49851,0.90503 -1.07027,1.67734 -0.33372,0.46757 -0.86622,1.20977 -1.03628,1.31265 -0.28807,0.36469 -1.41557,1.67733 -0.19885,0.22532 -1.27332,1.45202 -0.62918,0.69498 -0.87787,0.98236 -1.02462,1.12771 -0.4904,0.54962 -1.4121,1.57209 -0.0926,0.10525 -1.4717,1.67734 -0.33817,0.38449 -1.11549,1.29285 -0.78701,0.90329 -0.66573,0.77404 -1.23676,1.41055 -0.23318,0.26679 -1.5062,1.67734 -0.16312,0.17591 -1.41248,1.50142 -0.49001,0.49765 -1.19785,1.17969 -0.70465,0.65974 -1.14162,1.0176 -0.76087,0.64404 -1.30843,1.0333 -0.59407,0.44666 -1.79324,1.23067 -0.10925,0.0718 -1.9025,1.14128 -0.87329,0.46426 -1.0292,0.52804 -1.9025,0.85927 -0.72126,0.29003 -1.18124,0.46333 -1.90249,0.66263 -1.77955,0.55137 -0.12295,0.0376 -1.90249,0.55236 -1.9025,0.5148 -1.90249,0.49439 -0.297,0.0782 -1.6055,0.42369 -1.90249,0.50486 -1.9025,0.51275 -0.8461,0.23604 -1.05639,0.29959 -1.9025,0.55581 -1.90249,0.56753 -0.83685,0.25441 -1.06565,0.33376 -1.90249,0.59922 -1.9025,0.59674 -0.48254,0.14761 -1.41995,0.45276 -1.9025,0.58285 -1.9025,0.55214 -0.34119,0.0896 -1.5613,0.43035 -1.9025,0.46311 -1.90249,0.39165 -1.9025,0.30683 -0.8001,0.0854 -1.10239,0.1231 -1.9025,0.0935 -1.90249,-0.0352 -1.9025,-0.17647 z"
             clip-path="url(#p9e044c3c85)"
             inkscape:connector-curvature="0" />
        </g>
        <g
           id="PathCollection_5"
           style="stroke-linecap:butt;stroke-linejoin:round">
          <path
             id="path839"
             style="fill:#e38389;stroke-linecap:butt;stroke-linejoin:round"
             d="m 117.21946,184.57931 1.9025,0.17647 1.90249,0.0352 1.9025,-0.0935 1.10239,-0.1231 0.8001,-0.0854 1.9025,-0.30683 1.90249,-0.39165 1.9025,-0.46311 1.5613,-0.43035 0.34119,-0.0896 1.9025,-0.55214 1.9025,-0.58285 1.41995,-0.45276 0.48254,-0.14761 1.9025,-0.59674 1.90249,-0.59922 1.06565,-0.33376 0.83685,-0.25441 1.90249,-0.56753 1.9025,-0.55581 1.05639,-0.29959 0.8461,-0.23604 1.9025,-0.51275 1.90249,-0.50486 1.6055,-0.42369 0.297,-0.0782 1.90249,-0.49439 1.9025,-0.5148 1.90249,-0.55236 0.12295,-0.0376 1.77955,-0.55137 1.90249,-0.66263 1.18124,-0.46333 0.72126,-0.29003 1.9025,-0.85927 1.0292,-0.52804 0.87329,-0.46426 1.9025,-1.14128 0.10925,-0.0718 1.79324,-1.23067 0.59407,-0.44666 1.30843,-1.0333 0.76087,-0.64404 1.14162,-1.0176 0.70465,-0.65974 1.19785,-1.17969 0.49001,-0.49765 1.41248,-1.50142 0.16312,-0.17591 1.5062,-1.67734 0.23318,-0.26679 1.23676,-1.41055 0.66573,-0.77404 0.78701,-0.90329 1.11549,-1.29285 0.33817,-0.38449 1.4717,-1.67734 0.0926,-0.10525 1.4121,-1.57209 0.4904,-0.54962 1.02462,-1.12771 0.87787,-0.98236 0.62918,-0.69498 1.27332,-1.45202 0.19885,-0.22532 1.41557,-1.67733 0.28807,-0.36469 1.03628,-1.31265 0.86622,-1.20977 0.33372,-0.46757 1.07027,-1.67734 0.49851,-0.90503 0.42614,-0.7723 0.78169,-1.67734 0.63048,-1.67734 0.0642,-0.21618 0.443,-1.46115 0.38087,-1.67734 0.26812,-1.67734 0.17341,-1.67733 0.0976,-1.67734 0.0402,-1.67734 -5.7e-4,-1.67734 -0.0277,-1.67733 -0.045,-1.67734 -0.0568,-1.67734 -0.0678,-1.67733 -0.0826,-1.67734 -0.10577,-1.67734 -0.14179,-1.67734 -0.1948,-1.67733 -0.26876,-1.67734 -0.36719,-1.67734 -0.0445,-0.15606 -0.45796,-1.52128 -0.66909,-1.67733 -0.77544,-1.50617 -0.0956,-0.17117 -1.14239,-1.677337 -0.66452,-0.809368 -0.7751,-0.867969 -1.1274,-1.095951 -0.64097,-0.581386 -1.26152,-1.037436 -0.81042,-0.639902 -1.09208,-0.812358 -1.16793,-0.864979 -0.73456,-0.53009 -1.54219,-1.147247 -0.36031,-0.268922 -1.78501,-1.408415 -0.11748,-0.09528 -1.82406,-1.582054 -0.0784,-0.07117 -1.65908,-1.606168 -0.24341,-0.248532 -1.33051,-1.428805 -0.57199,-0.64453 -0.89326,-1.032808 -1.00923,-1.198314 -0.40691,-0.479023 -1.43982,-1.677337 -0.0558,-0.06303 -1.5388,-1.614311 -0.36369,-0.351911 -1.5746,-1.325426 -0.3279,-0.245446 -1.90249,-1.151632 -0.62224,-0.280259 -1.28026,-0.503203 -1.90249,-0.488204 -1.9025,-0.251291 -1.9025,-0.05313 -1.90249,0.110898 -1.9025,0.24684 -1.90249,0.360921 -1.9025,0.458805 -0.40716,0.118365 -1.49533,0.43557 -1.9025,0.63001 -1.66738,0.611757 -0.23511,0.08675 -1.9025,0.768511 -1.89871,0.822075 -0.004,0.0017 -1.9025,0.886654 -1.60739,0.789025 -0.2951,0.147596 -1.9025,0.99365 -0.98809,0.536091 -0.9144,0.509252 -1.9025,1.094687 -0.12435,0.0734 -1.77814,1.084396 -0.94913,0.592942 -0.95337,0.619296 -1.59635,1.058041 -0.30615,0.212245 -1.90249,1.341021 -0.17316,0.124071 -1.72934,1.300907 -0.49265,0.37643 -1.40984,1.136149 -0.66169,0.541188 -1.24081,1.074617 -0.68602,0.60272 -1.21647,1.135567 -0.57239,0.54177 -1.33011,1.341371 -0.32886,0.335967 -1.53767,1.677337 -0.036,0.04189 -1.38636,1.635443 -0.51614,0.64976 -0.80765,1.027579 -1.09484,1.484 -0.14151,0.19334 -1.15859,1.67733 -0.6024,0.91688 -0.49585,0.76046 -1.04999,1.67734 -0.35665,0.58424 -0.66207,1.0931 -0.99857,1.67733 -0.24186,0.40459 -0.75435,1.27275 -0.9988,1.67734 -0.14934,0.24393 -0.86932,1.43341 -1.03318,1.67733 -1.0647,1.67734 -0.83779,1.29715 -0.24331,0.38019 -1.1041,1.67733 -0.55509,0.83122 -0.55982,0.84612 -1.11694,1.67734 -0.22574,0.33739 -0.889508,1.33995 -1.012982,1.55455 -0.07943,0.12278 -1.071452,1.67734 -0.751619,1.22511 -0.276531,0.45223 -0.983137,1.67733 -0.642827,1.16904 -0.280191,0.5083 -0.859958,1.67734 -0.762346,1.63271 -0.02104,0.0446 -0.707522,1.67734 -0.619436,1.67734 -0.526343,1.67734 -0.02816,0.11237 -0.402845,1.56496 -0.327411,1.67734 -0.21814,1.67734 -0.103142,1.67733 0.01752,1.67734 0.143319,1.67734 0.273121,1.67734 0.405153,1.67733 0.212424,0.67442 0.3175,1.00292 0.649893,1.67734 0.769257,1.67733 0.165845,0.31971 0.701608,1.35763 0.969172,1.67734 0.231715,0.36792 0.8279,1.30942 1.074595,1.56572 0.07785,0.11161 1.245692,1.67734 0.578951,0.73512 0.765296,0.94222 1.137189,1.33032 0.3101,0.34701 1.56832,1.67734 0.0241,0.0248 1.71134,1.65251 0.19116,0.17672 1.77336,1.50062 0.12913,0.10389 1.9025,1.36665 0.33123,0.20679 1.57126,0.92082 1.57063,0.75652 0.33187,0.14962 1.90249,0.69181 1.9025,0.50616 1.87333,0.32975 z m -0.0238,-8.39154 -1.87872,-0.82468 -1.57946,-0.85266 -0.32304,-0.18765 -1.90249,-1.26976 -0.29322,-0.21992 -1.60928,-1.28195 -0.45123,-0.39539 -1.45126,-1.34636 -0.32962,-0.33098 -1.57288,-1.67733 -1.38555,-1.67734 -0.51694,-0.67613 -0.72153,-1.00121 -1.10264,-1.67734 -0.0783,-0.13005 -0.88947,-1.54728 -0.84942,-1.67734 -0.16361,-0.36622 -0.568071,-1.31112 -0.614569,-1.67733 -0.494219,-1.67734 -0.225631,-1.00868 -0.147426,-0.66866 -0.249105,-1.67734 -0.119224,-1.67733 0.01211,-1.67734 0.1436,-1.67734 0.274014,-1.67733 0.08603,-0.35502 0.310031,-1.32232 0.517193,-1.67734 0.636274,-1.67734 0.438993,-0.98133 0.30538,-0.696 0.84239,-1.67734 0.75473,-1.34526 0.18455,-0.33208 1.01559,-1.67733 0.70236,-1.07994 0.38881,-0.5974 1.1497,-1.67734 0.36398,-0.51371 0.833,-1.16362 1.0695,-1.45501 0.16632,-0.22233 1.25705,-1.67734 0.47912,-0.64219 0.79232,-1.03515 1.11018,-1.46972 0.1621,-0.20761 1.26588,-1.67734 0.47451,-0.65041 0.77757,-1.02693 1.12493,-1.54399 0.10134,-0.13334 1.21092,-1.67734 0.59023,-0.85127 0.59607,-0.82607 1.16386,-1.67734 0.14257,-0.21142 1.02278,-1.46591 0.87971,-1.28235 0.2795,-0.39499 1.18137,-1.67734 0.44163,-0.61821 0.77318,-1.05913 1.12931,-1.50664 0.12997,-0.17069 1.3323,-1.67734 0.44023,-0.52574 0.97327,-1.151597 0.92922,-1.034588 0.58067,-0.642749 1.32183,-1.367766 0.30055,-0.309571 1.60194,-1.536318 0.14795,-0.14102 1.75455,-1.555382 0.13902,-0.121955 1.76348,-1.441091 0.29417,-0.236246 1.60832,-1.208281 0.64094,-0.469056 1.26156,-0.869127 1.21633,-0.80821 0.68616,-0.432594 1.9025,-1.144726 0.17695,-0.100017 1.72554,-0.936282 1.46932,-0.741055 0.43318,-0.211783 1.90249,-0.845884 1.55758,-0.619671 0.34492,-0.134819 1.90249,-0.634912 1.9025,-0.525414 1.82895,-0.382192 0.0735,-0.01535 1.9025,-0.235464 1.90249,-0.06169 1.9025,0.146142 0.83546,0.166364 1.06703,0.239655 1.9025,0.718951 1.3203,0.718731 0.5822,0.353227 1.73404,1.324111 0.16845,0.139691 1.61851,1.537646 0.28399,0.283402 1.30038,1.393935 0.60211,0.656213 0.91429,1.021124 0.98821,1.094752 0.53136,0.582585 1.37113,1.471478 0.19863,0.205859 1.65569,1.677337 0.0482,0.04802 1.71487,1.629321 0.18762,0.176679 1.66792,1.500658 0.23458,0.212619 1.66662,1.464718 0.23587,0.213416 1.6257,1.463926 0.2768,0.26361 1.44312,1.41373 0.45937,0.49175 1.04223,1.18558 0.86027,1.11261 0.40105,0.56473 1.02656,1.67734 0.47488,0.92325 0.35226,0.75409 0.65758,1.67733 0.53135,1.67734 0.36131,1.40682 0.0646,0.27052 0.33578,1.67734 0.26763,1.67733 0.20739,1.67734 0.15069,1.67734 0.0933,1.67733 0.0314,1.67734 -0.039,1.67734 -0.12094,1.67734 -0.21714,1.67733 -0.32929,1.67734 -0.44442,1.62833 -0.0133,0.049 -0.58782,1.67733 -0.73924,1.67734 -0.56214,1.05773 -0.32915,0.61961 -1.03373,1.67733 -0.53961,0.774 -0.62833,0.90334 -1.27417,1.66218 -0.0116,0.0152 -1.35881,1.67734 -0.53211,0.62549 -0.88578,1.05184 -1.01672,1.17318 -0.43224,0.50416 -1.45799,1.67734 -0.0123,0.0141 -1.43346,1.66325 -0.46904,0.54278 -0.97642,1.13456 -0.92607,1.07059 -0.52721,0.60675 -1.37529,1.56243 -0.10271,0.11491 -1.52948,1.67733 -0.2703,0.28717 -1.35222,1.39017 -0.55028,0.54061 -1.21364,1.13673 -0.68885,0.61094 -1.28085,1.06639 -0.62165,0.48756 -1.64102,1.18978 -0.26147,0.17843 -1.9025,1.19613 -0.52666,0.30278 -1.37584,0.74686 -1.90249,0.93023 -5.4e-4,2.5e-4 -1.90196,0.82466 -1.90249,0.75004 -0.27479,0.10263 -1.62771,0.58483 -1.90249,0.64389 -1.37888,0.44862 -0.52362,0.16594 -1.90249,0.59091 -1.9025,0.5784 -1.13713,0.34209 -0.76536,0.22765 -1.9025,0.55943 -1.90249,0.55201 -1.19118,0.33824 -0.71132,0.20279 -1.90249,0.52149 -1.9025,0.49888 -1.84438,0.45418 -0.0581,0.0146 -1.9025,0.42218 -1.9025,0.36847 -1.90249,0.30221 -1.9025,0.22141 -1.90249,0.12436 -1.9025,0.01 -1.90249,-0.12266 -1.9025,-0.27274 -1.90249,-0.43898 -1.9025,-0.61903 z"
             clip-path="url(#p9e044c3c85)"
             inkscape:connector-curvature="0" />
        </g>
        <g
           id="PathCollection_6"
           style="stroke-linecap:butt;stroke-linejoin:round">
          <path
             id="path842"
             style="fill:#d57090;stroke-linecap:butt;stroke-linejoin:round"
             d="m 117.21946,176.1974 1.9025,0.61903 1.90249,0.43898 1.9025,0.27274 1.90249,0.12266 1.9025,-0.01 1.90249,-0.12436 1.9025,-0.22141 1.90249,-0.30221 1.9025,-0.36847 1.9025,-0.42218 0.0581,-0.0146 1.84438,-0.45418 1.9025,-0.49888 1.90249,-0.52149 0.71132,-0.20279 1.19118,-0.33824 1.90249,-0.55201 1.9025,-0.55943 0.76536,-0.22765 1.13713,-0.34209 1.9025,-0.5784 1.90249,-0.59091 0.52362,-0.16594 1.37888,-0.44862 1.90249,-0.64389 1.62771,-0.58483 0.27479,-0.10263 1.90249,-0.75004 1.90196,-0.82466 5.4e-4,-2.5e-4 1.90249,-0.93023 1.37584,-0.74686 0.52666,-0.30278 1.9025,-1.19613 0.26147,-0.17843 1.64102,-1.18978 0.62165,-0.48756 1.28085,-1.06639 0.68885,-0.61094 1.21364,-1.13673 0.55028,-0.54061 1.35222,-1.39017 0.2703,-0.28717 1.52948,-1.67733 0.10271,-0.11491 1.37529,-1.56243 0.52721,-0.60675 0.92607,-1.07059 0.97642,-1.13456 0.46904,-0.54278 1.43346,-1.66325 0.0123,-0.0141 1.45799,-1.67734 0.43224,-0.50416 1.01672,-1.17318 0.88578,-1.05184 0.53211,-0.62549 1.35881,-1.67734 0.0116,-0.0152 1.27417,-1.66218 0.62833,-0.90334 0.53961,-0.774 1.03373,-1.67733 0.32915,-0.61961 0.56214,-1.05773 0.73924,-1.67734 0.58782,-1.67733 0.0133,-0.049 0.44442,-1.62833 0.32929,-1.67734 0.21714,-1.67733 0.12094,-1.67734 0.039,-1.67734 -0.0314,-1.67734 -0.0933,-1.67733 -0.15069,-1.67734 -0.20739,-1.67734 -0.26763,-1.67733 -0.33578,-1.67734 -0.0646,-0.27052 -0.36131,-1.40682 -0.53135,-1.67734 -0.65758,-1.67733 -0.35226,-0.75409 -0.47488,-0.92325 -1.02656,-1.67734 -0.40105,-0.56473 -0.86027,-1.11261 -1.04223,-1.18558 -0.45937,-0.49175 -1.44312,-1.41373 -0.2768,-0.26361 -1.6257,-1.463921 -0.23587,-0.213416 -1.66662,-1.464718 -0.23458,-0.212619 -1.66792,-1.500658 -0.18762,-0.176679 -1.71487,-1.629321 -0.0482,-0.04802 -1.65569,-1.677337 -0.19863,-0.205859 -1.37113,-1.471478 -0.53136,-0.582585 -0.98821,-1.094752 -0.91429,-1.021124 -0.60211,-0.656213 -1.30038,-1.393935 -0.28399,-0.283402 -1.61851,-1.537646 -0.16845,-0.139691 -1.73404,-1.324111 -0.5822,-0.353227 -1.3203,-0.718731 -1.9025,-0.718951 -1.06703,-0.239655 -0.83546,-0.166364 -1.9025,-0.146142 -1.90249,0.06169 -1.9025,0.235464 -0.0735,0.01535 -1.82895,0.382192 -1.9025,0.525414 -1.90249,0.634912 -0.34492,0.134819 -1.55758,0.619671 -1.90249,0.845884 -0.43318,0.211783 -1.46932,0.741055 -1.72554,0.936282 -0.17695,0.100017 -1.9025,1.144726 -0.68616,0.432594 -1.21633,0.80821 -1.26156,0.869127 -0.64094,0.469056 -1.60832,1.208281 -0.29417,0.236246 -1.76348,1.441091 -0.13902,0.121955 -1.75455,1.555382 -0.14795,0.14102 -1.60194,1.536318 -0.30055,0.309571 -1.32183,1.367766 -0.58067,0.642749 -0.92922,1.034588 -0.97327,1.151592 -0.44023,0.52574 -1.3323,1.67734 -0.12997,0.17069 -1.12931,1.50664 -0.77318,1.05913 -0.44163,0.61821 -1.18137,1.67734 -0.2795,0.39499 -0.87971,1.28235 -1.02278,1.46591 -0.14257,0.21142 -1.16386,1.67734 -0.59607,0.82607 -0.59023,0.85127 -1.21092,1.67734 -0.10134,0.13334 -1.12493,1.54399 -0.77757,1.02693 -0.47451,0.65041 -1.26588,1.67734 -0.1621,0.20761 -1.11018,1.46972 -0.79232,1.03515 -0.47912,0.64219 -1.25705,1.67734 -0.16632,0.22233 -1.0695,1.45501 -0.833,1.16362 -0.36398,0.51371 -1.1497,1.67734 -0.38881,0.5974 -0.70236,1.07994 -1.01559,1.67733 -0.18455,0.33208 -0.75473,1.34526 -0.84239,1.67734 -0.30538,0.696 -0.438992,0.98133 -0.636274,1.67734 -0.517193,1.67734 -0.310031,1.32232 -0.08603,0.35502 -0.274014,1.67733 -0.1436,1.67734 -0.01211,1.67734 0.119224,1.67733 0.249105,1.67734 0.147426,0.66866 0.225631,1.00868 0.494219,1.67734 0.614569,1.67733 0.56807,1.31112 0.16361,0.36622 0.84942,1.67734 0.88947,1.54728 0.0783,0.13005 1.10264,1.67734 0.72153,1.00121 0.51694,0.67613 1.38555,1.67734 1.57288,1.67733 0.32962,0.33098 1.45126,1.34636 0.45123,0.39539 1.60928,1.28195 0.29322,0.21992 1.90249,1.26976 0.32304,0.18765 1.57946,0.85266 1.87872,0.82468 z m 5.73224,-6.71898 -0.0247,-0.009 -1.9025,-0.81168 -1.64679,-0.85709 -0.2557,-0.14179 -1.9025,-1.20462 -0.46424,-0.33093 -1.43825,-1.075 -0.72608,-0.60234 -1.17642,-1.02271 -0.68315,-0.65463 -1.21934,-1.23791 -0.39398,-0.43942 -1.39433,-1.67734 -0.11419,-0.1493 -1.06821,-1.52804 -0.83428,-1.36644 -0.17567,-0.31089 -0.82651,-1.67734 -0.66687,-1.67734 -0.23345,-0.75659 -0.27002,-0.92075 -0.34421,-1.67733 -0.18742,-1.67734 -0.0313,-1.67734 0.12332,-1.67733 0.27569,-1.67734 0.42526,-1.67734 0.009,-0.0253 0.55637,-1.65203 0.70346,-1.67733 0.64267,-1.28929 0.19309,-0.38805 0.95676,-1.67734 0.75264,-1.18083 0.32115,-0.4965 1.18025,-1.67734 0.4011,-0.53597 0.88104,-1.14137 1.02145,-1.26319 0.35002,-0.41414 1.45325,-1.67734 0.0992,-0.11423 1.43774,-1.56311 0.46475,-0.51021 1.13767,-1.16713 0.76483,-0.80697 0.88974,-0.87036 1.01275,-1.0376 0.67617,-0.63974 1.22633,-1.23693 0.47217,-0.44041 1.43032,-1.4463 0.24522,-0.23103 1.6184,-1.67734 0.0389,-0.0442 1.50606,-1.63318 0.39643,-0.47358 1.03795,-1.20376 0.86455,-1.10003 0.45995,-0.5773 1.24347,-1.67734 0.19907,-0.27706 1.00528,-1.40028 0.89722,-1.26731 0.28942,-0.41003 1.22194,-1.67733 0.39114,-0.5084 0.90336,-1.16894 0.99913,-1.205553 0.39782,-0.471784 1.50468,-1.638909 0.0366,-0.03843 1.75077,-1.677337 0.11517,-0.101088 1.9025,-1.57625 1.90249,-1.33216 0.55251,-0.345177 1.34999,-0.7855 1.77618,-0.891837 0.12631,-0.05989 1.9025,-0.721503 1.90249,-0.535048 1.9025,-0.317168 1.31116,-0.04373 0.59133,-0.01922 0.18337,0.01922 1.71913,0.203205 1.90249,0.543129 1.9025,0.882162 0.0791,0.04884 1.82336,1.231487 0.54511,0.44585 1.35739,1.181249 0.51039,0.496088 1.39211,1.395026 0.26611,0.282312 1.57603,1.677337 0.0603,0.06376 1.50352,1.613576 0.39898,0.417362 1.2066,1.259971 0.69589,0.70557 0.96659,0.97177 0.93591,0.91917 0.77634,0.75816 1.12615,1.08921 0.60472,0.58813 1.29778,1.27502 0.40001,0.40232 1.50248,1.56558 0.10251,0.11176 1.453,1.67733 0.34699,0.43329 0.92292,1.24405 0.97957,1.49451 0.10966,0.18283 0.89046,1.67734 0.73539,1.67733 0.16699,0.46047 0.40529,1.21687 0.43315,1.67734 0.30586,1.67733 0.18065,1.67734 0.0546,1.67734 -0.0751,1.67734 -0.21025,1.67733 -0.35218,1.67734 -0.50104,1.67734 -0.24095,0.61823 -0.41639,1.0591 -0.81031,1.67734 -0.6758,1.18464 -0.28318,0.4927 -1.09383,1.67733 -0.52548,0.72964 -0.6855,0.9477 -1.217,1.56709 -0.086,0.11025 -1.3717,1.67734 -0.44475,0.52728 -0.97485,1.15005 -0.92765,1.07665 -0.5227,0.60069 -1.37979,1.57363 -0.0925,0.10371 -1.50264,1.67733 -0.30738,0.34094 -1.2379,1.3364 -0.66459,0.70758 -0.9459,0.96976 -0.9566,0.95661 -0.75682,0.72073 -1.14567,1.05109 -0.72459,0.62624 -1.17791,0.96962 -0.92157,0.70772 -0.98093,0.71132 -1.4391,0.96602 -0.46339,0.29233 -1.9025,1.11018 -0.5081,0.27482 -1.39439,0.70869 -1.9025,0.89512 -0.16665,0.0735 -1.73584,0.7232 -1.9025,0.74459 -0.56516,0.20955 -1.33733,0.47225 -1.9025,0.63892 -1.76316,0.56617 -0.13933,0.0431 -1.9025,0.55373 -1.90249,0.52345 -1.9025,0.4889 -0.29904,0.0682 -1.60345,0.35799 -1.9025,0.37004 -1.90249,0.3053 -1.9025,0.22588 -1.9025,0.12975 -1.90249,0.0157 -1.9025,-0.11639 -1.90249,-0.26525 -1.9025,-0.42848 z"
             clip-path="url(#p9e044c3c85)"
             inkscape:connector-curvature="0" />
        </g>
        <g
           id="PathCollection_7"
           style="stroke-linecap:butt;stroke-linejoin:round">
          <path
             id="path845"
             style="fill:#bd6396;stroke-linecap:butt;stroke-linejoin:round"
             d="m 124.82944,170.07294 1.9025,0.42848 1.90249,0.26525 1.9025,0.11639 1.90249,-0.0157 1.9025,-0.12975 1.9025,-0.22588 1.90249,-0.3053 1.9025,-0.37004 1.60345,-0.35799 0.29904,-0.0682 1.9025,-0.4889 1.90249,-0.52345 1.9025,-0.55373 0.13933,-0.0431 1.76316,-0.56617 1.9025,-0.63892 1.33733,-0.47225 0.56516,-0.20955 1.9025,-0.74459 1.73584,-0.7232 0.16665,-0.0735 1.9025,-0.89512 1.39439,-0.70869 0.5081,-0.27482 1.9025,-1.11018 0.46339,-0.29233 1.4391,-0.96602 0.98093,-0.71132 0.92157,-0.70772 1.17791,-0.96962 0.72459,-0.62624 1.14567,-1.05109 0.75682,-0.72073 0.9566,-0.95661 0.9459,-0.96976 0.66459,-0.70758 1.2379,-1.3364 0.30738,-0.34094 1.50264,-1.67733 0.0925,-0.10371 1.37979,-1.57363 0.5227,-0.60069 0.92765,-1.07665 0.97485,-1.15005 0.44475,-0.52728 1.3717,-1.67734 0.086,-0.11025 1.217,-1.56709 0.6855,-0.9477 0.52548,-0.72964 1.09383,-1.67733 0.28318,-0.4927 0.6758,-1.18464 0.81031,-1.67734 0.41639,-1.0591 0.24095,-0.61823 0.50104,-1.67734 0.35218,-1.67734 0.21025,-1.67733 0.0751,-1.67734 -0.0546,-1.67734 -0.18065,-1.67734 -0.30586,-1.67733 -0.43315,-1.67734 -0.40529,-1.21687 -0.16699,-0.46047 -0.73539,-1.67733 -0.89046,-1.67734 -0.10966,-0.18283 -0.97957,-1.49451 -0.92292,-1.24405 -0.34699,-0.43329 -1.453,-1.67733 -0.10251,-0.11176 -1.50248,-1.56558 -0.40001,-0.40232 -1.29778,-1.27502 -0.60472,-0.58813 -1.12615,-1.08921 -0.77634,-0.75816 -0.93591,-0.91917 -0.96659,-0.97177 -0.69589,-0.70557 -1.2066,-1.259975 -0.39898,-0.417362 -1.50352,-1.613576 -0.0603,-0.06376 -1.57603,-1.677337 -0.26611,-0.282312 -1.39211,-1.395026 -0.51039,-0.496088 -1.35739,-1.181249 -0.54511,-0.44585 -1.82336,-1.231487 -0.0791,-0.04884 -1.9025,-0.882162 -1.90249,-0.543129 -1.71913,-0.203205 -0.18337,-0.01922 -0.59133,0.01922 -1.31116,0.04373 -1.9025,0.317168 -1.90249,0.535048 -1.9025,0.721503 -0.12631,0.05989 -1.77618,0.891837 -1.34999,0.7855 -0.55251,0.345177 -1.90249,1.33216 -1.9025,1.57625 -0.11517,0.101088 -1.75077,1.677337 -0.0366,0.03843 -1.50468,1.638909 -0.39782,0.471784 -0.99913,1.205557 -0.90336,1.16894 -0.39114,0.5084 -1.22194,1.67733 -0.28942,0.41003 -0.89722,1.26731 -1.00528,1.40028 -0.19907,0.27706 -1.24347,1.67734 -0.45995,0.5773 -0.86455,1.10003 -1.03795,1.20376 -0.39643,0.47358 -1.50606,1.63318 -0.0389,0.0442 -1.6184,1.67734 -0.24522,0.23103 -1.43032,1.4463 -0.47217,0.44041 -1.22633,1.23693 -0.67617,0.63974 -1.01275,1.0376 -0.88974,0.87036 -0.76483,0.80697 -1.13767,1.16713 -0.46475,0.51021 -1.43774,1.56311 -0.0992,0.11423 -1.45325,1.67734 -0.35002,0.41414 -1.02145,1.26319 -0.88104,1.14137 -0.4011,0.53597 -1.18025,1.67734 -0.32115,0.4965 -0.75264,1.18083 -0.95676,1.67734 -0.19309,0.38805 -0.64267,1.28929 -0.70346,1.67733 -0.55637,1.65203 -0.009,0.0253 -0.42526,1.67734 -0.27569,1.67734 -0.12332,1.67733 0.0313,1.67734 0.18742,1.67734 0.34421,1.67733 0.27002,0.92075 0.23345,0.75659 0.66687,1.67734 0.82651,1.67734 0.17567,0.31089 0.83428,1.36644 1.06821,1.52804 0.11419,0.1493 1.39433,1.67734 0.39398,0.43942 1.21934,1.23791 0.68315,0.65463 1.17642,1.02271 0.72608,0.60234 1.43825,1.075 0.46424,0.33093 1.9025,1.20462 0.2557,0.14179 1.64679,0.85709 1.9025,0.81168 0.0247,0.009 z m 3.06974,-7.30387 -1.16724,-0.42007 -1.9025,-0.83428 -0.82127,-0.42298 -1.08122,-0.56972 -1.82301,-1.10762 -0.0795,-0.0494 -1.90249,-1.34593 -0.35096,-0.28202 -1.55154,-1.31443 -0.37652,-0.3629 -1.52597,-1.61135 -0.0551,-0.066 -1.24352,-1.67734 -0.60384,-0.98806 -0.37617,-0.68928 -0.71704,-1.67733 -0.49222,-1.67734 -0.27312,-1.67734 -0.0439,-1.17293 -0.0176,-0.5044 0.0176,-0.21342 0.12124,-1.46392 0.33153,-1.67734 0.51455,-1.67734 0.68916,-1.67733 0.24601,-0.48162 0.62767,-1.19572 1.03941,-1.67734 0.23542,-0.33494 0.98916,-1.34239 0.91333,-1.12242 0.48096,-0.55492 1.42154,-1.52531 0.15321,-0.15203 1.74928,-1.65627 0.0244,-0.0211 1.87812,-1.58807 0.11682,-0.0893 1.78567,-1.36918 0.44673,-0.30816 1.45577,-1.03336 1.00599,-0.64398 0.8965,-0.60595 1.73918,-1.07138 0.16332,-0.10905 1.90249,-1.17796 0.6703,-0.39033 1.2322,-0.80419 1.38976,-0.87315 0.51274,-0.37077 1.84331,-1.30656 0.0592,-0.0494 1.9025,-1.5691 0.0725,-0.0588 1.72291,-1.67734 0.10708,-0.12509 1.37632,-1.55225 0.52618,-0.69836 0.78965,-0.97897 1.11284,-1.54466 0.10755,-0.13268 1.3138,-1.67734 0.48115,-0.59803 1.06002,-1.07931 0.84247,-0.78553 1.31515,-0.8918 0.58735,-0.35244 1.90249,-0.65545 1.9025,-0.14283 1.90249,0.34109 1.9025,0.7488 0.10409,0.0608 1.7984,1.02344 0.9402,0.65389 0.9623,0.62129 1.43031,1.05605 0.47218,0.31762 1.82071,1.35972 0.0818,0.056 1.9025,1.43704 0.22691,0.18434 1.67558,1.29443 0.46102,0.3829 1.44148,1.17077 0.57826,0.50657 1.32423,1.17077 0.52898,0.50657 1.37352,1.37543 0.27689,0.30191 1.41729,1.67733 0.20831,0.27598 0.96015,1.40136 0.94235,1.65274 0.0127,0.0246 0.70119,1.67733 0.49887,1.67734 0.2969,1.67734 0.097,1.67734 -0.0991,1.67733 -0.28975,1.67734 -0.47289,1.67734 -0.64633,1.67733 -0.0986,0.20219 -0.73467,1.47515 -0.97915,1.67734 -0.18868,0.28397 -0.9446,1.39336 -0.95789,1.29746 -0.28697,0.37988 -1.35027,1.67734 -0.26526,0.31533 -1.17553,1.36201 -0.72696,0.82169 -0.78157,0.85564 -1.12093,1.20879 -0.45196,0.46855 -1.45053,1.48721 -0.19449,0.19013 -1.70801,1.64907 -0.031,0.0283 -1.87153,1.67734 -1.90249,1.5561 -0.15909,0.12124 -1.74341,1.27933 -0.58497,0.39801 -1.31752,0.85489 -1.37013,0.82244 -0.53237,0.3025 -1.90249,0.99646 -0.78368,0.37838 -1.11882,0.50967 -1.90249,0.79923 -0.95701,0.36844 -0.94549,0.34402 -1.90249,0.62861 -1.9025,0.56883 -0.52721,0.13587 -1.37528,0.33791 -1.9025,0.39129 -1.90249,0.30628 -1.9025,0.2059 -1.90249,0.0891 -1.9025,-0.0433 -1.9025,-0.18874 -1.90249,-0.34327 -1.9025,-0.50275 z"
             clip-path="url(#p9e044c3c85)"
             inkscape:connector-curvature="0" />
        </g>
        <g
           id="PathCollection_8"
           style="stroke-linecap:butt;stroke-linejoin:round">
          <path
             id="path848"
             style="fill:#9a5d9b;stroke-linecap:butt;stroke-linejoin:round"
             d="m 128.63443,163.02148 1.9025,0.50275 1.90249,0.34327 1.9025,0.18874 1.9025,0.0433 1.90249,-0.0891 1.9025,-0.2059 1.90249,-0.30628 1.9025,-0.39129 1.37528,-0.33791 0.52721,-0.13587 1.9025,-0.56883 1.90249,-0.62861 0.94549,-0.34402 0.95701,-0.36844 1.90249,-0.79923 1.11882,-0.50967 0.78368,-0.37838 1.90249,-0.99646 0.53237,-0.3025 1.37013,-0.82244 1.31752,-0.85489 0.58497,-0.39801 1.74341,-1.27933 0.15909,-0.12124 1.90249,-1.5561 1.87153,-1.67734 0.031,-0.0283 1.70801,-1.64907 0.19449,-0.19013 1.45053,-1.48721 0.45196,-0.46855 1.12093,-1.20879 0.78157,-0.85564 0.72696,-0.82169 1.17553,-1.36201 0.26526,-0.31533 1.35027,-1.67734 0.28697,-0.37988 0.95789,-1.29746 0.9446,-1.39336 0.18868,-0.28397 0.97915,-1.67734 0.73467,-1.47515 0.0986,-0.20219 0.64633,-1.67733 0.47289,-1.67734 0.28975,-1.67734 0.0991,-1.67733 -0.097,-1.67734 -0.2969,-1.67734 -0.49887,-1.67734 -0.70119,-1.67733 -0.0127,-0.0246 -0.94235,-1.65274 -0.96015,-1.40136 -0.20831,-0.27598 -1.41729,-1.67733 -0.27689,-0.30191 -1.37352,-1.37543 -0.52898,-0.50657 -1.32423,-1.17077 -0.57826,-0.50657 -1.44148,-1.17077 -0.46102,-0.3829 -1.67558,-1.29443 -0.22691,-0.18434 -1.9025,-1.43704 -0.0818,-0.056 -1.82071,-1.35972 -0.47218,-0.31762 -1.43031,-1.05605 -0.9623,-0.62129 -0.9402,-0.65389 -1.7984,-1.02344 -0.10409,-0.0608 -1.9025,-0.7488 -1.90249,-0.34109 -1.9025,0.14283 -1.90249,0.65545 -0.58735,0.35244 -1.31515,0.8918 -0.84247,0.78553 -1.06002,1.07931 -0.48115,0.59803 -1.3138,1.67734 -0.10755,0.13268 -1.11284,1.54466 -0.78965,0.97897 -0.52618,0.69836 -1.37632,1.55225 -0.10708,0.12509 -1.72291,1.67734 -0.0725,0.0588 -1.9025,1.5691 -0.0592,0.0494 -1.84331,1.30656 -0.51274,0.37077 -1.38976,0.87315 -1.2322,0.80419 -0.6703,0.39033 -1.90249,1.17796 -0.16332,0.10905 -1.73918,1.07138 -0.8965,0.60595 -1.00599,0.64398 -1.45577,1.03336 -0.44673,0.30816 -1.78567,1.36918 -0.11682,0.0893 -1.87812,1.58807 -0.0244,0.0211 -1.74928,1.65627 -0.15321,0.15203 -1.42154,1.52531 -0.48096,0.55492 -0.91333,1.12242 -0.98916,1.34239 -0.23542,0.33494 -1.03941,1.67734 -0.62767,1.19572 -0.24601,0.48162 -0.68916,1.67733 -0.51455,1.67734 -0.33153,1.67734 -0.12124,1.46392 -0.0176,0.21342 0.0176,0.5044 0.0439,1.17293 0.27312,1.67734 0.49222,1.67734 0.71704,1.67733 0.37617,0.68928 0.60384,0.98806 1.24352,1.67734 0.0551,0.066 1.52597,1.61135 0.37652,0.3629 1.55154,1.31443 0.35096,0.28202 1.90249,1.34593 0.0795,0.0494 1.82301,1.10762 1.08122,0.56972 0.82127,0.42298 1.9025,0.83428 1.16724,0.42007 z m 3.35602,-8.63909 -1.45352,-0.38216 -1.9025,-0.65141 -1.49759,-0.64377 -0.4049,-0.18321 -1.9025,-1.06614 -0.62552,-0.42799 -1.27697,-0.99005 -0.728,-0.68728 -1.1745,-1.37505 -0.2153,-0.30229 -0.87401,-1.67734 -0.50698,-1.67733 -0.15974,-1.67734 0.16195,-1.67734 0.45674,-1.67734 0.72628,-1.67733 0.41106,-0.70092 0.61793,-0.97642 1.28457,-1.64432 0.0282,-0.033 1.68524,-1.67733 0.18903,-0.16779 1.88521,-1.50955 0.0173,-0.0128 1.90249,-1.2597 0.67996,-0.40486 1.22254,-0.69279 1.90249,-0.97754 0.0149,-0.007 1.88756,-0.86974 1.8661,-0.8076 0.0364,-0.016 1.90249,-0.78758 1.9025,-0.76884 0.2676,-0.10496 1.63489,-0.66992 1.9025,-0.77144 0.59875,-0.23598 1.30374,-0.55056 1.9025,-0.77323 0.93188,-0.35354 0.97061,-0.40089 1.9025,-0.69594 1.8846,-0.58051 0.0179,-0.006 1.9025,-0.46106 1.90249,-0.26264 1.9025,-0.0361 1.90249,0.214 1.9025,0.48104 0.18078,0.0707 1.72171,0.71294 1.6743,0.9644 0.2282,0.1475 1.85757,1.52983 0.0449,0.0445 1.36487,1.6328 0.53762,0.85823 0.43998,0.81911 0.59075,1.67734 0.26968,1.67733 -0.033,1.67734 -0.3099,1.67734 -0.55569,1.67733 -0.40182,0.8633 -0.39552,0.81404 -1.01597,1.67734 -0.491,0.69548 -0.72524,0.98185 -1.17726,1.43585 -0.2081,0.24149 -1.56829,1.67734 -0.12611,0.12732 -1.62556,1.55002 -0.27693,0.25374 -1.65715,1.42359 -0.24535,0.20422 -1.90249,1.47312 -1.9025,1.31469 -0.57269,0.36265 -1.3298,0.81692 -1.54257,0.86041 -0.35993,0.19452 -1.90249,0.91634 -1.33263,0.56648 -0.56987,0.23415 -1.90249,0.6713 -1.9025,0.56102 -0.90993,0.21087 -0.99256,0.22284 -1.9025,0.3076 -1.90249,0.18286 -1.9025,0.0526 -1.90249,-0.081 -1.9025,-0.21609 -1.9025,-0.35259 z"
             clip-path="url(#p9e044c3c85)"
             inkscape:connector-curvature="0" />
        </g>
        <g
           id="PathCollection_9"
           style="stroke-linecap:butt;stroke-linejoin:round">
          <path
             id="path851"
             style="fill:#7157a2;stroke-linecap:butt;stroke-linejoin:round"
             d="m 132.43942,154.49864 1.9025,0.35259 1.9025,0.21609 1.90249,0.081 1.9025,-0.0526 1.90249,-0.18286 1.9025,-0.3076 0.99256,-0.22284 0.90993,-0.21087 1.9025,-0.56102 1.90249,-0.6713 0.56987,-0.23415 1.33263,-0.56648 1.90249,-0.91634 0.35993,-0.19452 1.54257,-0.86041 1.3298,-0.81692 0.57269,-0.36265 1.9025,-1.31469 1.90249,-1.47312 0.24535,-0.20422 1.65715,-1.42359 0.27693,-0.25374 1.62556,-1.55002 0.12611,-0.12732 1.56829,-1.67734 0.2081,-0.24149 1.17726,-1.43585 0.72524,-0.98185 0.491,-0.69548 1.01597,-1.67734 0.39552,-0.81404 0.40182,-0.8633 0.55569,-1.67733 0.3099,-1.67734 0.033,-1.67734 -0.26968,-1.67733 -0.59075,-1.67734 -0.43998,-0.81911 -0.53762,-0.85823 -1.36487,-1.6328 -0.0449,-0.0445 -1.85757,-1.52983 -0.2282,-0.1475 -1.6743,-0.9644 -1.72171,-0.71294 -0.18078,-0.0707 -1.9025,-0.48104 -1.90249,-0.214 -1.9025,0.0361 -1.90249,0.26264 -1.9025,0.46106 -0.0179,0.006 -1.8846,0.58051 -1.9025,0.69594 -0.97061,0.40089 -0.93188,0.35354 -1.9025,0.77323 -1.30374,0.55056 -0.59875,0.23598 -1.9025,0.77144 -1.63489,0.66992 -0.2676,0.10496 -1.9025,0.76884 -1.90249,0.78758 -0.0364,0.016 -1.8661,0.8076 -1.88756,0.86974 -0.0149,0.007 -1.90249,0.97754 -1.22254,0.69279 -0.67996,0.40486 -1.90249,1.2597 -0.0173,0.0128 -1.88521,1.50955 -0.18903,0.16779 -1.68524,1.67733 -0.0282,0.033 -1.28457,1.64432 -0.61793,0.97642 -0.41106,0.70092 -0.72628,1.67733 -0.45674,1.67734 -0.16195,1.67734 0.15974,1.67734 0.50698,1.67733 0.87401,1.67734 0.2153,0.30229 1.1745,1.37505 0.728,0.68728 1.27697,0.99005 0.62552,0.42799 1.9025,1.06614 0.4049,0.18321 1.49759,0.64377 1.9025,0.65141 1.45352,0.38216 z"
             clip-path="url(#p9e044c3c85)"
             inkscape:connector-curvature="0" />
        </g>
        <g
           id="matplotlib.axis_1"
           style="stroke-linecap:butt;stroke-linejoin:round" />
        <g
           id="matplotlib.axis_2"
           style="stroke-linecap:butt;stroke-linejoin:round" />
      </g>
    </g>
    <path
       style="fill:none;stroke:#000000;stroke-width:0.66500002;stroke-linecap:butt;stroke-linejoin:miter;stroke-miterlimit:4;stroke-dasharray:none;stroke-opacity:1;marker-end:url(#Arrow1Send)"
       d="m 154.78125,63.410713 c -16.25271,0 -32.50569,0 -48.75893,0"
       id="path896"
       inkscape:connector-curvature="0"
       inkscape:path-effect="#path-effect898"
       inkscape:original-d="m 154.78125,63.410713 c -16.25271,-2.65e-4 -32.50569,-2.65e-4 -48.75893,0"
       transform="matrix(0.88595038,0,0,1,17.085778,-2.2678571)" />
    <text
       xml:space="preserve"
       style="font-style:normal;font-variant:normal;font-weight:normal;font-stretch:normal;font-size:6.3499999px;line-height:1.25;font-family:Roboto;-inkscape-font-specification:Roboto;letter-spacing:0px;word-spacing:0px;fill:#000000;fill-opacity:1;stroke:none;stroke-width:0.26458332;stroke-linecap:butt;stroke-linejoin:round"
       x="157.2381"
       y="63.221725"
       id="text902"><tspan
         sodipodi:role="line"
         id="tspan900"
         style="stroke-width:0.26458332;stroke-linecap:butt;stroke-linejoin:round"
         x="157.2381"
         y="63.221725">HC<tspan
   style="font-size:64.99999762%;baseline-shift:sub;stroke-linecap:butt;stroke-linejoin:round"
   id="tspan904">3</tspan>N</tspan></text>
    <text
       id="text1330"
       y="46.590775"
       x="163.85268"
       style="font-style:normal;font-variant:normal;font-weight:normal;font-stretch:normal;font-size:6.3499999px;line-height:1.25;font-family:Roboto;-inkscape-font-specification:Roboto;letter-spacing:0px;word-spacing:0px;fill:#000000;fill-opacity:1;stroke:none;stroke-width:0.26458332;stroke-linecap:butt;stroke-linejoin:round"
       xml:space="preserve"><tspan
         y="46.590775"
         x="163.85268"
         style="stroke-width:0.26458332;stroke-linecap:butt;stroke-linejoin:round"
         id="tspan1328"
         sodipodi:role="line">HC<tspan
   style="font-size:64.99999762%;baseline-shift:sub;stroke-linecap:butt;stroke-linejoin:round"
   id="tspan1922">5</tspan>N</tspan></text>
    <path
       transform="matrix(0.88595038,0,0,1,24.645302,-18.898809)"
       inkscape:original-d="m 154.78125,63.410713 c -16.25271,-2.65e-4 -32.50569,-2.65e-4 -48.75893,0"
       inkscape:path-effect="#path-effect1568"
       inkscape:connector-curvature="0"
       id="path1566"
       d="m 154.78125,63.410713 c -16.25271,0 -32.50569,0 -48.75893,0"
       style="fill:none;stroke:#000000;stroke-width:0.66500002;stroke-linecap:butt;stroke-linejoin:miter;stroke-miterlimit:4;stroke-dasharray:none;stroke-opacity:1;marker-end:url(#marker1572)" />
    <text
       xml:space="preserve"
       style="font-style:normal;font-variant:normal;font-weight:normal;font-stretch:normal;font-size:6.3499999px;line-height:1.25;font-family:Roboto;-inkscape-font-specification:Roboto;letter-spacing:0px;word-spacing:0px;fill:#000000;fill-opacity:1;stroke:none;stroke-width:0.26458332;stroke-linecap:butt;stroke-linejoin:round"
       x="134.18155"
       y="111.03571"
       id="text1928"><tspan
         sodipodi:role="line"
         id="tspan1926"
         style="stroke-width:0.26458332;stroke-linecap:butt;stroke-linejoin:round"
         x="134.18155"
         y="111.03571">CCl<tspan
   style="font-size:64.99999762%;baseline-shift:sub;stroke-linecap:butt;stroke-linejoin:round"
   id="tspan2200">2</tspan>F<tspan
   style="font-size:64.99999762%;baseline-shift:sub;stroke-linecap:butt;stroke-linejoin:round"
   id="tspan2198">2</tspan></tspan></text>
    <path
       style="fill:none;stroke:#000000;stroke-width:0.66500002;stroke-linecap:butt;stroke-linejoin:miter;stroke-miterlimit:4;stroke-dasharray:none;stroke-opacity:1;marker-end:url(#marker1942)"
       d="m 154.78125,63.410713 c -16.25271,0 -32.50569,0 -48.75893,0"
       id="path1936"
       inkscape:connector-curvature="0"
       inkscape:path-effect="#path-effect1938"
       inkscape:original-d="m 154.78125,63.410713 c -16.25271,-2.65e-4 -32.50569,-2.65e-4 -48.75893,0"
       transform="matrix(0.88595038,0,0,1,-6.1597574,45.546131)" />
  </g>
</svg>
